<svg width="1024" height="753" viewBox="0 0 1024 753" fill="none" xmlns="http://www.w3.org/2000/svg">
<g clip-path="url(#clip0_527_1320)">
<rect width="1024" height="753" fill="#0FA11C"/>
<g opacity="0.5" filter="url(#filter0_f_527_1320)">
<ellipse cx="525.5" cy="102.499" rx="670.5" ry="348.499" fill="#FFDA44"/>
</g>
<path d="M46.0349 337.488C47.5302 337.488 48.6622 338.115 49.4308 339.371C50.2134 340.612 50.6047 342.42 50.6047 344.792C50.6047 347.165 50.2134 348.979 49.4308 350.235C48.6622 351.49 47.5302 352.118 46.0349 352.118C44.5536 352.118 43.4216 351.49 42.639 350.235C41.8564 348.979 41.4651 347.165 41.4651 344.792C41.4651 342.433 41.8564 340.626 42.639 339.371C43.4216 338.115 44.5536 337.488 46.0349 337.488ZM42.9534 344.792C42.9534 346.475 43.1072 347.793 43.4146 348.745L48.0683 339.578C47.5791 338.929 46.9013 338.605 46.0349 338.605C45.0706 338.605 44.316 339.116 43.771 340.137C43.2259 341.144 42.9534 342.696 42.9534 344.792ZM46.0349 350.98C47.0131 350.98 47.7748 350.476 48.3198 349.469C48.8648 348.448 49.1373 346.889 49.1373 344.792C49.1373 343.013 48.9627 341.633 48.6133 340.654L43.9596 349.904C44.4627 350.621 45.1545 350.98 46.0349 350.98Z" fill="url(#paint0_linear_527_1320)" fill-opacity="0.6"/>
<path d="M47.2926 374.463H50.3741V375.56H42.3874V374.463H45.9511V362.834L42.5551 364.841L41.9682 363.91L46.1607 361.344H47.2926V374.463Z" fill="url(#paint1_linear_527_1320)" fill-opacity="0.6"/>
<path d="M46.0349 384.786C47.5302 384.786 48.6622 385.414 49.4308 386.669C50.2134 387.911 50.6047 389.718 50.6047 392.091C50.6047 394.464 50.2134 396.278 49.4308 397.533C48.6622 398.789 47.5302 399.416 46.0349 399.416C44.5536 399.416 43.4216 398.789 42.639 397.533C41.8564 396.278 41.4651 394.464 41.4651 392.091C41.4651 389.732 41.8564 387.925 42.639 386.669C43.4216 385.414 44.5536 384.786 46.0349 384.786ZM42.9534 392.091C42.9534 393.774 43.1072 395.091 43.4146 396.043L48.0683 386.876C47.5791 386.228 46.9013 385.904 46.0349 385.904C45.0706 385.904 44.316 386.414 43.771 387.435C43.2259 388.442 42.9534 389.994 42.9534 392.091ZM46.0349 398.278C47.0131 398.278 47.7748 397.775 48.3198 396.768C48.8648 395.747 49.1373 394.188 49.1373 392.091C49.1373 390.311 48.9627 388.932 48.6133 387.952L43.9596 397.202C44.4627 397.919 45.1545 398.278 46.0349 398.278Z" fill="url(#paint2_linear_527_1320)" fill-opacity="0.6"/>
<path d="M47.2926 421.762H50.3741V422.859H42.3874V421.762H45.9511V410.132L42.5551 412.14L41.9682 411.208L46.1607 408.642H47.2926V421.762Z" fill="url(#paint3_linear_527_1320)" fill-opacity="0.6"/>
<path d="M47.2926 445.411H50.3741V446.508H42.3874V445.411H45.9511V433.782L42.5551 435.789L41.9682 434.858L46.1607 432.292H47.2926V445.411Z" fill="url(#paint4_linear_527_1320)" fill-opacity="0.6"/>
<path d="M46.0349 455.734C47.5302 455.734 48.6622 456.362 49.4308 457.617C50.2134 458.859 50.6047 460.666 50.6047 463.039C50.6047 465.411 50.2134 467.226 49.4308 468.481C48.6622 469.736 47.5302 470.364 46.0349 470.364C44.5536 470.364 43.4216 469.736 42.639 468.481C41.8564 467.226 41.4651 465.411 41.4651 463.039C41.4651 460.68 41.8564 458.872 42.639 457.617C43.4216 456.362 44.5536 455.734 46.0349 455.734ZM42.9534 463.039C42.9534 464.722 43.1072 466.039 43.4146 466.991L48.0683 457.824C47.5791 457.176 46.9013 456.851 46.0349 456.851C45.0706 456.851 44.316 457.362 43.771 458.383C43.2259 459.39 42.9534 460.942 42.9534 463.039ZM46.0349 469.226C47.0131 469.226 47.7748 468.722 48.3198 467.715C48.8648 466.694 49.1373 465.136 49.1373 463.039C49.1373 461.259 48.9627 459.879 48.6133 458.9L43.9596 468.15C44.4627 468.867 45.1545 469.226 46.0349 469.226Z" fill="url(#paint5_linear_527_1320)" fill-opacity="0.6"/>
<path d="M47.2926 492.71H50.3741V493.806H42.3874V492.71H45.9511V481.08L42.5551 483.087L41.9682 482.156L46.1607 479.59H47.2926V492.71Z" fill="url(#paint6_linear_527_1320)" fill-opacity="0.6"/>
<path d="M46.0349 503.032C47.5302 503.032 48.6622 503.66 49.4308 504.916C50.2134 506.157 50.6047 507.964 50.6047 510.337C50.6047 512.71 50.2134 514.524 49.4308 515.779C48.6622 517.035 47.5302 517.662 46.0349 517.662C44.5536 517.662 43.4216 517.035 42.639 515.779C41.8564 514.524 41.4651 512.71 41.4651 510.337C41.4651 507.978 41.8564 506.171 42.639 504.916C43.4216 503.66 44.5536 503.032 46.0349 503.032ZM42.9534 510.337C42.9534 512.02 43.1072 513.338 43.4146 514.289L48.0683 505.122C47.5791 504.474 46.9013 504.15 46.0349 504.15C45.0706 504.15 44.316 504.66 43.771 505.681C43.2259 506.688 42.9534 508.24 42.9534 510.337ZM46.0349 516.524C47.0131 516.524 47.7748 516.021 48.3198 515.014C48.8648 513.993 49.1373 512.434 49.1373 510.337C49.1373 508.557 48.9627 507.178 48.6133 506.198L43.9596 515.448C44.4627 516.166 45.1545 516.524 46.0349 516.524Z" fill="url(#paint7_linear_527_1320)" fill-opacity="0.6"/>
<path d="M46.0349 526.682C47.5302 526.682 48.6622 527.309 49.4308 528.565C50.2134 529.806 50.6047 531.614 50.6047 533.986C50.6047 536.359 50.2134 538.173 49.4308 539.429C48.6622 540.684 47.5302 541.312 46.0349 541.312C44.5536 541.312 43.4216 540.684 42.639 539.429C41.8564 538.173 41.4651 536.359 41.4651 533.986C41.4651 531.627 41.8564 529.82 42.639 528.565C43.4216 527.309 44.5536 526.682 46.0349 526.682ZM42.9534 533.986C42.9534 535.669 43.1072 536.987 43.4146 537.939L48.0683 528.772C47.5791 528.123 46.9013 527.799 46.0349 527.799C45.0706 527.799 44.316 528.31 43.771 529.33C43.2259 530.337 42.9534 531.889 42.9534 533.986ZM46.0349 540.174C47.0131 540.174 47.7748 539.67 48.3198 538.663C48.8648 537.642 49.1373 536.083 49.1373 533.986C49.1373 532.207 48.9627 530.827 48.6133 529.848L43.9596 539.097C44.4627 539.815 45.1545 540.174 46.0349 540.174Z" fill="url(#paint8_linear_527_1320)" fill-opacity="0.6"/>
<path d="M47.2926 563.657H50.3741V564.754H42.3874V563.657H45.9511V552.028L42.5551 554.035L41.9682 553.104L46.1607 550.538H47.2926V563.657Z" fill="url(#paint9_linear_527_1320)" fill-opacity="0.6"/>
<path d="M46.0349 573.98C47.5302 573.98 48.6622 574.608 49.4308 575.863C50.2134 577.105 50.6047 578.912 50.6047 581.285C50.6047 583.658 50.2134 585.472 49.4308 586.727C48.6622 587.982 47.5302 588.61 46.0349 588.61C44.5536 588.61 43.4216 587.982 42.639 586.727C41.8564 585.472 41.4651 583.658 41.4651 581.285C41.4651 578.926 41.8564 577.119 42.639 575.863C43.4216 574.608 44.5536 573.98 46.0349 573.98ZM42.9534 581.285C42.9534 582.968 43.1072 584.285 43.4146 585.237L48.0683 576.07C47.5791 575.422 46.9013 575.098 46.0349 575.098C45.0706 575.098 44.316 575.608 43.771 576.629C43.2259 577.636 42.9534 579.188 42.9534 581.285ZM46.0349 587.472C47.0131 587.472 47.7748 586.968 48.3198 585.961C48.8648 584.941 49.1373 583.382 49.1373 581.285C49.1373 579.505 48.9627 578.126 48.6133 577.146L43.9596 586.396C44.4627 587.113 45.1545 587.472 46.0349 587.472Z" fill="url(#paint10_linear_527_1320)" fill-opacity="0.6"/>
<path d="M47.2926 610.956H50.3741V612.052H42.3874V610.956H45.9511V599.326L42.5551 601.333L41.9682 600.402L46.1607 597.836H47.2926V610.956Z" fill="url(#paint11_linear_527_1320)" fill-opacity="0.6"/>
<path d="M47.2926 634.605H50.3741V635.702H42.3874V634.605H45.9511V622.975L42.5551 624.983L41.9682 624.051L46.1607 621.486H47.2926V634.605Z" fill="url(#paint12_linear_527_1320)" fill-opacity="0.6"/>
<path d="M84.9651 384.786C86.4604 384.786 87.5924 385.414 88.361 386.669C89.1436 387.911 89.5349 389.718 89.5349 392.091C89.5349 394.464 89.1436 396.278 88.361 397.533C87.5924 398.789 86.4604 399.416 84.9651 399.416C83.4838 399.416 82.3518 398.789 81.5692 397.533C80.7866 396.278 80.3953 394.464 80.3953 392.091C80.3953 389.732 80.7866 387.925 81.5692 386.669C82.3518 385.414 83.4838 384.786 84.9651 384.786ZM81.8836 392.091C81.8836 393.774 82.0374 395.091 82.3448 396.043L86.9985 386.876C86.5093 386.228 85.8315 385.904 84.9651 385.904C84.0008 385.904 83.2462 386.414 82.7012 387.435C82.1561 388.442 81.8836 389.994 81.8836 392.091ZM84.9651 398.278C85.9433 398.278 86.705 397.775 87.25 396.768C87.795 395.747 88.0675 394.188 88.0675 392.091C88.0675 390.311 87.8928 388.932 87.5435 387.952L82.8898 397.202C83.3929 397.919 84.0847 398.278 84.9651 398.278Z" fill="url(#paint13_linear_527_1320)" fill-opacity="0.6"/>
<path d="M86.2228 421.762H89.3043V422.859H81.3176V421.762H84.8812V410.132L81.4853 412.14L80.8984 411.208L85.0909 408.642H86.2228V421.762Z" fill="url(#paint14_linear_527_1320)" fill-opacity="0.6"/>
<path d="M84.9651 432.085C86.4604 432.085 87.5924 432.712 88.361 433.968C89.1436 435.209 89.5349 437.017 89.5349 439.389C89.5349 441.762 89.1436 443.576 88.361 444.832C87.5924 446.087 86.4604 446.715 84.9651 446.715C83.4838 446.715 82.3518 446.087 81.5692 444.832C80.7866 443.576 80.3953 441.762 80.3953 439.389C80.3953 437.03 80.7866 435.223 81.5692 433.968C82.3518 432.712 83.4838 432.085 84.9651 432.085ZM81.8836 439.389C81.8836 441.072 82.0374 442.39 82.3448 443.342L86.9985 434.175C86.5093 433.526 85.8315 433.202 84.9651 433.202C84.0008 433.202 83.2462 433.713 82.7012 434.733C82.1561 435.741 81.8836 437.292 81.8836 439.389ZM84.9651 445.577C85.9433 445.577 86.705 445.073 87.25 444.066C87.795 443.045 88.0675 441.486 88.0675 439.389C88.0675 437.61 87.8928 436.23 87.5435 435.251L82.8898 444.501C83.3929 445.218 84.0847 445.577 84.9651 445.577Z" fill="url(#paint15_linear_527_1320)" fill-opacity="0.6"/>
<path d="M84.9651 455.734C86.4604 455.734 87.5924 456.362 88.361 457.617C89.1436 458.859 89.5349 460.666 89.5349 463.039C89.5349 465.411 89.1436 467.226 88.361 468.481C87.5924 469.736 86.4604 470.364 84.9651 470.364C83.4838 470.364 82.3518 469.736 81.5692 468.481C80.7866 467.226 80.3953 465.411 80.3953 463.039C80.3953 460.68 80.7866 458.872 81.5692 457.617C82.3518 456.362 83.4838 455.734 84.9651 455.734ZM81.8836 463.039C81.8836 464.722 82.0374 466.039 82.3448 466.991L86.9985 457.824C86.5093 457.176 85.8315 456.851 84.9651 456.851C84.0008 456.851 83.2462 457.362 82.7012 458.383C82.1561 459.39 81.8836 460.942 81.8836 463.039ZM84.9651 469.226C85.9433 469.226 86.705 468.722 87.25 467.715C87.795 466.694 88.0675 465.136 88.0675 463.039C88.0675 461.259 87.8928 459.879 87.5435 458.9L82.8898 468.15C83.3929 468.867 84.0847 469.226 84.9651 469.226Z" fill="url(#paint16_linear_527_1320)" fill-opacity="0.6"/>
<path d="M86.2228 492.71H89.3043V493.806H81.3176V492.71H84.8812V481.08L81.4853 483.087L80.8984 482.156L85.0909 479.59H86.2228V492.71Z" fill="url(#paint17_linear_527_1320)" fill-opacity="0.6"/>
<path d="M84.9651 503.032C86.4604 503.032 87.5924 503.66 88.361 504.916C89.1436 506.157 89.5349 507.964 89.5349 510.337C89.5349 512.71 89.1436 514.524 88.361 515.779C87.5924 517.035 86.4604 517.662 84.9651 517.662C83.4838 517.662 82.3518 517.035 81.5692 515.779C80.7866 514.524 80.3953 512.71 80.3953 510.337C80.3953 507.978 80.7866 506.171 81.5692 504.916C82.3518 503.66 83.4838 503.032 84.9651 503.032ZM81.8836 510.337C81.8836 512.02 82.0374 513.338 82.3448 514.289L86.9985 505.122C86.5093 504.474 85.8315 504.15 84.9651 504.15C84.0008 504.15 83.2462 504.66 82.7012 505.681C82.1561 506.688 81.8836 508.24 81.8836 510.337ZM84.9651 516.524C85.9433 516.524 86.705 516.021 87.25 515.014C87.795 513.993 88.0675 512.434 88.0675 510.337C88.0675 508.557 87.8928 507.178 87.5435 506.198L82.8898 515.448C83.3929 516.166 84.0847 516.524 84.9651 516.524Z" fill="url(#paint18_linear_527_1320)" fill-opacity="0.6"/>
<path d="M86.2228 540.008H89.3043V541.105H81.3176V540.008H84.8812V528.378L81.4853 530.386L80.8984 529.455L85.0909 526.889H86.2228V540.008Z" fill="url(#paint19_linear_527_1320)" fill-opacity="0.6"/>
<path d="M84.9651 550.331C86.4604 550.331 87.5924 550.959 88.361 552.214C89.1436 553.456 89.5349 555.263 89.5349 557.636C89.5349 560.008 89.1436 561.822 88.361 563.078C87.5924 564.333 86.4604 564.961 84.9651 564.961C83.4838 564.961 82.3518 564.333 81.5692 563.078C80.7866 561.822 80.3953 560.008 80.3953 557.636C80.3953 555.277 80.7866 553.469 81.5692 552.214C82.3518 550.959 83.4838 550.331 84.9651 550.331ZM81.8836 557.636C81.8836 559.319 82.0374 560.636 82.3448 561.588L86.9985 552.421C86.5093 551.773 85.8315 551.448 84.9651 551.448C84.0008 551.448 83.2462 551.959 82.7012 552.98C82.1561 553.987 81.8836 555.539 81.8836 557.636ZM84.9651 563.823C85.9433 563.823 86.705 563.319 87.25 562.312C87.795 561.291 88.0675 559.732 88.0675 557.636C88.0675 555.856 87.8928 554.476 87.5435 553.497L82.8898 562.747C83.3929 563.464 84.0847 563.823 84.9651 563.823Z" fill="url(#paint20_linear_527_1320)" fill-opacity="0.6"/>
<path d="M84.9651 573.98C86.4604 573.98 87.5924 574.608 88.361 575.863C89.1436 577.105 89.5349 578.912 89.5349 581.285C89.5349 583.658 89.1436 585.472 88.361 586.727C87.5924 587.982 86.4604 588.61 84.9651 588.61C83.4838 588.61 82.3518 587.982 81.5692 586.727C80.7866 585.472 80.3953 583.658 80.3953 581.285C80.3953 578.926 80.7866 577.119 81.5692 575.863C82.3518 574.608 83.4838 573.98 84.9651 573.98ZM81.8836 581.285C81.8836 582.968 82.0374 584.285 82.3448 585.237L86.9985 576.07C86.5093 575.422 85.8315 575.098 84.9651 575.098C84.0008 575.098 83.2462 575.608 82.7012 576.629C82.1561 577.636 81.8836 579.188 81.8836 581.285ZM84.9651 587.472C85.9433 587.472 86.705 586.968 87.25 585.961C87.795 584.941 88.0675 583.382 88.0675 581.285C88.0675 579.505 87.8928 578.126 87.5435 577.146L82.8898 586.396C83.3929 587.113 84.0847 587.472 84.9651 587.472Z" fill="url(#paint21_linear_527_1320)" fill-opacity="0.6"/>
<path d="M86.2228 610.956H89.3043V612.052H81.3176V610.956H84.8812V599.326L81.4853 601.333L80.8984 600.402L85.0909 597.836H86.2228V610.956Z" fill="url(#paint22_linear_527_1320)" fill-opacity="0.6"/>
<path d="M84.9651 621.279C86.4604 621.279 87.5924 621.906 88.361 623.162C89.1436 624.403 89.5349 626.21 89.5349 628.583C89.5349 630.956 89.1436 632.77 88.361 634.026C87.5924 635.281 86.4604 635.909 84.9651 635.909C83.4838 635.909 82.3518 635.281 81.5692 634.026C80.7866 632.77 80.3953 630.956 80.3953 628.583C80.3953 626.224 80.7866 624.417 81.5692 623.162C82.3518 621.906 83.4838 621.279 84.9651 621.279ZM81.8836 628.583C81.8836 630.266 82.0374 631.584 82.3448 632.536L86.9985 623.369C86.5093 622.72 85.8315 622.396 84.9651 622.396C84.0008 622.396 83.2462 622.906 82.7012 623.927C82.1561 624.934 81.8836 626.486 81.8836 628.583ZM84.9651 634.77C85.9433 634.77 86.705 634.267 87.25 633.26C87.795 632.239 88.0675 630.68 88.0675 628.583C88.0675 626.804 87.8928 625.424 87.5435 624.445L82.8898 633.694C83.3929 634.412 84.0847 634.77 84.9651 634.77Z" fill="url(#paint23_linear_527_1320)" fill-opacity="0.6"/>
<path d="M86.2228 658.254H89.3043V659.351H81.3176V658.254H84.8812V646.625L81.4853 648.632L80.8984 647.701L85.0909 645.135H86.2228V658.254Z" fill="url(#paint24_linear_527_1320)" fill-opacity="0.6"/>
<path d="M86.2228 681.903H89.3043V683H81.3176V681.903H84.8812V670.274L81.4853 672.281L80.8984 671.35L85.0909 668.784H86.2228V681.903Z" fill="url(#paint25_linear_527_1320)" fill-opacity="0.6"/>
<path d="M26.5698 408.435C28.0651 408.435 29.1971 409.063 29.9657 410.319C30.7483 411.56 31.1396 413.367 31.1396 415.74C31.1396 418.113 30.7483 419.927 29.9657 421.182C29.1971 422.438 28.0651 423.066 26.5698 423.066C25.0885 423.066 23.9565 422.438 23.1739 421.182C22.3913 419.927 22 418.113 22 415.74C22 413.381 22.3913 411.574 23.1739 410.319C23.9565 409.063 25.0885 408.435 26.5698 408.435ZM23.4883 415.74C23.4883 417.423 23.6421 418.741 23.9495 419.693L28.6032 410.525C28.114 409.877 27.4363 409.553 26.5698 409.553C25.6055 409.553 24.8509 410.063 24.3059 411.084C23.7608 412.091 23.4883 413.643 23.4883 415.74ZM26.5698 421.927C27.5481 421.927 28.3097 421.424 28.8547 420.417C29.3997 419.396 29.6722 417.837 29.6722 415.74C29.6722 413.961 29.4976 412.581 29.1482 411.602L24.4945 420.851C24.9976 421.569 25.6894 421.927 26.5698 421.927Z" fill="url(#paint26_linear_527_1320)" fill-opacity="0.6"/>
<path d="M26.5698 432.085C28.0651 432.085 29.1971 432.712 29.9657 433.968C30.7483 435.209 31.1396 437.017 31.1396 439.389C31.1396 441.762 30.7483 443.576 29.9657 444.832C29.1971 446.087 28.0651 446.715 26.5698 446.715C25.0885 446.715 23.9565 446.087 23.1739 444.832C22.3913 443.576 22 441.762 22 439.389C22 437.03 22.3913 435.223 23.1739 433.968C23.9565 432.712 25.0885 432.085 26.5698 432.085ZM23.4883 439.389C23.4883 441.072 23.6421 442.39 23.9495 443.342L28.6032 434.175C28.114 433.526 27.4363 433.202 26.5698 433.202C25.6055 433.202 24.8509 433.713 24.3059 434.733C23.7608 435.741 23.4883 437.292 23.4883 439.389ZM26.5698 445.577C27.5481 445.577 28.3097 445.073 28.8547 444.066C29.3997 443.045 29.6722 441.486 29.6722 439.389C29.6722 437.61 29.4976 436.23 29.1482 435.251L24.4945 444.501C24.9976 445.218 25.6894 445.577 26.5698 445.577Z" fill="url(#paint27_linear_527_1320)" fill-opacity="0.6"/>
<path d="M27.8276 469.06H30.909V470.157H22.9223V469.06H26.486V457.431L23.09 459.438L22.5031 458.507L26.6956 455.941H27.8276V469.06Z" fill="url(#paint28_linear_527_1320)" fill-opacity="0.6"/>
<path d="M26.5698 479.383C28.0651 479.383 29.1971 480.011 29.9657 481.266C30.7483 482.508 31.1396 484.315 31.1396 486.688C31.1396 489.061 30.7483 490.875 29.9657 492.13C29.1971 493.386 28.0651 494.013 26.5698 494.013C25.0885 494.013 23.9565 493.386 23.1739 492.13C22.3913 490.875 22 489.061 22 486.688C22 484.329 22.3913 482.522 23.1739 481.266C23.9565 480.011 25.0885 479.383 26.5698 479.383ZM23.4883 486.688C23.4883 488.371 23.6421 489.688 23.9495 490.64L28.6032 481.473C28.114 480.825 27.4363 480.501 26.5698 480.501C25.6055 480.501 24.8509 481.011 24.3059 482.032C23.7608 483.039 23.4883 484.591 23.4883 486.688ZM26.5698 492.875C27.5481 492.875 28.3097 492.372 28.8547 491.364C29.3997 490.344 29.6722 488.785 29.6722 486.688C29.6722 484.908 29.4976 483.529 29.1482 482.549L24.4945 491.799C24.9976 492.516 25.6894 492.875 26.5698 492.875Z" fill="url(#paint29_linear_527_1320)" fill-opacity="0.6"/>
<path d="M27.8276 516.359H30.909V517.456H22.9223V516.359H26.486V504.729L23.09 506.736L22.5031 505.805L26.6956 503.239H27.8276V516.359Z" fill="url(#paint30_linear_527_1320)" fill-opacity="0.6"/>
<path d="M27.8276 540.008H30.909V541.105H22.9223V540.008H26.486V528.378L23.09 530.386L22.5031 529.455L26.6956 526.889H27.8276V540.008Z" fill="url(#paint31_linear_527_1320)" fill-opacity="0.6"/>
<path d="M66.7577 374.463H69.8392V375.56H61.8525V374.463H65.4162V362.834L62.0202 364.841L61.4333 363.91L65.6258 361.344H66.7577V374.463Z" fill="url(#paint32_linear_527_1320)" fill-opacity="0.6"/>
<path d="M65.5 384.786C66.9953 384.786 68.1273 385.414 68.8959 386.669C69.6785 387.911 70.0698 389.718 70.0698 392.091C70.0698 394.464 69.6785 396.278 68.8959 397.533C68.1273 398.789 66.9953 399.416 65.5 399.416C64.0187 399.416 62.8867 398.789 62.1041 397.533C61.3215 396.278 60.9302 394.464 60.9302 392.091C60.9302 389.732 61.3215 387.925 62.1041 386.669C62.8867 385.414 64.0187 384.786 65.5 384.786ZM62.4185 392.091C62.4185 393.774 62.5723 395.091 62.8797 396.043L67.5334 386.876C67.0442 386.228 66.3664 385.904 65.5 385.904C64.5357 385.904 63.7811 386.414 63.2361 387.435C62.691 388.442 62.4185 389.994 62.4185 392.091ZM65.5 398.278C66.4782 398.278 67.2399 397.775 67.7849 396.768C68.3299 395.747 68.6024 394.188 68.6024 392.091C68.6024 390.311 68.4277 388.932 68.0784 387.952L63.4247 397.202C63.9278 397.919 64.6196 398.278 65.5 398.278Z" fill="url(#paint33_linear_527_1320)" fill-opacity="0.6"/>
<path d="M66.7577 421.762H69.8392V422.859H61.8525V421.762H65.4162V410.132L62.0202 412.14L61.4333 411.208L65.6258 408.642H66.7577V421.762Z" fill="url(#paint34_linear_527_1320)" fill-opacity="0.6"/>
<path d="M66.7577 445.411H69.8392V446.508H61.8525V445.411H65.4162V433.782L62.0202 435.789L61.4333 434.858L65.6258 432.292H66.7577V445.411Z" fill="url(#paint35_linear_527_1320)" fill-opacity="0.6"/>
<path d="M65.5 455.734C66.9953 455.734 68.1273 456.362 68.8959 457.617C69.6785 458.859 70.0698 460.666 70.0698 463.039C70.0698 465.411 69.6785 467.226 68.8959 468.481C68.1273 469.736 66.9953 470.364 65.5 470.364C64.0187 470.364 62.8867 469.736 62.1041 468.481C61.3215 467.226 60.9302 465.411 60.9302 463.039C60.9302 460.68 61.3215 458.872 62.1041 457.617C62.8867 456.362 64.0187 455.734 65.5 455.734ZM62.4185 463.039C62.4185 464.722 62.5723 466.039 62.8797 466.991L67.5334 457.824C67.0442 457.176 66.3664 456.851 65.5 456.851C64.5357 456.851 63.7811 457.362 63.2361 458.383C62.691 459.39 62.4185 460.942 62.4185 463.039ZM65.5 469.226C66.4782 469.226 67.2399 468.722 67.7849 467.715C68.3299 466.694 68.6024 465.136 68.6024 463.039C68.6024 461.259 68.4277 459.879 68.0784 458.9L63.4247 468.15C63.9278 468.867 64.6196 469.226 65.5 469.226Z" fill="url(#paint36_linear_527_1320)" fill-opacity="0.6"/>
<path d="M66.7577 492.71H69.8392V493.806H61.8525V492.71H65.4162V481.08L62.0202 483.087L61.4333 482.156L65.6258 479.59H66.7577V492.71Z" fill="url(#paint37_linear_527_1320)" fill-opacity="0.6"/>
<path d="M66.7577 516.359H69.8392V517.456H61.8525V516.359H65.4162V504.729L62.0202 506.736L61.4333 505.805L65.6258 503.239H66.7577V516.359Z" fill="url(#paint38_linear_527_1320)" fill-opacity="0.6"/>
<path d="M65.5 526.682C66.9953 526.682 68.1273 527.309 68.8959 528.565C69.6785 529.806 70.0698 531.614 70.0698 533.986C70.0698 536.359 69.6785 538.173 68.8959 539.429C68.1273 540.684 66.9953 541.312 65.5 541.312C64.0187 541.312 62.8867 540.684 62.1041 539.429C61.3215 538.173 60.9302 536.359 60.9302 533.986C60.9302 531.627 61.3215 529.82 62.1041 528.565C62.8867 527.309 64.0187 526.682 65.5 526.682ZM62.4185 533.986C62.4185 535.669 62.5723 536.987 62.8797 537.939L67.5334 528.772C67.0442 528.123 66.3664 527.799 65.5 527.799C64.5357 527.799 63.7811 528.31 63.2361 529.33C62.691 530.337 62.4185 531.889 62.4185 533.986ZM65.5 540.174C66.4782 540.174 67.2399 539.67 67.7849 538.663C68.3299 537.642 68.6024 536.083 68.6024 533.986C68.6024 532.207 68.4277 530.827 68.0784 529.848L63.4247 539.097C63.9278 539.815 64.6196 540.174 65.5 540.174Z" fill="url(#paint39_linear_527_1320)" fill-opacity="0.6"/>
<path d="M66.7577 563.657H69.8392V564.754H61.8525V563.657H65.4162V552.028L62.0202 554.035L61.4333 553.104L65.6258 550.538H66.7577V563.657Z" fill="url(#paint40_linear_527_1320)" fill-opacity="0.6"/>
<path d="M65.5 573.98C66.9953 573.98 68.1273 574.608 68.8959 575.863C69.6785 577.105 70.0698 578.912 70.0698 581.285C70.0698 583.658 69.6785 585.472 68.8959 586.727C68.1273 587.982 66.9953 588.61 65.5 588.61C64.0187 588.61 62.8867 587.982 62.1041 586.727C61.3215 585.472 60.9302 583.658 60.9302 581.285C60.9302 578.926 61.3215 577.119 62.1041 575.863C62.8867 574.608 64.0187 573.98 65.5 573.98ZM62.4185 581.285C62.4185 582.968 62.5723 584.285 62.8797 585.237L67.5334 576.07C67.0442 575.422 66.3664 575.098 65.5 575.098C64.5357 575.098 63.7811 575.608 63.2361 576.629C62.691 577.636 62.4185 579.188 62.4185 581.285ZM65.5 587.472C66.4782 587.472 67.2399 586.968 67.7849 585.961C68.3299 584.941 68.6024 583.382 68.6024 581.285C68.6024 579.505 68.4277 578.126 68.0784 577.146L63.4247 586.396C63.9278 587.113 64.6196 587.472 65.5 587.472Z" fill="url(#paint41_linear_527_1320)" fill-opacity="0.6"/>
<path d="M104.43 361.137C105.926 361.137 107.057 361.765 107.826 363.02C108.609 364.262 109 366.069 109 368.442C109 370.814 108.609 372.629 107.826 373.884C107.057 375.139 105.926 375.767 104.43 375.767C102.949 375.767 101.817 375.139 101.034 373.884C100.252 372.629 99.8604 370.814 99.8604 368.442C99.8604 366.083 100.252 364.275 101.034 363.02C101.817 361.765 102.949 361.137 104.43 361.137ZM101.349 368.442C101.349 370.125 101.502 371.442 101.81 372.394L106.464 363.227C105.974 362.579 105.297 362.254 104.43 362.254C103.466 362.254 102.711 362.765 102.166 363.786C101.621 364.793 101.349 366.345 101.349 368.442ZM104.43 374.629C105.408 374.629 106.17 374.125 106.715 373.118C107.26 372.097 107.533 370.539 107.533 368.442C107.533 366.662 107.358 365.283 107.009 364.303L102.355 373.553C102.858 374.27 103.55 374.629 104.43 374.629Z" fill="url(#paint42_linear_527_1320)" fill-opacity="0.6"/>
<path d="M105.688 398.113H108.769V399.209H100.783V398.113H104.346V386.483L100.95 388.49L100.363 387.559L104.556 384.993H105.688V398.113Z" fill="url(#paint43_linear_527_1320)" fill-opacity="0.6"/>
<path d="M105.688 421.762H108.769V422.859H100.783V421.762H104.346V410.132L100.95 412.14L100.363 411.208L104.556 408.642H105.688V421.762Z" fill="url(#paint44_linear_527_1320)" fill-opacity="0.6"/>
<path d="M104.43 432.085C105.926 432.085 107.057 432.712 107.826 433.968C108.609 435.209 109 437.017 109 439.389C109 441.762 108.609 443.576 107.826 444.832C107.057 446.087 105.926 446.715 104.43 446.715C102.949 446.715 101.817 446.087 101.034 444.832C100.252 443.576 99.8604 441.762 99.8604 439.389C99.8604 437.03 100.252 435.223 101.034 433.968C101.817 432.712 102.949 432.085 104.43 432.085ZM101.349 439.389C101.349 441.072 101.502 442.39 101.81 443.342L106.464 434.175C105.974 433.526 105.297 433.202 104.43 433.202C103.466 433.202 102.711 433.713 102.166 434.733C101.621 435.741 101.349 437.292 101.349 439.389ZM104.43 445.577C105.408 445.577 106.17 445.073 106.715 444.066C107.26 443.045 107.533 441.486 107.533 439.389C107.533 437.61 107.358 436.23 107.009 435.251L102.355 444.501C102.858 445.218 103.55 445.577 104.43 445.577Z" fill="url(#paint45_linear_527_1320)" fill-opacity="0.6"/>
<path d="M104.43 455.734C105.926 455.734 107.057 456.362 107.826 457.617C108.609 458.859 109 460.666 109 463.039C109 465.411 108.609 467.226 107.826 468.481C107.057 469.736 105.926 470.364 104.43 470.364C102.949 470.364 101.817 469.736 101.034 468.481C100.252 467.226 99.8604 465.411 99.8604 463.039C99.8604 460.68 100.252 458.872 101.034 457.617C101.817 456.362 102.949 455.734 104.43 455.734ZM101.349 463.039C101.349 464.722 101.502 466.039 101.81 466.991L106.464 457.824C105.974 457.176 105.297 456.851 104.43 456.851C103.466 456.851 102.711 457.362 102.166 458.383C101.621 459.39 101.349 460.942 101.349 463.039ZM104.43 469.226C105.408 469.226 106.17 468.722 106.715 467.715C107.26 466.694 107.533 465.136 107.533 463.039C107.533 461.259 107.358 459.879 107.009 458.9L102.355 468.15C102.858 468.867 103.55 469.226 104.43 469.226Z" fill="url(#paint46_linear_527_1320)" fill-opacity="0.6"/>
<g opacity="0.6">
<path d="M932.93 38.7739C934.356 38.7739 935.436 39.3763 936.17 40.581C936.916 41.7725 937.29 43.5068 937.29 45.7839C937.29 48.0609 936.916 49.8018 936.17 51.0066C935.436 52.2113 934.356 52.8137 932.93 52.8137C931.517 52.8137 930.437 52.2113 929.69 51.0066C928.943 49.8018 928.57 48.0609 928.57 45.7839C928.57 43.52 928.943 41.7858 929.69 40.581C930.437 39.3763 931.517 38.7739 932.93 38.7739ZM929.99 45.7839C929.99 47.399 930.137 48.6633 930.43 49.5768L934.87 40.7796C934.403 40.1574 933.756 39.8463 932.93 39.8463C932.01 39.8463 931.29 40.3361 930.77 41.3158C930.25 42.2822 929.99 43.7716 929.99 45.7839ZM932.93 51.7215C933.863 51.7215 934.59 51.2383 935.11 50.2718C935.63 49.2922 935.89 47.7962 935.89 45.7839C935.89 44.0761 935.723 42.7522 935.39 41.8122L930.95 50.6888C931.43 51.3773 932.09 51.7215 932.93 51.7215Z" fill="url(#paint47_linear_527_1320)"/>
<path d="M934.13 74.2577H937.07V75.3102H929.45V74.2577H932.85V63.0974L929.61 65.0236L929.05 64.13L933.05 61.6676H934.13V74.2577Z" fill="url(#paint48_linear_527_1320)"/>
<path d="M932.93 84.1641C934.356 84.1641 935.436 84.7665 936.17 85.9712C936.916 87.1627 937.29 88.897 937.29 91.174C937.29 93.4511 936.916 95.192 936.17 96.3967C935.436 97.6015 934.356 98.2038 932.93 98.2038C931.517 98.2038 930.437 97.6015 929.69 96.3967C928.943 95.192 928.57 93.4511 928.57 91.174C928.57 88.9102 928.943 87.1759 929.69 85.9712C930.437 84.7665 931.517 84.1641 932.93 84.1641ZM929.99 91.174C929.99 92.7892 930.137 94.0535 930.43 94.967L934.87 86.1698C934.403 85.5476 933.756 85.2364 932.93 85.2364C932.01 85.2364 931.29 85.7263 930.77 86.7059C930.25 87.6724 929.99 89.1617 929.99 91.174ZM932.93 97.1116C933.863 97.1116 934.59 96.6284 935.11 95.662C935.63 94.6823 935.89 93.1863 935.89 91.174C935.89 89.4662 935.723 88.1424 935.39 87.2024L930.95 96.079C931.43 96.7674 932.09 97.1116 932.93 97.1116Z" fill="url(#paint49_linear_527_1320)"/>
<path d="M934.13 119.648H937.07V120.7H929.45V119.648H932.85V108.488L929.61 110.414L929.05 109.52L933.05 107.058H934.13V119.648Z" fill="url(#paint50_linear_527_1320)"/>
<path d="M934.13 142.343H937.07V143.395H929.45V142.343H932.85V131.183L929.61 133.109L929.05 132.215L933.05 129.753H934.13V142.343Z" fill="url(#paint51_linear_527_1320)"/>
<path d="M932.93 152.249C934.356 152.249 935.436 152.852 936.17 154.056C936.916 155.248 937.29 156.982 937.29 159.259C937.29 161.536 936.916 163.277 936.17 164.482C935.436 165.687 934.356 166.289 932.93 166.289C931.517 166.289 930.437 165.687 929.69 164.482C928.943 163.277 928.57 161.536 928.57 159.259C928.57 156.995 928.943 155.261 929.69 154.056C930.437 152.852 931.517 152.249 932.93 152.249ZM929.99 159.259C929.99 160.874 930.137 162.139 930.43 163.052L934.87 154.255C934.403 153.633 933.756 153.322 932.93 153.322C932.01 153.322 931.29 153.812 930.77 154.791C930.25 155.758 929.99 157.247 929.99 159.259ZM932.93 165.197C933.863 165.197 934.59 164.714 935.11 163.747C935.63 162.768 935.89 161.272 935.89 159.259C935.89 157.551 935.723 156.228 935.39 155.288L930.95 164.164C931.43 164.853 932.09 165.197 932.93 165.197Z" fill="url(#paint52_linear_527_1320)"/>
<path d="M934.13 187.733H937.07V188.786H929.45V187.733H932.85V176.573L929.61 178.499L929.05 177.605L933.05 175.143H934.13V187.733Z" fill="url(#paint53_linear_527_1320)"/>
<path d="M932.93 197.64C934.356 197.64 935.436 198.242 936.17 199.447C936.916 200.638 937.29 202.372 937.29 204.649C937.29 206.927 936.916 208.667 936.17 209.872C935.436 211.077 934.356 211.679 932.93 211.679C931.517 211.679 930.437 211.077 929.69 209.872C928.943 208.667 928.57 206.927 928.57 204.649C928.57 202.386 928.943 200.651 929.69 199.447C930.437 198.242 931.517 197.64 932.93 197.64ZM929.99 204.649C929.99 206.265 930.137 207.529 930.43 208.442L934.87 199.645C934.403 199.023 933.756 198.712 932.93 198.712C932.01 198.712 931.29 199.202 930.77 200.181C930.25 201.148 929.99 202.637 929.99 204.649ZM932.93 210.587C933.863 210.587 934.59 210.104 935.11 209.137C935.63 208.158 935.89 206.662 935.89 204.649C935.89 202.942 935.723 201.618 935.39 200.678L930.95 209.554C931.43 210.243 932.09 210.587 932.93 210.587Z" fill="url(#paint54_linear_527_1320)"/>
<path d="M932.93 220.335C934.356 220.335 935.436 220.937 936.17 222.142C936.916 223.333 937.29 225.067 937.29 227.345C937.29 229.622 936.916 231.363 936.17 232.567C935.436 233.772 934.356 234.374 932.93 234.374C931.517 234.374 930.437 233.772 929.69 232.567C928.943 231.363 928.57 229.622 928.57 227.345C928.57 225.081 928.943 223.346 929.69 222.142C930.437 220.937 931.517 220.335 932.93 220.335ZM929.99 227.345C929.99 228.96 930.137 230.224 930.43 231.137L934.87 222.34C934.403 221.718 933.756 221.407 932.93 221.407C932.01 221.407 931.29 221.897 930.77 222.876C930.25 223.843 929.99 225.332 929.99 227.345ZM932.93 233.282C933.863 233.282 934.59 232.799 935.11 231.832C935.63 230.853 935.89 229.357 935.89 227.345C935.89 225.637 935.723 224.313 935.39 223.373L930.95 232.25C931.43 232.938 932.09 233.282 932.93 233.282Z" fill="url(#paint55_linear_527_1320)"/>
<path d="M934.13 255.818H937.07V256.871H929.45V255.818H932.85V244.658L929.61 246.584L929.05 245.691L933.05 243.228H934.13V255.818Z" fill="url(#paint56_linear_527_1320)"/>
<path d="M932.93 265.725C934.356 265.725 935.436 266.327 936.17 267.532C936.916 268.723 937.29 270.458 937.29 272.735C937.29 275.012 936.916 276.753 936.17 277.957C935.436 279.162 934.356 279.765 932.93 279.765C931.517 279.765 930.437 279.162 929.69 277.957C928.943 276.753 928.57 275.012 928.57 272.735C928.57 270.471 928.943 268.737 929.69 267.532C930.437 266.327 931.517 265.725 932.93 265.725ZM929.99 272.735C929.99 274.35 930.137 275.614 930.43 276.528L934.87 267.73C934.403 267.108 933.756 266.797 932.93 266.797C932.01 266.797 931.29 267.287 930.77 268.267C930.25 269.233 929.99 270.722 929.99 272.735ZM932.93 278.672C933.863 278.672 934.59 278.189 935.11 277.223C935.63 276.243 935.89 274.747 935.89 272.735C935.89 271.027 935.723 269.703 935.39 268.763L930.95 277.64C931.43 278.328 932.09 278.672 932.93 278.672Z" fill="url(#paint57_linear_527_1320)"/>
<path d="M934.13 301.209H937.07V302.261H929.45V301.209H932.85V290.048L929.61 291.974L929.05 291.081L933.05 288.618H934.13V301.209Z" fill="url(#paint58_linear_527_1320)"/>
<path d="M934.13 323.904H937.07V324.956H929.45V323.904H932.85V312.743L929.61 314.67L929.05 313.776L933.05 311.314H934.13V323.904Z" fill="url(#paint59_linear_527_1320)"/>
<path d="M970.07 84.1641C971.497 84.1641 972.577 84.7665 973.31 85.9712C974.057 87.1627 974.43 88.897 974.43 91.174C974.43 93.4511 974.057 95.192 973.31 96.3967C972.577 97.6015 971.497 98.2038 970.07 98.2038C968.657 98.2038 967.577 97.6015 966.83 96.3967C966.084 95.192 965.71 93.4511 965.71 91.174C965.71 88.9102 966.084 87.1759 966.83 85.9712C967.577 84.7665 968.657 84.1641 970.07 84.1641ZM967.13 91.174C967.13 92.7892 967.277 94.0535 967.57 94.967L972.01 86.1698C971.543 85.5476 970.897 85.2364 970.07 85.2364C969.15 85.2364 968.43 85.7263 967.91 86.7059C967.39 87.6724 967.13 89.1617 967.13 91.174ZM970.07 97.1116C971.003 97.1116 971.73 96.6284 972.25 95.662C972.77 94.6823 973.03 93.1863 973.03 91.174C973.03 89.4662 972.863 88.1424 972.53 87.2024L968.09 96.079C968.57 96.7674 969.23 97.1116 970.07 97.1116Z" fill="url(#paint60_linear_527_1320)"/>
<path d="M971.27 119.648H974.21V120.7H966.59V119.648H969.99V108.488L966.75 110.414L966.19 109.52L970.19 107.058H971.27V119.648Z" fill="url(#paint61_linear_527_1320)"/>
<path d="M970.07 129.554C971.497 129.554 972.577 130.157 973.31 131.361C974.057 132.553 974.43 134.287 974.43 136.564C974.43 138.841 974.057 140.582 973.31 141.787C972.577 142.992 971.497 143.594 970.07 143.594C968.657 143.594 967.577 142.992 966.83 141.787C966.084 140.582 965.71 138.841 965.71 136.564C965.71 134.3 966.084 132.566 966.83 131.361C967.577 130.157 968.657 129.554 970.07 129.554ZM967.13 136.564C967.13 138.179 967.277 139.444 967.57 140.357L972.01 131.56C971.543 130.938 970.897 130.627 970.07 130.627C969.15 130.627 968.43 131.116 967.91 132.096C967.39 133.063 967.13 134.552 967.13 136.564ZM970.07 142.502C971.003 142.502 971.73 142.019 972.25 141.052C972.77 140.072 973.03 138.577 973.03 136.564C973.03 134.856 972.863 133.533 972.53 132.593L968.09 141.469C968.57 142.158 969.23 142.502 970.07 142.502Z" fill="url(#paint62_linear_527_1320)"/>
<path d="M970.07 152.249C971.497 152.249 972.577 152.852 973.31 154.056C974.057 155.248 974.43 156.982 974.43 159.259C974.43 161.536 974.057 163.277 973.31 164.482C972.577 165.687 971.497 166.289 970.07 166.289C968.657 166.289 967.577 165.687 966.83 164.482C966.084 163.277 965.71 161.536 965.71 159.259C965.71 156.995 966.084 155.261 966.83 154.056C967.577 152.852 968.657 152.249 970.07 152.249ZM967.13 159.259C967.13 160.874 967.277 162.139 967.57 163.052L972.01 154.255C971.543 153.633 970.897 153.322 970.07 153.322C969.15 153.322 968.43 153.812 967.91 154.791C967.39 155.758 967.13 157.247 967.13 159.259ZM970.07 165.197C971.003 165.197 971.73 164.714 972.25 163.747C972.77 162.768 973.03 161.272 973.03 159.259C973.03 157.551 972.863 156.228 972.53 155.288L968.09 164.164C968.57 164.853 969.23 165.197 970.07 165.197Z" fill="url(#paint63_linear_527_1320)"/>
<path d="M971.27 187.733H974.21V188.786H966.59V187.733H969.99V176.573L966.75 178.499L966.19 177.605L970.19 175.143H971.27V187.733Z" fill="url(#paint64_linear_527_1320)"/>
<path d="M970.07 197.64C971.497 197.64 972.577 198.242 973.31 199.447C974.057 200.638 974.43 202.372 974.43 204.649C974.43 206.927 974.057 208.667 973.31 209.872C972.577 211.077 971.497 211.679 970.07 211.679C968.657 211.679 967.577 211.077 966.83 209.872C966.084 208.667 965.71 206.927 965.71 204.649C965.71 202.386 966.084 200.651 966.83 199.447C967.577 198.242 968.657 197.64 970.07 197.64ZM967.13 204.649C967.13 206.265 967.277 207.529 967.57 208.442L972.01 199.645C971.543 199.023 970.897 198.712 970.07 198.712C969.15 198.712 968.43 199.202 967.91 200.181C967.39 201.148 967.13 202.637 967.13 204.649ZM970.07 210.587C971.003 210.587 971.73 210.104 972.25 209.137C972.77 208.158 973.03 206.662 973.03 204.649C973.03 202.942 972.863 201.618 972.53 200.678L968.09 209.554C968.57 210.243 969.23 210.587 970.07 210.587Z" fill="url(#paint65_linear_527_1320)"/>
<path d="M971.27 233.123H974.21V234.176H966.59V233.123H969.99V221.963L966.75 223.889L966.19 222.996L970.19 220.533H971.27V233.123Z" fill="url(#paint66_linear_527_1320)"/>
<path d="M970.07 243.03C971.497 243.03 972.577 243.632 973.31 244.837C974.057 246.028 974.43 247.763 974.43 250.04C974.43 252.317 974.057 254.058 973.31 255.262C972.577 256.467 971.497 257.069 970.07 257.069C968.657 257.069 967.577 256.467 966.83 255.262C966.084 254.058 965.71 252.317 965.71 250.04C965.71 247.776 966.084 246.042 966.83 244.837C967.577 243.632 968.657 243.03 970.07 243.03ZM967.13 250.04C967.13 251.655 967.277 252.919 967.57 253.833L972.01 245.035C971.543 244.413 970.897 244.102 970.07 244.102C969.15 244.102 968.43 244.592 967.91 245.572C967.39 246.538 967.13 248.027 967.13 250.04ZM970.07 255.977C971.003 255.977 971.73 255.494 972.25 254.528C972.77 253.548 973.03 252.052 973.03 250.04C973.03 248.332 972.863 247.008 972.53 246.068L968.09 254.945C968.57 255.633 969.23 255.977 970.07 255.977Z" fill="url(#paint67_linear_527_1320)"/>
<path d="M970.07 265.725C971.497 265.725 972.577 266.327 973.31 267.532C974.057 268.723 974.43 270.458 974.43 272.735C974.43 275.012 974.057 276.753 973.31 277.957C972.577 279.162 971.497 279.765 970.07 279.765C968.657 279.765 967.577 279.162 966.83 277.957C966.084 276.753 965.71 275.012 965.71 272.735C965.71 270.471 966.084 268.737 966.83 267.532C967.577 266.327 968.657 265.725 970.07 265.725ZM967.13 272.735C967.13 274.35 967.277 275.614 967.57 276.528L972.01 267.73C971.543 267.108 970.897 266.797 970.07 266.797C969.15 266.797 968.43 267.287 967.91 268.267C967.39 269.233 967.13 270.722 967.13 272.735ZM970.07 278.672C971.003 278.672 971.73 278.189 972.25 277.223C972.77 276.243 973.03 274.747 973.03 272.735C973.03 271.027 972.863 269.703 972.53 268.763L968.09 277.64C968.57 278.328 969.23 278.672 970.07 278.672Z" fill="url(#paint68_linear_527_1320)"/>
<path d="M971.27 301.209H974.21V302.261H966.59V301.209H969.99V290.048L966.75 291.974L966.19 291.081L970.19 288.618H971.27V301.209Z" fill="url(#paint69_linear_527_1320)"/>
<path d="M970.07 311.115C971.497 311.115 972.577 311.717 973.31 312.922C974.057 314.114 974.43 315.848 974.43 318.125C974.43 320.402 974.057 322.143 973.31 323.348C972.577 324.552 971.497 325.155 970.07 325.155C968.657 325.155 967.577 324.552 966.83 323.348C966.084 322.143 965.71 320.402 965.71 318.125C965.71 315.861 966.084 314.127 966.83 312.922C967.577 311.717 968.657 311.115 970.07 311.115ZM967.13 318.125C967.13 319.74 967.277 321.004 967.57 321.918L972.01 313.121C971.543 312.498 970.897 312.187 970.07 312.187C969.15 312.187 968.43 312.677 967.91 313.657C967.39 314.623 967.13 316.113 967.13 318.125ZM970.07 324.062C971.003 324.062 971.73 323.579 972.25 322.613C972.77 321.633 973.03 320.137 973.03 318.125C973.03 316.417 972.863 315.093 972.53 314.153L968.09 323.03C968.57 323.718 969.23 324.062 970.07 324.062Z" fill="url(#paint70_linear_527_1320)"/>
<path d="M971.27 346.599H974.21V347.651H966.59V346.599H969.99V335.438L966.75 337.365L966.19 336.471L970.19 334.009H971.27V346.599Z" fill="url(#paint71_linear_527_1320)"/>
<path d="M971.27 369.294H974.21V370.346H966.59V369.294H969.99V358.133L966.75 360.06L966.19 359.166L970.19 356.704H971.27V369.294Z" fill="url(#paint72_linear_527_1320)"/>
<path d="M914.36 106.859C915.786 106.859 916.866 107.462 917.599 108.666C918.346 109.858 918.719 111.592 918.719 113.869C918.719 116.146 918.346 117.887 917.599 119.092C916.866 120.297 915.786 120.899 914.36 120.899C912.946 120.899 911.867 120.297 911.12 119.092C910.373 117.887 910 116.146 910 113.869C910 111.605 910.373 109.871 911.12 108.666C911.867 107.462 912.946 106.859 914.36 106.859ZM911.42 113.869C911.42 115.484 911.567 116.749 911.86 117.662L916.3 108.865C915.833 108.243 915.186 107.932 914.36 107.932C913.44 107.932 912.72 108.421 912.2 109.401C911.68 110.367 911.42 111.857 911.42 113.869ZM914.36 119.807C915.293 119.807 916.02 119.324 916.54 118.357C917.06 117.377 917.319 115.881 917.319 113.869C917.319 112.161 917.153 110.837 916.82 109.897L912.38 118.774C912.86 119.463 913.52 119.807 914.36 119.807Z" fill="url(#paint73_linear_527_1320)"/>
<path d="M914.36 129.554C915.786 129.554 916.866 130.157 917.599 131.361C918.346 132.553 918.719 134.287 918.719 136.564C918.719 138.841 918.346 140.582 917.599 141.787C916.866 142.992 915.786 143.594 914.36 143.594C912.946 143.594 911.867 142.992 911.12 141.787C910.373 140.582 910 138.841 910 136.564C910 134.3 910.373 132.566 911.12 131.361C911.867 130.157 912.946 129.554 914.36 129.554ZM911.42 136.564C911.42 138.179 911.567 139.444 911.86 140.357L916.3 131.56C915.833 130.938 915.186 130.627 914.36 130.627C913.44 130.627 912.72 131.116 912.2 132.096C911.68 133.063 911.42 134.552 911.42 136.564ZM914.36 142.502C915.293 142.502 916.02 142.019 916.54 141.052C917.06 140.072 917.319 138.577 917.319 136.564C917.319 134.856 917.153 133.533 916.82 132.593L912.38 141.469C912.86 142.158 913.52 142.502 914.36 142.502Z" fill="url(#paint74_linear_527_1320)"/>
<path d="M915.56 165.038H918.499V166.091H910.88V165.038H914.28V153.878L911.04 155.804L910.48 154.91L914.48 152.448H915.56V165.038Z" fill="url(#paint75_linear_527_1320)"/>
<path d="M914.36 174.944C915.786 174.944 916.866 175.547 917.599 176.752C918.346 177.943 918.719 179.677 918.719 181.954C918.719 184.231 918.346 185.972 917.599 187.177C916.866 188.382 915.786 188.984 914.36 188.984C912.946 188.984 911.867 188.382 911.12 187.177C910.373 185.972 910 184.231 910 181.954C910 179.691 910.373 177.956 911.12 176.752C911.867 175.547 912.946 174.944 914.36 174.944ZM911.42 181.954C911.42 183.57 911.567 184.834 911.86 185.747L916.3 176.95C915.833 176.328 915.186 176.017 914.36 176.017C913.44 176.017 912.72 176.507 912.2 177.486C911.68 178.453 911.42 179.942 911.42 181.954ZM914.36 187.892C915.293 187.892 916.02 187.409 916.54 186.442C917.06 185.463 917.319 183.967 917.319 181.954C917.319 180.247 917.153 178.923 916.82 177.983L912.38 186.859C912.86 187.548 913.52 187.892 914.36 187.892Z" fill="url(#paint76_linear_527_1320)"/>
<path d="M915.56 210.428H918.499V211.481H910.88V210.428H914.28V199.268L911.04 201.194L910.48 200.301L914.48 197.838H915.56V210.428Z" fill="url(#paint77_linear_527_1320)"/>
<path d="M915.56 233.123H918.499V234.176H910.88V233.123H914.28V221.963L911.04 223.889L910.48 222.996L914.48 220.533H915.56V233.123Z" fill="url(#paint78_linear_527_1320)"/>
<path d="M952.7 74.2577H955.64V75.3102H948.02V74.2577H951.42V63.0974L948.18 65.0236L947.62 64.13L951.62 61.6676H952.7V74.2577Z" fill="url(#paint79_linear_527_1320)"/>
<path d="M951.5 84.1641C952.927 84.1641 954.006 84.7665 954.74 85.9712C955.486 87.1627 955.86 88.897 955.86 91.174C955.86 93.4511 955.486 95.192 954.74 96.3967C954.006 97.6015 952.927 98.2038 951.5 98.2038C950.087 98.2038 949.007 97.6015 948.26 96.3967C947.514 95.192 947.14 93.4511 947.14 91.174C947.14 88.9102 947.514 87.1759 948.26 85.9712C949.007 84.7665 950.087 84.1641 951.5 84.1641ZM948.56 91.174C948.56 92.7892 948.707 94.0535 949 94.967L953.44 86.1698C952.973 85.5476 952.327 85.2364 951.5 85.2364C950.58 85.2364 949.86 85.7263 949.34 86.7059C948.82 87.6724 948.56 89.1617 948.56 91.174ZM951.5 97.1116C952.433 97.1116 953.16 96.6284 953.68 95.662C954.2 94.6823 954.46 93.1863 954.46 91.174C954.46 89.4662 954.293 88.1424 953.96 87.2024L949.52 96.079C950 96.7674 950.66 97.1116 951.5 97.1116Z" fill="url(#paint80_linear_527_1320)"/>
<path d="M952.7 119.648H955.64V120.7H948.02V119.648H951.42V108.488L948.18 110.414L947.62 109.52L951.62 107.058H952.7V119.648Z" fill="url(#paint81_linear_527_1320)"/>
<path d="M952.7 142.343H955.64V143.395H948.02V142.343H951.42V131.183L948.18 133.109L947.62 132.215L951.62 129.753H952.7V142.343Z" fill="url(#paint82_linear_527_1320)"/>
<path d="M951.5 152.249C952.927 152.249 954.006 152.852 954.74 154.056C955.486 155.248 955.86 156.982 955.86 159.259C955.86 161.536 955.486 163.277 954.74 164.482C954.006 165.687 952.927 166.289 951.5 166.289C950.087 166.289 949.007 165.687 948.26 164.482C947.514 163.277 947.14 161.536 947.14 159.259C947.14 156.995 947.514 155.261 948.26 154.056C949.007 152.852 950.087 152.249 951.5 152.249ZM948.56 159.259C948.56 160.874 948.707 162.139 949 163.052L953.44 154.255C952.973 153.633 952.327 153.322 951.5 153.322C950.58 153.322 949.86 153.812 949.34 154.791C948.82 155.758 948.56 157.247 948.56 159.259ZM951.5 165.197C952.433 165.197 953.16 164.714 953.68 163.747C954.2 162.768 954.46 161.272 954.46 159.259C954.46 157.551 954.293 156.228 953.96 155.288L949.52 164.164C950 164.853 950.66 165.197 951.5 165.197Z" fill="url(#paint83_linear_527_1320)"/>
<path d="M952.7 187.733H955.64V188.786H948.02V187.733H951.42V176.573L948.18 178.499L947.62 177.605L951.62 175.143H952.7V187.733Z" fill="url(#paint84_linear_527_1320)"/>
<path d="M952.7 210.428H955.64V211.481H948.02V210.428H951.42V199.268L948.18 201.194L947.62 200.301L951.62 197.838H952.7V210.428Z" fill="url(#paint85_linear_527_1320)"/>
<path d="M951.5 220.335C952.927 220.335 954.006 220.937 954.74 222.142C955.486 223.333 955.86 225.067 955.86 227.345C955.86 229.622 955.486 231.363 954.74 232.567C954.006 233.772 952.927 234.374 951.5 234.374C950.087 234.374 949.007 233.772 948.26 232.567C947.514 231.363 947.14 229.622 947.14 227.345C947.14 225.081 947.514 223.346 948.26 222.142C949.007 220.937 950.087 220.335 951.5 220.335ZM948.56 227.345C948.56 228.96 948.707 230.224 949 231.137L953.44 222.34C952.973 221.718 952.327 221.407 951.5 221.407C950.58 221.407 949.86 221.897 949.34 222.876C948.82 223.843 948.56 225.332 948.56 227.345ZM951.5 233.282C952.433 233.282 953.16 232.799 953.68 231.832C954.2 230.853 954.46 229.357 954.46 227.345C954.46 225.637 954.293 224.313 953.96 223.373L949.52 232.25C950 232.938 950.66 233.282 951.5 233.282Z" fill="url(#paint86_linear_527_1320)"/>
<path d="M952.7 255.818H955.64V256.871H948.02V255.818H951.42V244.658L948.18 246.584L947.62 245.691L951.62 243.228H952.7V255.818Z" fill="url(#paint87_linear_527_1320)"/>
<path d="M951.5 265.725C952.927 265.725 954.006 266.327 954.74 267.532C955.486 268.723 955.86 270.458 955.86 272.735C955.86 275.012 955.486 276.753 954.74 277.957C954.006 279.162 952.927 279.765 951.5 279.765C950.087 279.765 949.007 279.162 948.26 277.957C947.514 276.753 947.14 275.012 947.14 272.735C947.14 270.471 947.514 268.737 948.26 267.532C949.007 266.327 950.087 265.725 951.5 265.725ZM948.56 272.735C948.56 274.35 948.707 275.614 949 276.528L953.44 267.73C952.973 267.108 952.327 266.797 951.5 266.797C950.58 266.797 949.86 267.287 949.34 268.267C948.82 269.233 948.56 270.722 948.56 272.735ZM951.5 278.672C952.433 278.672 953.16 278.189 953.68 277.223C954.2 276.243 954.46 274.747 954.46 272.735C954.46 271.027 954.293 269.703 953.96 268.763L949.52 277.64C950 278.328 950.66 278.672 951.5 278.672Z" fill="url(#paint88_linear_527_1320)"/>
<path d="M988.64 61.469C990.067 61.469 991.147 62.0714 991.88 63.2761C992.627 64.4676 993 66.2019 993 68.479C993 70.756 992.627 72.4969 991.88 73.7017C991.147 74.9064 990.067 75.5088 988.64 75.5088C987.227 75.5088 986.147 74.9064 985.401 73.7017C984.654 72.4969 984.281 70.756 984.281 68.479C984.281 66.2151 984.654 64.4808 985.401 63.2761C986.147 62.0714 987.227 61.469 988.64 61.469ZM985.7 68.479C985.7 70.0941 985.847 71.3584 986.14 72.2719L990.58 63.4747C990.114 62.8525 989.467 62.5414 988.64 62.5414C987.72 62.5414 987 63.0312 986.48 64.0109C985.96 64.9773 985.7 66.4667 985.7 68.479ZM988.64 74.4166C989.574 74.4166 990.3 73.9333 990.82 72.9669C991.34 71.9872 991.6 70.4913 991.6 68.479C991.6 66.7711 991.433 65.4473 991.1 64.5073L986.66 73.3839C987.14 74.0723 987.8 74.4166 988.64 74.4166Z" fill="url(#paint89_linear_527_1320)"/>
<path d="M989.84 96.9528H992.78V98.0053H985.161V96.9528H988.56V85.7925L985.321 87.7187L984.761 86.8251L988.76 84.3627H989.84V96.9528Z" fill="url(#paint90_linear_527_1320)"/>
<path d="M989.84 119.648H992.78V120.7H985.161V119.648H988.56V108.488L985.321 110.414L984.761 109.52L988.76 107.058H989.84V119.648Z" fill="url(#paint91_linear_527_1320)"/>
<path d="M988.64 129.554C990.067 129.554 991.147 130.157 991.88 131.361C992.627 132.553 993 134.287 993 136.564C993 138.841 992.627 140.582 991.88 141.787C991.147 142.992 990.067 143.594 988.64 143.594C987.227 143.594 986.147 142.992 985.401 141.787C984.654 140.582 984.281 138.841 984.281 136.564C984.281 134.3 984.654 132.566 985.401 131.361C986.147 130.157 987.227 129.554 988.64 129.554ZM985.7 136.564C985.7 138.179 985.847 139.444 986.14 140.357L990.58 131.56C990.114 130.938 989.467 130.627 988.64 130.627C987.72 130.627 987 131.116 986.48 132.096C985.96 133.063 985.7 134.552 985.7 136.564ZM988.64 142.502C989.574 142.502 990.3 142.019 990.82 141.052C991.34 140.072 991.6 138.577 991.6 136.564C991.6 134.856 991.433 133.533 991.1 132.593L986.66 141.469C987.14 142.158 987.8 142.502 988.64 142.502Z" fill="url(#paint92_linear_527_1320)"/>
<path d="M988.64 152.249C990.067 152.249 991.147 152.852 991.88 154.056C992.627 155.248 993 156.982 993 159.259C993 161.536 992.627 163.277 991.88 164.482C991.147 165.687 990.067 166.289 988.64 166.289C987.227 166.289 986.147 165.687 985.401 164.482C984.654 163.277 984.281 161.536 984.281 159.259C984.281 156.995 984.654 155.261 985.401 154.056C986.147 152.852 987.227 152.249 988.64 152.249ZM985.7 159.259C985.7 160.874 985.847 162.139 986.14 163.052L990.58 154.255C990.114 153.633 989.467 153.322 988.64 153.322C987.72 153.322 987 153.812 986.48 154.791C985.96 155.758 985.7 157.247 985.7 159.259ZM988.64 165.197C989.574 165.197 990.3 164.714 990.82 163.747C991.34 162.768 991.6 161.272 991.6 159.259C991.6 157.551 991.433 156.228 991.1 155.288L986.66 164.164C987.14 164.853 987.8 165.197 988.64 165.197Z" fill="url(#paint93_linear_527_1320)"/>
</g>
</g>
<defs>
<filter id="filter0_f_527_1320" x="-545.19" y="-646.19" width="2141.38" height="1497.38" filterUnits="userSpaceOnUse" color-interpolation-filters="sRGB">
<feFlood flood-opacity="0" result="BackgroundImageFix"/>
<feBlend mode="normal" in="SourceGraphic" in2="BackgroundImageFix" result="shape"/>
<feGaussianBlur stdDeviation="200.095" result="effect1_foregroundBlur_527_1320"/>
</filter>
<linearGradient id="paint0_linear_527_1320" x1="65.5" y1="337.488" x2="65.5" y2="647.534" gradientUnits="userSpaceOnUse">
<stop stop-color="white"/>
<stop offset="1" stop-color="#F7DD43" stop-opacity="0"/>
</linearGradient>
<linearGradient id="paint1_linear_527_1320" x1="65.5" y1="337.488" x2="65.5" y2="647.534" gradientUnits="userSpaceOnUse">
<stop stop-color="white"/>
<stop offset="1" stop-color="#F7DD43" stop-opacity="0"/>
</linearGradient>
<linearGradient id="paint2_linear_527_1320" x1="65.5" y1="337.488" x2="65.5" y2="647.534" gradientUnits="userSpaceOnUse">
<stop stop-color="white"/>
<stop offset="1" stop-color="#F7DD43" stop-opacity="0"/>
</linearGradient>
<linearGradient id="paint3_linear_527_1320" x1="65.5" y1="337.488" x2="65.5" y2="647.534" gradientUnits="userSpaceOnUse">
<stop stop-color="white"/>
<stop offset="1" stop-color="#F7DD43" stop-opacity="0"/>
</linearGradient>
<linearGradient id="paint4_linear_527_1320" x1="65.5" y1="337.488" x2="65.5" y2="647.534" gradientUnits="userSpaceOnUse">
<stop stop-color="white"/>
<stop offset="1" stop-color="#F7DD43" stop-opacity="0"/>
</linearGradient>
<linearGradient id="paint5_linear_527_1320" x1="65.5" y1="337.488" x2="65.5" y2="647.534" gradientUnits="userSpaceOnUse">
<stop stop-color="white"/>
<stop offset="1" stop-color="#F7DD43" stop-opacity="0"/>
</linearGradient>
<linearGradient id="paint6_linear_527_1320" x1="65.5" y1="337.488" x2="65.5" y2="647.534" gradientUnits="userSpaceOnUse">
<stop stop-color="white"/>
<stop offset="1" stop-color="#F7DD43" stop-opacity="0"/>
</linearGradient>
<linearGradient id="paint7_linear_527_1320" x1="65.5" y1="337.488" x2="65.5" y2="647.534" gradientUnits="userSpaceOnUse">
<stop stop-color="white"/>
<stop offset="1" stop-color="#F7DD43" stop-opacity="0"/>
</linearGradient>
<linearGradient id="paint8_linear_527_1320" x1="65.5" y1="337.488" x2="65.5" y2="647.534" gradientUnits="userSpaceOnUse">
<stop stop-color="white"/>
<stop offset="1" stop-color="#F7DD43" stop-opacity="0"/>
</linearGradient>
<linearGradient id="paint9_linear_527_1320" x1="65.5" y1="337.488" x2="65.5" y2="647.534" gradientUnits="userSpaceOnUse">
<stop stop-color="white"/>
<stop offset="1" stop-color="#F7DD43" stop-opacity="0"/>
</linearGradient>
<linearGradient id="paint10_linear_527_1320" x1="65.5" y1="337.488" x2="65.5" y2="647.534" gradientUnits="userSpaceOnUse">
<stop stop-color="white"/>
<stop offset="1" stop-color="#F7DD43" stop-opacity="0"/>
</linearGradient>
<linearGradient id="paint11_linear_527_1320" x1="65.5" y1="337.488" x2="65.5" y2="647.534" gradientUnits="userSpaceOnUse">
<stop stop-color="white"/>
<stop offset="1" stop-color="#F7DD43" stop-opacity="0"/>
</linearGradient>
<linearGradient id="paint12_linear_527_1320" x1="65.5" y1="337.488" x2="65.5" y2="647.534" gradientUnits="userSpaceOnUse">
<stop stop-color="white"/>
<stop offset="1" stop-color="#F7DD43" stop-opacity="0"/>
</linearGradient>
<linearGradient id="paint13_linear_527_1320" x1="65.5" y1="337.488" x2="65.5" y2="647.534" gradientUnits="userSpaceOnUse">
<stop stop-color="white"/>
<stop offset="1" stop-color="#F7DD43" stop-opacity="0"/>
</linearGradient>
<linearGradient id="paint14_linear_527_1320" x1="65.5" y1="337.488" x2="65.5" y2="647.534" gradientUnits="userSpaceOnUse">
<stop stop-color="white"/>
<stop offset="1" stop-color="#F7DD43" stop-opacity="0"/>
</linearGradient>
<linearGradient id="paint15_linear_527_1320" x1="65.5" y1="337.488" x2="65.5" y2="647.534" gradientUnits="userSpaceOnUse">
<stop stop-color="white"/>
<stop offset="1" stop-color="#F7DD43" stop-opacity="0"/>
</linearGradient>
<linearGradient id="paint16_linear_527_1320" x1="65.5" y1="337.488" x2="65.5" y2="647.534" gradientUnits="userSpaceOnUse">
<stop stop-color="white"/>
<stop offset="1" stop-color="#F7DD43" stop-opacity="0"/>
</linearGradient>
<linearGradient id="paint17_linear_527_1320" x1="65.5" y1="337.488" x2="65.5" y2="647.534" gradientUnits="userSpaceOnUse">
<stop stop-color="white"/>
<stop offset="1" stop-color="#F7DD43" stop-opacity="0"/>
</linearGradient>
<linearGradient id="paint18_linear_527_1320" x1="65.5" y1="337.488" x2="65.5" y2="647.534" gradientUnits="userSpaceOnUse">
<stop stop-color="white"/>
<stop offset="1" stop-color="#F7DD43" stop-opacity="0"/>
</linearGradient>
<linearGradient id="paint19_linear_527_1320" x1="65.5" y1="337.488" x2="65.5" y2="647.534" gradientUnits="userSpaceOnUse">
<stop stop-color="white"/>
<stop offset="1" stop-color="#F7DD43" stop-opacity="0"/>
</linearGradient>
<linearGradient id="paint20_linear_527_1320" x1="65.5" y1="337.488" x2="65.5" y2="647.534" gradientUnits="userSpaceOnUse">
<stop stop-color="white"/>
<stop offset="1" stop-color="#F7DD43" stop-opacity="0"/>
</linearGradient>
<linearGradient id="paint21_linear_527_1320" x1="65.5" y1="337.488" x2="65.5" y2="647.534" gradientUnits="userSpaceOnUse">
<stop stop-color="white"/>
<stop offset="1" stop-color="#F7DD43" stop-opacity="0"/>
</linearGradient>
<linearGradient id="paint22_linear_527_1320" x1="65.5" y1="337.488" x2="65.5" y2="647.534" gradientUnits="userSpaceOnUse">
<stop stop-color="white"/>
<stop offset="1" stop-color="#F7DD43" stop-opacity="0"/>
</linearGradient>
<linearGradient id="paint23_linear_527_1320" x1="65.5" y1="337.488" x2="65.5" y2="647.534" gradientUnits="userSpaceOnUse">
<stop stop-color="white"/>
<stop offset="1" stop-color="#F7DD43" stop-opacity="0"/>
</linearGradient>
<linearGradient id="paint24_linear_527_1320" x1="65.5" y1="337.488" x2="65.5" y2="647.534" gradientUnits="userSpaceOnUse">
<stop stop-color="white"/>
<stop offset="1" stop-color="#F7DD43" stop-opacity="0"/>
</linearGradient>
<linearGradient id="paint25_linear_527_1320" x1="65.5" y1="337.488" x2="65.5" y2="647.534" gradientUnits="userSpaceOnUse">
<stop stop-color="white"/>
<stop offset="1" stop-color="#F7DD43" stop-opacity="0"/>
</linearGradient>
<linearGradient id="paint26_linear_527_1320" x1="65.5" y1="337.488" x2="65.5" y2="647.534" gradientUnits="userSpaceOnUse">
<stop stop-color="white"/>
<stop offset="1" stop-color="#F7DD43" stop-opacity="0"/>
</linearGradient>
<linearGradient id="paint27_linear_527_1320" x1="65.5" y1="337.488" x2="65.5" y2="647.534" gradientUnits="userSpaceOnUse">
<stop stop-color="white"/>
<stop offset="1" stop-color="#F7DD43" stop-opacity="0"/>
</linearGradient>
<linearGradient id="paint28_linear_527_1320" x1="65.5" y1="337.488" x2="65.5" y2="647.534" gradientUnits="userSpaceOnUse">
<stop stop-color="white"/>
<stop offset="1" stop-color="#F7DD43" stop-opacity="0"/>
</linearGradient>
<linearGradient id="paint29_linear_527_1320" x1="65.5" y1="337.488" x2="65.5" y2="647.534" gradientUnits="userSpaceOnUse">
<stop stop-color="white"/>
<stop offset="1" stop-color="#F7DD43" stop-opacity="0"/>
</linearGradient>
<linearGradient id="paint30_linear_527_1320" x1="65.5" y1="337.488" x2="65.5" y2="647.534" gradientUnits="userSpaceOnUse">
<stop stop-color="white"/>
<stop offset="1" stop-color="#F7DD43" stop-opacity="0"/>
</linearGradient>
<linearGradient id="paint31_linear_527_1320" x1="65.5" y1="337.488" x2="65.5" y2="647.534" gradientUnits="userSpaceOnUse">
<stop stop-color="white"/>
<stop offset="1" stop-color="#F7DD43" stop-opacity="0"/>
</linearGradient>
<linearGradient id="paint32_linear_527_1320" x1="65.5" y1="337.488" x2="65.5" y2="647.534" gradientUnits="userSpaceOnUse">
<stop stop-color="white"/>
<stop offset="1" stop-color="#F7DD43" stop-opacity="0"/>
</linearGradient>
<linearGradient id="paint33_linear_527_1320" x1="65.5" y1="337.488" x2="65.5" y2="647.534" gradientUnits="userSpaceOnUse">
<stop stop-color="white"/>
<stop offset="1" stop-color="#F7DD43" stop-opacity="0"/>
</linearGradient>
<linearGradient id="paint34_linear_527_1320" x1="65.5" y1="337.488" x2="65.5" y2="647.534" gradientUnits="userSpaceOnUse">
<stop stop-color="white"/>
<stop offset="1" stop-color="#F7DD43" stop-opacity="0"/>
</linearGradient>
<linearGradient id="paint35_linear_527_1320" x1="65.5" y1="337.488" x2="65.5" y2="647.534" gradientUnits="userSpaceOnUse">
<stop stop-color="white"/>
<stop offset="1" stop-color="#F7DD43" stop-opacity="0"/>
</linearGradient>
<linearGradient id="paint36_linear_527_1320" x1="65.5" y1="337.488" x2="65.5" y2="647.534" gradientUnits="userSpaceOnUse">
<stop stop-color="white"/>
<stop offset="1" stop-color="#F7DD43" stop-opacity="0"/>
</linearGradient>
<linearGradient id="paint37_linear_527_1320" x1="65.5" y1="337.488" x2="65.5" y2="647.534" gradientUnits="userSpaceOnUse">
<stop stop-color="white"/>
<stop offset="1" stop-color="#F7DD43" stop-opacity="0"/>
</linearGradient>
<linearGradient id="paint38_linear_527_1320" x1="65.5" y1="337.488" x2="65.5" y2="647.534" gradientUnits="userSpaceOnUse">
<stop stop-color="white"/>
<stop offset="1" stop-color="#F7DD43" stop-opacity="0"/>
</linearGradient>
<linearGradient id="paint39_linear_527_1320" x1="65.5" y1="337.488" x2="65.5" y2="647.534" gradientUnits="userSpaceOnUse">
<stop stop-color="white"/>
<stop offset="1" stop-color="#F7DD43" stop-opacity="0"/>
</linearGradient>
<linearGradient id="paint40_linear_527_1320" x1="65.5" y1="337.488" x2="65.5" y2="647.534" gradientUnits="userSpaceOnUse">
<stop stop-color="white"/>
<stop offset="1" stop-color="#F7DD43" stop-opacity="0"/>
</linearGradient>
<linearGradient id="paint41_linear_527_1320" x1="65.5" y1="337.488" x2="65.5" y2="647.534" gradientUnits="userSpaceOnUse">
<stop stop-color="white"/>
<stop offset="1" stop-color="#F7DD43" stop-opacity="0"/>
</linearGradient>
<linearGradient id="paint42_linear_527_1320" x1="65.5" y1="337.488" x2="65.5" y2="647.534" gradientUnits="userSpaceOnUse">
<stop stop-color="white"/>
<stop offset="1" stop-color="#F7DD43" stop-opacity="0"/>
</linearGradient>
<linearGradient id="paint43_linear_527_1320" x1="65.5" y1="337.488" x2="65.5" y2="647.534" gradientUnits="userSpaceOnUse">
<stop stop-color="white"/>
<stop offset="1" stop-color="#F7DD43" stop-opacity="0"/>
</linearGradient>
<linearGradient id="paint44_linear_527_1320" x1="65.5" y1="337.488" x2="65.5" y2="647.534" gradientUnits="userSpaceOnUse">
<stop stop-color="white"/>
<stop offset="1" stop-color="#F7DD43" stop-opacity="0"/>
</linearGradient>
<linearGradient id="paint45_linear_527_1320" x1="65.5" y1="337.488" x2="65.5" y2="647.534" gradientUnits="userSpaceOnUse">
<stop stop-color="white"/>
<stop offset="1" stop-color="#F7DD43" stop-opacity="0"/>
</linearGradient>
<linearGradient id="paint46_linear_527_1320" x1="65.5" y1="337.488" x2="65.5" y2="647.534" gradientUnits="userSpaceOnUse">
<stop stop-color="white"/>
<stop offset="1" stop-color="#F7DD43" stop-opacity="0"/>
</linearGradient>
<linearGradient id="paint47_linear_527_1320" x1="951.5" y1="38.7739" x2="951.5" y2="336.311" gradientUnits="userSpaceOnUse">
<stop stop-color="white"/>
<stop offset="1" stop-color="#F7DD43" stop-opacity="0"/>
</linearGradient>
<linearGradient id="paint48_linear_527_1320" x1="951.5" y1="38.7739" x2="951.5" y2="336.311" gradientUnits="userSpaceOnUse">
<stop stop-color="white"/>
<stop offset="1" stop-color="#F7DD43" stop-opacity="0"/>
</linearGradient>
<linearGradient id="paint49_linear_527_1320" x1="951.5" y1="38.7739" x2="951.5" y2="336.311" gradientUnits="userSpaceOnUse">
<stop stop-color="white"/>
<stop offset="1" stop-color="#F7DD43" stop-opacity="0"/>
</linearGradient>
<linearGradient id="paint50_linear_527_1320" x1="951.5" y1="38.7739" x2="951.5" y2="336.311" gradientUnits="userSpaceOnUse">
<stop stop-color="white"/>
<stop offset="1" stop-color="#F7DD43" stop-opacity="0"/>
</linearGradient>
<linearGradient id="paint51_linear_527_1320" x1="951.5" y1="38.7739" x2="951.5" y2="336.311" gradientUnits="userSpaceOnUse">
<stop stop-color="white"/>
<stop offset="1" stop-color="#F7DD43" stop-opacity="0"/>
</linearGradient>
<linearGradient id="paint52_linear_527_1320" x1="951.5" y1="38.7739" x2="951.5" y2="336.311" gradientUnits="userSpaceOnUse">
<stop stop-color="white"/>
<stop offset="1" stop-color="#F7DD43" stop-opacity="0"/>
</linearGradient>
<linearGradient id="paint53_linear_527_1320" x1="951.5" y1="38.7739" x2="951.5" y2="336.311" gradientUnits="userSpaceOnUse">
<stop stop-color="white"/>
<stop offset="1" stop-color="#F7DD43" stop-opacity="0"/>
</linearGradient>
<linearGradient id="paint54_linear_527_1320" x1="951.5" y1="38.7739" x2="951.5" y2="336.311" gradientUnits="userSpaceOnUse">
<stop stop-color="white"/>
<stop offset="1" stop-color="#F7DD43" stop-opacity="0"/>
</linearGradient>
<linearGradient id="paint55_linear_527_1320" x1="951.5" y1="38.7739" x2="951.5" y2="336.311" gradientUnits="userSpaceOnUse">
<stop stop-color="white"/>
<stop offset="1" stop-color="#F7DD43" stop-opacity="0"/>
</linearGradient>
<linearGradient id="paint56_linear_527_1320" x1="951.5" y1="38.7739" x2="951.5" y2="336.311" gradientUnits="userSpaceOnUse">
<stop stop-color="white"/>
<stop offset="1" stop-color="#F7DD43" stop-opacity="0"/>
</linearGradient>
<linearGradient id="paint57_linear_527_1320" x1="951.5" y1="38.7739" x2="951.5" y2="336.311" gradientUnits="userSpaceOnUse">
<stop stop-color="white"/>
<stop offset="1" stop-color="#F7DD43" stop-opacity="0"/>
</linearGradient>
<linearGradient id="paint58_linear_527_1320" x1="951.5" y1="38.7739" x2="951.5" y2="336.311" gradientUnits="userSpaceOnUse">
<stop stop-color="white"/>
<stop offset="1" stop-color="#F7DD43" stop-opacity="0"/>
</linearGradient>
<linearGradient id="paint59_linear_527_1320" x1="951.5" y1="38.7739" x2="951.5" y2="336.311" gradientUnits="userSpaceOnUse">
<stop stop-color="white"/>
<stop offset="1" stop-color="#F7DD43" stop-opacity="0"/>
</linearGradient>
<linearGradient id="paint60_linear_527_1320" x1="951.5" y1="38.7739" x2="951.5" y2="336.311" gradientUnits="userSpaceOnUse">
<stop stop-color="white"/>
<stop offset="1" stop-color="#F7DD43" stop-opacity="0"/>
</linearGradient>
<linearGradient id="paint61_linear_527_1320" x1="951.5" y1="38.7739" x2="951.5" y2="336.311" gradientUnits="userSpaceOnUse">
<stop stop-color="white"/>
<stop offset="1" stop-color="#F7DD43" stop-opacity="0"/>
</linearGradient>
<linearGradient id="paint62_linear_527_1320" x1="951.5" y1="38.7739" x2="951.5" y2="336.311" gradientUnits="userSpaceOnUse">
<stop stop-color="white"/>
<stop offset="1" stop-color="#F7DD43" stop-opacity="0"/>
</linearGradient>
<linearGradient id="paint63_linear_527_1320" x1="951.5" y1="38.7739" x2="951.5" y2="336.311" gradientUnits="userSpaceOnUse">
<stop stop-color="white"/>
<stop offset="1" stop-color="#F7DD43" stop-opacity="0"/>
</linearGradient>
<linearGradient id="paint64_linear_527_1320" x1="951.5" y1="38.7739" x2="951.5" y2="336.311" gradientUnits="userSpaceOnUse">
<stop stop-color="white"/>
<stop offset="1" stop-color="#F7DD43" stop-opacity="0"/>
</linearGradient>
<linearGradient id="paint65_linear_527_1320" x1="951.5" y1="38.7739" x2="951.5" y2="336.311" gradientUnits="userSpaceOnUse">
<stop stop-color="white"/>
<stop offset="1" stop-color="#F7DD43" stop-opacity="0"/>
</linearGradient>
<linearGradient id="paint66_linear_527_1320" x1="951.5" y1="38.7739" x2="951.5" y2="336.311" gradientUnits="userSpaceOnUse">
<stop stop-color="white"/>
<stop offset="1" stop-color="#F7DD43" stop-opacity="0"/>
</linearGradient>
<linearGradient id="paint67_linear_527_1320" x1="951.5" y1="38.7739" x2="951.5" y2="336.311" gradientUnits="userSpaceOnUse">
<stop stop-color="white"/>
<stop offset="1" stop-color="#F7DD43" stop-opacity="0"/>
</linearGradient>
<linearGradient id="paint68_linear_527_1320" x1="951.5" y1="38.7739" x2="951.5" y2="336.311" gradientUnits="userSpaceOnUse">
<stop stop-color="white"/>
<stop offset="1" stop-color="#F7DD43" stop-opacity="0"/>
</linearGradient>
<linearGradient id="paint69_linear_527_1320" x1="951.5" y1="38.7739" x2="951.5" y2="336.311" gradientUnits="userSpaceOnUse">
<stop stop-color="white"/>
<stop offset="1" stop-color="#F7DD43" stop-opacity="0"/>
</linearGradient>
<linearGradient id="paint70_linear_527_1320" x1="951.5" y1="38.7739" x2="951.5" y2="336.311" gradientUnits="userSpaceOnUse">
<stop stop-color="white"/>
<stop offset="1" stop-color="#F7DD43" stop-opacity="0"/>
</linearGradient>
<linearGradient id="paint71_linear_527_1320" x1="951.5" y1="38.7739" x2="951.5" y2="336.311" gradientUnits="userSpaceOnUse">
<stop stop-color="white"/>
<stop offset="1" stop-color="#F7DD43" stop-opacity="0"/>
</linearGradient>
<linearGradient id="paint72_linear_527_1320" x1="951.5" y1="38.7739" x2="951.5" y2="336.311" gradientUnits="userSpaceOnUse">
<stop stop-color="white"/>
<stop offset="1" stop-color="#F7DD43" stop-opacity="0"/>
</linearGradient>
<linearGradient id="paint73_linear_527_1320" x1="951.5" y1="38.7739" x2="951.5" y2="336.311" gradientUnits="userSpaceOnUse">
<stop stop-color="white"/>
<stop offset="1" stop-color="#F7DD43" stop-opacity="0"/>
</linearGradient>
<linearGradient id="paint74_linear_527_1320" x1="951.5" y1="38.7739" x2="951.5" y2="336.311" gradientUnits="userSpaceOnUse">
<stop stop-color="white"/>
<stop offset="1" stop-color="#F7DD43" stop-opacity="0"/>
</linearGradient>
<linearGradient id="paint75_linear_527_1320" x1="951.5" y1="38.7739" x2="951.5" y2="336.311" gradientUnits="userSpaceOnUse">
<stop stop-color="white"/>
<stop offset="1" stop-color="#F7DD43" stop-opacity="0"/>
</linearGradient>
<linearGradient id="paint76_linear_527_1320" x1="951.5" y1="38.7739" x2="951.5" y2="336.311" gradientUnits="userSpaceOnUse">
<stop stop-color="white"/>
<stop offset="1" stop-color="#F7DD43" stop-opacity="0"/>
</linearGradient>
<linearGradient id="paint77_linear_527_1320" x1="951.5" y1="38.7739" x2="951.5" y2="336.311" gradientUnits="userSpaceOnUse">
<stop stop-color="white"/>
<stop offset="1" stop-color="#F7DD43" stop-opacity="0"/>
</linearGradient>
<linearGradient id="paint78_linear_527_1320" x1="951.5" y1="38.7739" x2="951.5" y2="336.311" gradientUnits="userSpaceOnUse">
<stop stop-color="white"/>
<stop offset="1" stop-color="#F7DD43" stop-opacity="0"/>
</linearGradient>
<linearGradient id="paint79_linear_527_1320" x1="951.5" y1="38.7739" x2="951.5" y2="336.311" gradientUnits="userSpaceOnUse">
<stop stop-color="white"/>
<stop offset="1" stop-color="#F7DD43" stop-opacity="0"/>
</linearGradient>
<linearGradient id="paint80_linear_527_1320" x1="951.5" y1="38.7739" x2="951.5" y2="336.311" gradientUnits="userSpaceOnUse">
<stop stop-color="white"/>
<stop offset="1" stop-color="#F7DD43" stop-opacity="0"/>
</linearGradient>
<linearGradient id="paint81_linear_527_1320" x1="951.5" y1="38.7739" x2="951.5" y2="336.311" gradientUnits="userSpaceOnUse">
<stop stop-color="white"/>
<stop offset="1" stop-color="#F7DD43" stop-opacity="0"/>
</linearGradient>
<linearGradient id="paint82_linear_527_1320" x1="951.5" y1="38.7739" x2="951.5" y2="336.311" gradientUnits="userSpaceOnUse">
<stop stop-color="white"/>
<stop offset="1" stop-color="#F7DD43" stop-opacity="0"/>
</linearGradient>
<linearGradient id="paint83_linear_527_1320" x1="951.5" y1="38.7739" x2="951.5" y2="336.311" gradientUnits="userSpaceOnUse">
<stop stop-color="white"/>
<stop offset="1" stop-color="#F7DD43" stop-opacity="0"/>
</linearGradient>
<linearGradient id="paint84_linear_527_1320" x1="951.5" y1="38.7739" x2="951.5" y2="336.311" gradientUnits="userSpaceOnUse">
<stop stop-color="white"/>
<stop offset="1" stop-color="#F7DD43" stop-opacity="0"/>
</linearGradient>
<linearGradient id="paint85_linear_527_1320" x1="951.5" y1="38.7739" x2="951.5" y2="336.311" gradientUnits="userSpaceOnUse">
<stop stop-color="white"/>
<stop offset="1" stop-color="#F7DD43" stop-opacity="0"/>
</linearGradient>
<linearGradient id="paint86_linear_527_1320" x1="951.5" y1="38.7739" x2="951.5" y2="336.311" gradientUnits="userSpaceOnUse">
<stop stop-color="white"/>
<stop offset="1" stop-color="#F7DD43" stop-opacity="0"/>
</linearGradient>
<linearGradient id="paint87_linear_527_1320" x1="951.5" y1="38.7739" x2="951.5" y2="336.311" gradientUnits="userSpaceOnUse">
<stop stop-color="white"/>
<stop offset="1" stop-color="#F7DD43" stop-opacity="0"/>
</linearGradient>
<linearGradient id="paint88_linear_527_1320" x1="951.5" y1="38.7739" x2="951.5" y2="336.311" gradientUnits="userSpaceOnUse">
<stop stop-color="white"/>
<stop offset="1" stop-color="#F7DD43" stop-opacity="0"/>
</linearGradient>
<linearGradient id="paint89_linear_527_1320" x1="951.5" y1="38.7739" x2="951.5" y2="336.311" gradientUnits="userSpaceOnUse">
<stop stop-color="white"/>
<stop offset="1" stop-color="#F7DD43" stop-opacity="0"/>
</linearGradient>
<linearGradient id="paint90_linear_527_1320" x1="951.5" y1="38.7739" x2="951.5" y2="336.311" gradientUnits="userSpaceOnUse">
<stop stop-color="white"/>
<stop offset="1" stop-color="#F7DD43" stop-opacity="0"/>
</linearGradient>
<linearGradient id="paint91_linear_527_1320" x1="951.5" y1="38.7739" x2="951.5" y2="336.311" gradientUnits="userSpaceOnUse">
<stop stop-color="white"/>
<stop offset="1" stop-color="#F7DD43" stop-opacity="0"/>
</linearGradient>
<linearGradient id="paint92_linear_527_1320" x1="951.5" y1="38.7739" x2="951.5" y2="336.311" gradientUnits="userSpaceOnUse">
<stop stop-color="white"/>
<stop offset="1" stop-color="#F7DD43" stop-opacity="0"/>
</linearGradient>
<linearGradient id="paint93_linear_527_1320" x1="951.5" y1="38.7739" x2="951.5" y2="336.311" gradientUnits="userSpaceOnUse">
<stop stop-color="white"/>
<stop offset="1" stop-color="#F7DD43" stop-opacity="0"/>
</linearGradient>
<clipPath id="clip0_527_1320">
<rect width="1024" height="753" fill="white"/>
</clipPath>
</defs>
</svg>
