<svg width="1024" height="753" viewBox="0 0 1024 753" fill="none" xmlns="http://www.w3.org/2000/svg">
<g clip-path="url(#clip0_526_1181)">
<rect width="1024" height="753" fill="#721736"/>
<g opacity="0.3" filter="url(#filter0_f_526_1181)">
<ellipse cx="523.5" cy="86" rx="670.5" ry="350" fill="white"/>
</g>
<path d="M44.0349 322C45.5302 322 46.6622 322.63 47.4308 323.891C48.2134 325.138 48.6047 326.953 48.6047 329.336C48.6047 331.719 48.2134 333.541 47.4308 334.802C46.6622 336.063 45.5302 336.693 44.0349 336.693C42.5536 336.693 41.4216 336.063 40.639 334.802C39.8564 333.541 39.4651 331.719 39.4651 329.336C39.4651 326.967 39.8564 325.152 40.639 323.891C41.4216 322.63 42.5536 322 44.0349 322ZM40.9534 329.336C40.9534 331.026 41.1072 332.35 41.4146 333.306L46.0683 324.099C45.5791 323.448 44.9013 323.122 44.0349 323.122C43.0706 323.122 42.316 323.635 41.771 324.66C41.2259 325.672 40.9534 327.23 40.9534 329.336ZM44.0349 335.55C45.0131 335.55 45.7748 335.044 46.3198 334.033C46.8648 333.008 47.1373 331.442 47.1373 329.336C47.1373 327.549 46.9627 326.163 46.6133 325.18L41.9596 334.469C42.4627 335.19 43.1545 335.55 44.0349 335.55Z" fill="url(#paint0_linear_526_1181)" fill-opacity="0.6"/>
<path d="M45.2926 359.135H48.3741V360.236H40.3874V359.135H43.9511V347.455L40.5551 349.471L39.9682 348.536L44.1607 345.959H45.2926V359.135Z" fill="url(#paint1_linear_526_1181)" fill-opacity="0.6"/>
<path d="M44.0349 369.502C45.5302 369.502 46.6622 370.133 47.4308 371.393C48.2134 372.64 48.6047 374.455 48.6047 376.838C48.6047 379.221 48.2134 381.043 47.4308 382.304C46.6622 383.565 45.5302 384.195 44.0349 384.195C42.5536 384.195 41.4216 383.565 40.639 382.304C39.8564 381.043 39.4651 379.221 39.4651 376.838C39.4651 374.469 39.8564 372.654 40.639 371.393C41.4216 370.133 42.5536 369.502 44.0349 369.502ZM40.9534 376.838C40.9534 378.529 41.1072 379.852 41.4146 380.808L46.0683 371.601C45.5791 370.95 44.9013 370.624 44.0349 370.624C43.0706 370.624 42.316 371.137 41.771 372.162C41.2259 373.174 40.9534 374.732 40.9534 376.838ZM44.0349 383.052C45.0131 383.052 45.7748 382.546 46.3198 381.535C46.8648 380.51 47.1373 378.944 47.1373 376.838C47.1373 375.051 46.9627 373.665 46.6133 372.682L41.9596 381.971C42.4627 382.692 43.1545 383.052 44.0349 383.052Z" fill="url(#paint2_linear_526_1181)" fill-opacity="0.6"/>
<path d="M45.2926 406.637H48.3741V407.738H40.3874V406.637H43.9511V394.957L40.5551 396.973L39.9682 396.038L44.1607 393.461H45.2926V406.637Z" fill="url(#paint3_linear_526_1181)" fill-opacity="0.6"/>
<path d="M45.2926 430.388H48.3741V431.489H40.3874V430.388H43.9511V418.708L40.5551 420.724L39.9682 419.789L44.1607 417.212H45.2926V430.388Z" fill="url(#paint4_linear_526_1181)" fill-opacity="0.6"/>
<path d="M44.0349 440.755C45.5302 440.755 46.6622 441.386 47.4308 442.646C48.2134 443.893 48.6047 445.708 48.6047 448.091C48.6047 450.474 48.2134 452.296 47.4308 453.557C46.6622 454.818 45.5302 455.448 44.0349 455.448C42.5536 455.448 41.4216 454.818 40.639 453.557C39.8564 452.296 39.4651 450.474 39.4651 448.091C39.4651 445.722 39.8564 443.907 40.639 442.646C41.4216 441.386 42.5536 440.755 44.0349 440.755ZM40.9534 448.091C40.9534 449.782 41.1072 451.105 41.4146 452.061L46.0683 442.854C45.5791 442.203 44.9013 441.878 44.0349 441.878C43.0706 441.878 42.316 442.39 41.771 443.415C41.2259 444.427 40.9534 445.985 40.9534 448.091ZM44.0349 454.305C45.0131 454.305 45.7748 453.8 46.3198 452.788C46.8648 451.763 47.1373 450.197 47.1373 448.091C47.1373 446.304 46.9627 444.919 46.6133 443.935L41.9596 453.225C42.4627 453.945 43.1545 454.305 44.0349 454.305Z" fill="url(#paint5_linear_526_1181)" fill-opacity="0.6"/>
<path d="M45.2926 477.89H48.3741V478.992H40.3874V477.89H43.9511V466.21L40.5551 468.226L39.9682 467.291L44.1607 464.714H45.2926V477.89Z" fill="url(#paint6_linear_526_1181)" fill-opacity="0.6"/>
<path d="M44.0349 488.257C45.5302 488.257 46.6622 488.888 47.4308 490.149C48.2134 491.396 48.6047 493.211 48.6047 495.594C48.6047 497.977 48.2134 499.798 47.4308 501.059C46.6622 502.32 45.5302 502.95 44.0349 502.95C42.5536 502.95 41.4216 502.32 40.639 501.059C39.8564 499.798 39.4651 497.977 39.4651 495.594C39.4651 493.224 39.8564 491.409 40.639 490.149C41.4216 488.888 42.5536 488.257 44.0349 488.257ZM40.9534 495.594C40.9534 497.284 41.1072 498.607 41.4146 499.563L46.0683 490.356C45.5791 489.705 44.9013 489.38 44.0349 489.38C43.0706 489.38 42.316 489.892 41.771 490.918C41.2259 491.929 40.9534 493.488 40.9534 495.594ZM44.0349 501.807C45.0131 501.807 45.7748 501.302 46.3198 500.29C46.8648 499.265 47.1373 497.699 47.1373 495.594C47.1373 493.806 46.9627 492.421 46.6133 491.437L41.9596 500.727C42.4627 501.447 43.1545 501.807 44.0349 501.807Z" fill="url(#paint7_linear_526_1181)" fill-opacity="0.6"/>
<path d="M44.0349 512.008C45.5302 512.008 46.6622 512.639 47.4308 513.9C48.2134 515.147 48.6047 516.962 48.6047 519.345C48.6047 521.728 48.2134 523.549 47.4308 524.81C46.6622 526.071 45.5302 526.701 44.0349 526.701C42.5536 526.701 41.4216 526.071 40.639 524.81C39.8564 523.549 39.4651 521.728 39.4651 519.345C39.4651 516.975 39.8564 515.16 40.639 513.9C41.4216 512.639 42.5536 512.008 44.0349 512.008ZM40.9534 519.345C40.9534 521.035 41.1072 522.358 41.4146 523.314L46.0683 514.107C45.5791 513.456 44.9013 513.131 44.0349 513.131C43.0706 513.131 42.316 513.643 41.771 514.669C41.2259 515.68 40.9534 517.239 40.9534 519.345ZM44.0349 525.558C45.0131 525.558 45.7748 525.053 46.3198 524.041C46.8648 523.016 47.1373 521.451 47.1373 519.345C47.1373 517.557 46.9627 516.172 46.6133 515.188L41.9596 524.478C42.4627 525.198 43.1545 525.558 44.0349 525.558Z" fill="url(#paint8_linear_526_1181)" fill-opacity="0.6"/>
<path d="M45.2926 549.143H48.3741V550.245H40.3874V549.143H43.9511V537.464L40.5551 539.48L39.9682 538.544L44.1607 535.967H45.2926V549.143Z" fill="url(#paint9_linear_526_1181)" fill-opacity="0.6"/>
<path d="M44.0349 559.511C45.5302 559.511 46.6622 560.141 47.4308 561.402C48.2134 562.649 48.6047 564.464 48.6047 566.847C48.6047 569.23 48.2134 571.052 47.4308 572.312C46.6622 573.573 45.5302 574.204 44.0349 574.204C42.5536 574.204 41.4216 573.573 40.639 572.312C39.8564 571.052 39.4651 569.23 39.4651 566.847C39.4651 564.478 39.8564 562.663 40.639 561.402C41.4216 560.141 42.5536 559.511 44.0349 559.511ZM40.9534 566.847C40.9534 568.537 41.1072 569.86 41.4146 570.816L46.0683 561.61C45.5791 560.958 44.9013 560.633 44.0349 560.633C43.0706 560.633 42.316 561.145 41.771 562.171C41.2259 563.182 40.9534 564.741 40.9534 566.847ZM44.0349 573.061C45.0131 573.061 45.7748 572.555 46.3198 571.543C46.8648 570.518 47.1373 568.953 47.1373 566.847C47.1373 565.059 46.9627 563.674 46.6133 562.69L41.9596 571.98C42.4627 572.7 43.1545 573.061 44.0349 573.061Z" fill="url(#paint10_linear_526_1181)" fill-opacity="0.6"/>
<path d="M45.2926 596.645H48.3741V597.747H40.3874V596.645H43.9511V584.966L40.5551 586.982L39.9682 586.046L44.1607 583.469H45.2926V596.645Z" fill="url(#paint11_linear_526_1181)" fill-opacity="0.6"/>
<path d="M45.2926 620.396H48.3741V621.498H40.3874V620.396H43.9511V608.717L40.5551 610.733L39.9682 609.798L44.1607 607.221H45.2926V620.396Z" fill="url(#paint12_linear_526_1181)" fill-opacity="0.6"/>
<path d="M82.9651 369.502C84.4604 369.502 85.5924 370.133 86.361 371.393C87.1436 372.64 87.5349 374.455 87.5349 376.838C87.5349 379.221 87.1436 381.043 86.361 382.304C85.5924 383.565 84.4604 384.195 82.9651 384.195C81.4838 384.195 80.3518 383.565 79.5692 382.304C78.7866 381.043 78.3953 379.221 78.3953 376.838C78.3953 374.469 78.7866 372.654 79.5692 371.393C80.3518 370.133 81.4838 369.502 82.9651 369.502ZM79.8836 376.838C79.8836 378.529 80.0374 379.852 80.3448 380.808L84.9985 371.601C84.5093 370.95 83.8315 370.624 82.9651 370.624C82.0008 370.624 81.2462 371.137 80.7012 372.162C80.1561 373.174 79.8836 374.732 79.8836 376.838ZM82.9651 383.052C83.9433 383.052 84.705 382.546 85.25 381.535C85.795 380.51 86.0675 378.944 86.0675 376.838C86.0675 375.051 85.8928 373.665 85.5435 372.682L80.8898 381.971C81.3929 382.692 82.0847 383.052 82.9651 383.052Z" fill="url(#paint13_linear_526_1181)" fill-opacity="0.6"/>
<path d="M84.2228 406.637H87.3043V407.738H79.3176V406.637H82.8812V394.957L79.4853 396.973L78.8984 396.038L83.0909 393.461H84.2228V406.637Z" fill="url(#paint14_linear_526_1181)" fill-opacity="0.6"/>
<path d="M82.9651 417.004C84.4604 417.004 85.5924 417.635 86.361 418.895C87.1436 420.142 87.5349 421.957 87.5349 424.34C87.5349 426.723 87.1436 428.545 86.361 429.806C85.5924 431.067 84.4604 431.697 82.9651 431.697C81.4838 431.697 80.3518 431.067 79.5692 429.806C78.7866 428.545 78.3953 426.723 78.3953 424.34C78.3953 421.971 78.7866 420.156 79.5692 418.895C80.3518 417.635 81.4838 417.004 82.9651 417.004ZM79.8836 424.34C79.8836 426.031 80.0374 427.354 80.3448 428.31L84.9985 419.103C84.5093 418.452 83.8315 418.126 82.9651 418.126C82.0008 418.126 81.2462 418.639 80.7012 419.664C80.1561 420.676 79.8836 422.234 79.8836 424.34ZM82.9651 430.554C83.9433 430.554 84.705 430.049 85.25 429.037C85.795 428.012 86.0675 426.446 86.0675 424.34C86.0675 422.553 85.8928 421.168 85.5435 420.184L80.8898 429.474C81.3929 430.194 82.0847 430.554 82.9651 430.554Z" fill="url(#paint15_linear_526_1181)" fill-opacity="0.6"/>
<path d="M82.9651 440.755C84.4604 440.755 85.5924 441.386 86.361 442.646C87.1436 443.893 87.5349 445.708 87.5349 448.091C87.5349 450.474 87.1436 452.296 86.361 453.557C85.5924 454.818 84.4604 455.448 82.9651 455.448C81.4838 455.448 80.3518 454.818 79.5692 453.557C78.7866 452.296 78.3953 450.474 78.3953 448.091C78.3953 445.722 78.7866 443.907 79.5692 442.646C80.3518 441.386 81.4838 440.755 82.9651 440.755ZM79.8836 448.091C79.8836 449.782 80.0374 451.105 80.3448 452.061L84.9985 442.854C84.5093 442.203 83.8315 441.878 82.9651 441.878C82.0008 441.878 81.2462 442.39 80.7012 443.415C80.1561 444.427 79.8836 445.985 79.8836 448.091ZM82.9651 454.305C83.9433 454.305 84.705 453.8 85.25 452.788C85.795 451.763 86.0675 450.197 86.0675 448.091C86.0675 446.304 85.8928 444.919 85.5435 443.935L80.8898 453.225C81.3929 453.945 82.0847 454.305 82.9651 454.305Z" fill="url(#paint16_linear_526_1181)" fill-opacity="0.6"/>
<path d="M84.2228 477.89H87.3043V478.992H79.3176V477.89H82.8812V466.21L79.4853 468.226L78.8984 467.291L83.0909 464.714H84.2228V477.89Z" fill="url(#paint17_linear_526_1181)" fill-opacity="0.6"/>
<path d="M82.9651 488.257C84.4604 488.257 85.5924 488.888 86.361 490.149C87.1436 491.396 87.5349 493.211 87.5349 495.594C87.5349 497.977 87.1436 499.798 86.361 501.059C85.5924 502.32 84.4604 502.95 82.9651 502.95C81.4838 502.95 80.3518 502.32 79.5692 501.059C78.7866 499.798 78.3953 497.977 78.3953 495.594C78.3953 493.224 78.7866 491.409 79.5692 490.149C80.3518 488.888 81.4838 488.257 82.9651 488.257ZM79.8836 495.594C79.8836 497.284 80.0374 498.607 80.3448 499.563L84.9985 490.356C84.5093 489.705 83.8315 489.38 82.9651 489.38C82.0008 489.38 81.2462 489.892 80.7012 490.918C80.1561 491.929 79.8836 493.488 79.8836 495.594ZM82.9651 501.807C83.9433 501.807 84.705 501.302 85.25 500.29C85.795 499.265 86.0675 497.699 86.0675 495.594C86.0675 493.806 85.8928 492.421 85.5435 491.437L80.8898 500.727C81.3929 501.447 82.0847 501.807 82.9651 501.807Z" fill="url(#paint18_linear_526_1181)" fill-opacity="0.6"/>
<path d="M84.2228 525.392H87.3043V526.494H79.3176V525.392H82.8812V513.713L79.4853 515.728L78.8984 514.793L83.0909 512.216H84.2228V525.392Z" fill="url(#paint19_linear_526_1181)" fill-opacity="0.6"/>
<path d="M82.9651 535.76C84.4604 535.76 85.5924 536.39 86.361 537.651C87.1436 538.898 87.5349 540.713 87.5349 543.096C87.5349 545.479 87.1436 547.301 86.361 548.561C85.5924 549.822 84.4604 550.453 82.9651 550.453C81.4838 550.453 80.3518 549.822 79.5692 548.561C78.7866 547.301 78.3953 545.479 78.3953 543.096C78.3953 540.726 78.7866 538.911 79.5692 537.651C80.3518 536.39 81.4838 535.76 82.9651 535.76ZM79.8836 543.096C79.8836 544.786 80.0374 546.109 80.3448 547.065L84.9985 537.859C84.5093 537.207 83.8315 536.882 82.9651 536.882C82.0008 536.882 81.2462 537.394 80.7012 538.42C80.1561 539.431 79.8836 540.99 79.8836 543.096ZM82.9651 549.31C83.9433 549.31 84.705 548.804 85.25 547.792C85.795 546.767 86.0675 545.202 86.0675 543.096C86.0675 541.308 85.8928 539.923 85.5435 538.939L80.8898 548.229C81.3929 548.949 82.0847 549.31 82.9651 549.31Z" fill="url(#paint20_linear_526_1181)" fill-opacity="0.6"/>
<path d="M82.9651 559.511C84.4604 559.511 85.5924 560.141 86.361 561.402C87.1436 562.649 87.5349 564.464 87.5349 566.847C87.5349 569.23 87.1436 571.052 86.361 572.312C85.5924 573.573 84.4604 574.204 82.9651 574.204C81.4838 574.204 80.3518 573.573 79.5692 572.312C78.7866 571.052 78.3953 569.23 78.3953 566.847C78.3953 564.478 78.7866 562.663 79.5692 561.402C80.3518 560.141 81.4838 559.511 82.9651 559.511ZM79.8836 566.847C79.8836 568.537 80.0374 569.86 80.3448 570.816L84.9985 561.61C84.5093 560.958 83.8315 560.633 82.9651 560.633C82.0008 560.633 81.2462 561.145 80.7012 562.171C80.1561 563.182 79.8836 564.741 79.8836 566.847ZM82.9651 573.061C83.9433 573.061 84.705 572.555 85.25 571.543C85.795 570.518 86.0675 568.953 86.0675 566.847C86.0675 565.059 85.8928 563.674 85.5435 562.69L80.8898 571.98C81.3929 572.7 82.0847 573.061 82.9651 573.061Z" fill="url(#paint21_linear_526_1181)" fill-opacity="0.6"/>
<path d="M84.2228 596.645H87.3043V597.747H79.3176V596.645H82.8812V584.966L79.4853 586.982L78.8984 586.046L83.0909 583.469H84.2228V596.645Z" fill="url(#paint22_linear_526_1181)" fill-opacity="0.6"/>
<path d="M82.9651 607.013C84.4604 607.013 85.5924 607.643 86.361 608.904C87.1436 610.151 87.5349 611.966 87.5349 614.349C87.5349 616.732 87.1436 618.554 86.361 619.815C85.5924 621.075 84.4604 621.706 82.9651 621.706C81.4838 621.706 80.3518 621.075 79.5692 619.815C78.7866 618.554 78.3953 616.732 78.3953 614.349C78.3953 611.98 78.7866 610.165 79.5692 608.904C80.3518 607.643 81.4838 607.013 82.9651 607.013ZM79.8836 614.349C79.8836 616.039 80.0374 617.362 80.3448 618.318L84.9985 609.112C84.5093 608.461 83.8315 608.135 82.9651 608.135C82.0008 608.135 81.2462 608.648 80.7012 609.673C80.1561 610.684 79.8836 612.243 79.8836 614.349ZM82.9651 620.563C83.9433 620.563 84.705 620.057 85.25 619.046C85.795 618.02 86.0675 616.455 86.0675 614.349C86.0675 612.562 85.8928 611.176 85.5435 610.192L80.8898 619.482C81.3929 620.202 82.0847 620.563 82.9651 620.563Z" fill="url(#paint23_linear_526_1181)" fill-opacity="0.6"/>
<path d="M84.2228 644.148H87.3043V645.249H79.3176V644.148H82.8812V632.468L79.4853 634.484L78.8984 633.549L83.0909 630.972H84.2228V644.148Z" fill="url(#paint24_linear_526_1181)" fill-opacity="0.6"/>
<path d="M84.2228 667.899H87.3043V669H79.3176V667.899H82.8812V656.219L79.4853 658.235L78.8984 657.3L83.0909 654.723H84.2228V667.899Z" fill="url(#paint25_linear_526_1181)" fill-opacity="0.6"/>
<path d="M24.5698 393.253C26.0651 393.253 27.1971 393.884 27.9657 395.144C28.7483 396.391 29.1396 398.206 29.1396 400.589C29.1396 402.972 28.7483 404.794 27.9657 406.055C27.1971 407.316 26.0651 407.946 24.5698 407.946C23.0885 407.946 21.9565 407.316 21.1739 406.055C20.3913 404.794 20 402.972 20 400.589C20 398.22 20.3913 396.405 21.1739 395.144C21.9565 393.884 23.0885 393.253 24.5698 393.253ZM21.4883 400.589C21.4883 402.28 21.6421 403.603 21.9495 404.559L26.6032 395.352C26.114 394.701 25.4363 394.375 24.5698 394.375C23.6055 394.375 22.8509 394.888 22.3059 395.913C21.7608 396.925 21.4883 398.483 21.4883 400.589ZM24.5698 406.803C25.5481 406.803 26.3097 406.297 26.8547 405.286C27.3997 404.261 27.6722 402.695 27.6722 400.589C27.6722 398.802 27.4976 397.417 27.1482 396.433L22.4945 405.722C22.9976 406.443 23.6894 406.803 24.5698 406.803Z" fill="url(#paint26_linear_526_1181)" fill-opacity="0.6"/>
<path d="M24.5698 417.004C26.0651 417.004 27.1971 417.635 27.9657 418.895C28.7483 420.142 29.1396 421.957 29.1396 424.34C29.1396 426.723 28.7483 428.545 27.9657 429.806C27.1971 431.067 26.0651 431.697 24.5698 431.697C23.0885 431.697 21.9565 431.067 21.1739 429.806C20.3913 428.545 20 426.723 20 424.34C20 421.971 20.3913 420.156 21.1739 418.895C21.9565 417.635 23.0885 417.004 24.5698 417.004ZM21.4883 424.34C21.4883 426.031 21.6421 427.354 21.9495 428.31L26.6032 419.103C26.114 418.452 25.4363 418.126 24.5698 418.126C23.6055 418.126 22.8509 418.639 22.3059 419.664C21.7608 420.676 21.4883 422.234 21.4883 424.34ZM24.5698 430.554C25.5481 430.554 26.3097 430.049 26.8547 429.037C27.3997 428.012 27.6722 426.446 27.6722 424.34C27.6722 422.553 27.4976 421.168 27.1482 420.184L22.4945 429.474C22.9976 430.194 23.6894 430.554 24.5698 430.554Z" fill="url(#paint27_linear_526_1181)" fill-opacity="0.6"/>
<path d="M25.8276 454.139H28.909V455.24H20.9223V454.139H24.486V442.459L21.09 444.475L20.5031 443.54L24.6956 440.963H25.8276V454.139Z" fill="url(#paint28_linear_526_1181)" fill-opacity="0.6"/>
<path d="M24.5698 464.506C26.0651 464.506 27.1971 465.137 27.9657 466.398C28.7483 467.644 29.1396 469.459 29.1396 471.842C29.1396 474.225 28.7483 476.047 27.9657 477.308C27.1971 478.569 26.0651 479.199 24.5698 479.199C23.0885 479.199 21.9565 478.569 21.1739 477.308C20.3913 476.047 20 474.225 20 471.842C20 469.473 20.3913 467.658 21.1739 466.398C21.9565 465.137 23.0885 464.506 24.5698 464.506ZM21.4883 471.842C21.4883 473.533 21.6421 474.856 21.9495 475.812L26.6032 466.605C26.114 465.954 25.4363 465.629 24.5698 465.629C23.6055 465.629 22.8509 466.141 22.3059 467.166C21.7608 468.178 21.4883 469.737 21.4883 471.842ZM24.5698 478.056C25.5481 478.056 26.3097 477.551 26.8547 476.539C27.3997 475.514 27.6722 473.948 27.6722 471.842C27.6722 470.055 27.4976 468.67 27.1482 467.686L22.4945 476.976C22.9976 477.696 23.6894 478.056 24.5698 478.056Z" fill="url(#paint29_linear_526_1181)" fill-opacity="0.6"/>
<path d="M25.8276 501.641H28.909V502.743H20.9223V501.641H24.486V489.962L21.09 491.977L20.5031 491.042L24.6956 488.465H25.8276V501.641Z" fill="url(#paint30_linear_526_1181)" fill-opacity="0.6"/>
<path d="M25.8276 525.392H28.909V526.494H20.9223V525.392H24.486V513.713L21.09 515.728L20.5031 514.793L24.6956 512.216H25.8276V525.392Z" fill="url(#paint31_linear_526_1181)" fill-opacity="0.6"/>
<path d="M64.7577 359.135H67.8392V360.236H59.8525V359.135H63.4162V347.455L60.0202 349.471L59.4333 348.536L63.6258 345.959H64.7577V359.135Z" fill="url(#paint32_linear_526_1181)" fill-opacity="0.6"/>
<path d="M63.5 369.502C64.9953 369.502 66.1273 370.133 66.8959 371.393C67.6785 372.64 68.0698 374.455 68.0698 376.838C68.0698 379.221 67.6785 381.043 66.8959 382.304C66.1273 383.565 64.9953 384.195 63.5 384.195C62.0187 384.195 60.8867 383.565 60.1041 382.304C59.3215 381.043 58.9302 379.221 58.9302 376.838C58.9302 374.469 59.3215 372.654 60.1041 371.393C60.8867 370.133 62.0187 369.502 63.5 369.502ZM60.4185 376.838C60.4185 378.529 60.5723 379.852 60.8797 380.808L65.5334 371.601C65.0442 370.95 64.3664 370.624 63.5 370.624C62.5357 370.624 61.7811 371.137 61.2361 372.162C60.691 373.174 60.4185 374.732 60.4185 376.838ZM63.5 383.052C64.4782 383.052 65.2399 382.546 65.7849 381.535C66.3299 380.51 66.6024 378.944 66.6024 376.838C66.6024 375.051 66.4277 373.665 66.0784 372.682L61.4247 381.971C61.9278 382.692 62.6196 383.052 63.5 383.052Z" fill="url(#paint33_linear_526_1181)" fill-opacity="0.6"/>
<path d="M64.7577 406.637H67.8392V407.738H59.8525V406.637H63.4162V394.957L60.0202 396.973L59.4333 396.038L63.6258 393.461H64.7577V406.637Z" fill="url(#paint34_linear_526_1181)" fill-opacity="0.6"/>
<path d="M64.7577 430.388H67.8392V431.489H59.8525V430.388H63.4162V418.708L60.0202 420.724L59.4333 419.789L63.6258 417.212H64.7577V430.388Z" fill="url(#paint35_linear_526_1181)" fill-opacity="0.6"/>
<path d="M63.5 440.755C64.9953 440.755 66.1273 441.386 66.8959 442.646C67.6785 443.893 68.0698 445.708 68.0698 448.091C68.0698 450.474 67.6785 452.296 66.8959 453.557C66.1273 454.818 64.9953 455.448 63.5 455.448C62.0187 455.448 60.8867 454.818 60.1041 453.557C59.3215 452.296 58.9302 450.474 58.9302 448.091C58.9302 445.722 59.3215 443.907 60.1041 442.646C60.8867 441.386 62.0187 440.755 63.5 440.755ZM60.4185 448.091C60.4185 449.782 60.5723 451.105 60.8797 452.061L65.5334 442.854C65.0442 442.203 64.3664 441.878 63.5 441.878C62.5357 441.878 61.7811 442.39 61.2361 443.415C60.691 444.427 60.4185 445.985 60.4185 448.091ZM63.5 454.305C64.4782 454.305 65.2399 453.8 65.7849 452.788C66.3299 451.763 66.6024 450.197 66.6024 448.091C66.6024 446.304 66.4277 444.919 66.0784 443.935L61.4247 453.225C61.9278 453.945 62.6196 454.305 63.5 454.305Z" fill="url(#paint36_linear_526_1181)" fill-opacity="0.6"/>
<path d="M64.7577 477.89H67.8392V478.992H59.8525V477.89H63.4162V466.21L60.0202 468.226L59.4333 467.291L63.6258 464.714H64.7577V477.89Z" fill="url(#paint37_linear_526_1181)" fill-opacity="0.6"/>
<path d="M64.7577 501.641H67.8392V502.743H59.8525V501.641H63.4162V489.962L60.0202 491.977L59.4333 491.042L63.6258 488.465H64.7577V501.641Z" fill="url(#paint38_linear_526_1181)" fill-opacity="0.6"/>
<path d="M63.5 512.008C64.9953 512.008 66.1273 512.639 66.8959 513.9C67.6785 515.147 68.0698 516.962 68.0698 519.345C68.0698 521.728 67.6785 523.549 66.8959 524.81C66.1273 526.071 64.9953 526.701 63.5 526.701C62.0187 526.701 60.8867 526.071 60.1041 524.81C59.3215 523.549 58.9302 521.728 58.9302 519.345C58.9302 516.975 59.3215 515.16 60.1041 513.9C60.8867 512.639 62.0187 512.008 63.5 512.008ZM60.4185 519.345C60.4185 521.035 60.5723 522.358 60.8797 523.314L65.5334 514.107C65.0442 513.456 64.3664 513.131 63.5 513.131C62.5357 513.131 61.7811 513.643 61.2361 514.669C60.691 515.68 60.4185 517.239 60.4185 519.345ZM63.5 525.558C64.4782 525.558 65.2399 525.053 65.7849 524.041C66.3299 523.016 66.6024 521.451 66.6024 519.345C66.6024 517.557 66.4277 516.172 66.0784 515.188L61.4247 524.478C61.9278 525.198 62.6196 525.558 63.5 525.558Z" fill="url(#paint39_linear_526_1181)" fill-opacity="0.6"/>
<path d="M64.7577 549.143H67.8392V550.245H59.8525V549.143H63.4162V537.464L60.0202 539.48L59.4333 538.544L63.6258 535.967H64.7577V549.143Z" fill="url(#paint40_linear_526_1181)" fill-opacity="0.6"/>
<path d="M63.5 559.511C64.9953 559.511 66.1273 560.141 66.8959 561.402C67.6785 562.649 68.0698 564.464 68.0698 566.847C68.0698 569.23 67.6785 571.052 66.8959 572.312C66.1273 573.573 64.9953 574.204 63.5 574.204C62.0187 574.204 60.8867 573.573 60.1041 572.312C59.3215 571.052 58.9302 569.23 58.9302 566.847C58.9302 564.478 59.3215 562.663 60.1041 561.402C60.8867 560.141 62.0187 559.511 63.5 559.511ZM60.4185 566.847C60.4185 568.537 60.5723 569.86 60.8797 570.816L65.5334 561.61C65.0442 560.958 64.3664 560.633 63.5 560.633C62.5357 560.633 61.7811 561.145 61.2361 562.171C60.691 563.182 60.4185 564.741 60.4185 566.847ZM63.5 573.061C64.4782 573.061 65.2399 572.555 65.7849 571.543C66.3299 570.518 66.6024 568.953 66.6024 566.847C66.6024 565.059 66.4277 563.674 66.0784 562.69L61.4247 571.98C61.9278 572.7 62.6196 573.061 63.5 573.061Z" fill="url(#paint41_linear_526_1181)" fill-opacity="0.6"/>
<path d="M102.43 345.751C103.926 345.751 105.057 346.381 105.826 347.642C106.609 348.889 107 350.704 107 353.087C107 355.47 106.609 357.292 105.826 358.553C105.057 359.814 103.926 360.444 102.43 360.444C100.949 360.444 99.8169 359.814 99.0343 358.553C98.2517 357.292 97.8604 355.47 97.8604 353.087C97.8604 350.718 98.2517 348.903 99.0343 347.642C99.8169 346.381 100.949 345.751 102.43 345.751ZM99.3487 353.087C99.3487 354.777 99.5024 356.101 99.8099 357.057L104.464 347.85C103.974 347.199 103.297 346.873 102.43 346.873C101.466 346.873 100.711 347.386 100.166 348.411C99.6212 349.423 99.3487 350.981 99.3487 353.087ZM102.43 359.301C103.408 359.301 104.17 358.795 104.715 357.784C105.26 356.759 105.533 355.193 105.533 353.087C105.533 351.3 105.358 349.914 105.009 348.931L100.355 358.22C100.858 358.941 101.55 359.301 102.43 359.301Z" fill="url(#paint42_linear_526_1181)" fill-opacity="0.6"/>
<path d="M103.688 382.886H106.769V383.987H98.7827V382.886H102.346V371.206L98.9504 373.222L98.3635 372.287L102.556 369.71H103.688V382.886Z" fill="url(#paint43_linear_526_1181)" fill-opacity="0.6"/>
<path d="M103.688 406.637H106.769V407.738H98.7827V406.637H102.346V394.957L98.9504 396.973L98.3635 396.038L102.556 393.461H103.688V406.637Z" fill="url(#paint44_linear_526_1181)" fill-opacity="0.6"/>
<path d="M102.43 417.004C103.926 417.004 105.057 417.635 105.826 418.895C106.609 420.142 107 421.957 107 424.34C107 426.723 106.609 428.545 105.826 429.806C105.057 431.067 103.926 431.697 102.43 431.697C100.949 431.697 99.8169 431.067 99.0343 429.806C98.2517 428.545 97.8604 426.723 97.8604 424.34C97.8604 421.971 98.2517 420.156 99.0343 418.895C99.8169 417.635 100.949 417.004 102.43 417.004ZM99.3487 424.34C99.3487 426.031 99.5024 427.354 99.8099 428.31L104.464 419.103C103.974 418.452 103.297 418.126 102.43 418.126C101.466 418.126 100.711 418.639 100.166 419.664C99.6212 420.676 99.3487 422.234 99.3487 424.34ZM102.43 430.554C103.408 430.554 104.17 430.049 104.715 429.037C105.26 428.012 105.533 426.446 105.533 424.34C105.533 422.553 105.358 421.168 105.009 420.184L100.355 429.474C100.858 430.194 101.55 430.554 102.43 430.554Z" fill="url(#paint45_linear_526_1181)" fill-opacity="0.6"/>
<path d="M102.43 440.755C103.926 440.755 105.057 441.386 105.826 442.646C106.609 443.893 107 445.708 107 448.091C107 450.474 106.609 452.296 105.826 453.557C105.057 454.818 103.926 455.448 102.43 455.448C100.949 455.448 99.8169 454.818 99.0343 453.557C98.2517 452.296 97.8604 450.474 97.8604 448.091C97.8604 445.722 98.2517 443.907 99.0343 442.646C99.8169 441.386 100.949 440.755 102.43 440.755ZM99.3487 448.091C99.3487 449.782 99.5024 451.105 99.8099 452.061L104.464 442.854C103.974 442.203 103.297 441.878 102.43 441.878C101.466 441.878 100.711 442.39 100.166 443.415C99.6212 444.427 99.3487 445.985 99.3487 448.091ZM102.43 454.305C103.408 454.305 104.17 453.8 104.715 452.788C105.26 451.763 105.533 450.197 105.533 448.091C105.533 446.304 105.358 444.919 105.009 443.935L100.355 453.225C100.858 453.945 101.55 454.305 102.43 454.305Z" fill="url(#paint46_linear_526_1181)" fill-opacity="0.6"/>
<g opacity="0.6">
<path d="M930.93 22C932.356 22 933.436 22.605 934.17 23.8149C934.916 25.0115 935.29 26.7532 935.29 29.0401C935.29 31.327 934.916 33.0754 934.17 34.2853C933.436 35.4952 932.356 36.1002 930.93 36.1002C929.517 36.1002 928.437 35.4952 927.69 34.2853C926.943 33.0754 926.57 31.327 926.57 29.0401C926.57 26.7665 926.943 25.0248 927.69 23.8149C928.437 22.605 929.517 22 930.93 22ZM927.99 29.0401C927.99 30.6622 928.137 31.932 928.43 32.8494L932.87 24.0143C932.403 23.3894 931.756 23.077 930.93 23.077C930.01 23.077 929.29 23.5689 928.77 24.5528C928.25 25.5234 927.99 27.0192 927.99 29.0401ZM930.93 35.0033C931.863 35.0033 932.59 34.518 933.11 33.5474C933.63 32.5635 933.89 31.0611 933.89 29.0401C933.89 27.325 933.723 25.9954 933.39 25.0514L928.95 33.9662C929.43 34.6576 930.09 35.0033 930.93 35.0033Z" fill="url(#paint47_linear_526_1181)"/>
<path d="M932.13 57.6365H935.07V58.6936H927.45V57.6365H930.85V46.4282L927.61 48.3627L927.05 47.4653L931.05 44.9922H932.13V57.6365Z" fill="url(#paint48_linear_526_1181)"/>
<path d="M930.93 67.5856C932.356 67.5856 933.436 68.1906 934.17 69.4005C934.916 70.5971 935.29 72.3389 935.29 74.6257C935.29 76.9126 934.916 78.661 934.17 79.8709C933.436 81.0808 932.356 81.6858 930.93 81.6858C929.517 81.6858 928.437 81.0808 927.69 79.8709C926.943 78.661 926.57 76.9126 926.57 74.6257C926.57 72.3522 926.943 70.6104 927.69 69.4005C928.437 68.1906 929.517 67.5856 930.93 67.5856ZM927.99 74.6257C927.99 76.2478 928.137 77.5176 928.43 78.435L932.87 69.5999C932.403 68.975 931.756 68.6626 930.93 68.6626C930.01 68.6626 929.29 69.1545 928.77 70.1384C928.25 71.109 927.99 72.6048 927.99 74.6257ZM930.93 80.5889C931.863 80.5889 932.59 80.1036 933.11 79.133C933.63 78.1491 933.89 76.6467 933.89 74.6257C933.89 72.9106 933.723 71.581 933.39 70.637L928.95 79.5518C929.43 80.2432 930.09 80.5889 930.93 80.5889Z" fill="url(#paint49_linear_526_1181)"/>
<path d="M932.13 103.222H935.07V104.279H927.45V103.222H930.85V92.0138L927.61 93.9483L927.05 93.0509L931.05 90.5778H932.13V103.222Z" fill="url(#paint50_linear_526_1181)"/>
<path d="M932.13 126.015H935.07V127.072H927.45V126.015H930.85V114.807L927.61 116.741L927.05 115.844L931.05 113.371H932.13V126.015Z" fill="url(#paint51_linear_526_1181)"/>
<path d="M930.93 135.964C932.356 135.964 933.436 136.569 934.17 137.779C934.916 138.976 935.29 140.717 935.29 143.004C935.29 145.291 934.916 147.039 934.17 148.249C933.436 149.459 932.356 150.064 930.93 150.064C929.517 150.064 928.437 149.459 927.69 148.249C926.943 147.039 926.57 145.291 926.57 143.004C926.57 140.731 926.943 138.989 927.69 137.779C928.437 136.569 929.517 135.964 930.93 135.964ZM927.99 143.004C927.99 144.626 928.137 145.896 928.43 146.813L932.87 137.978C932.403 137.353 931.756 137.041 930.93 137.041C930.01 137.041 929.29 137.533 928.77 138.517C928.25 139.487 927.99 140.983 927.99 143.004ZM930.93 148.967C931.863 148.967 932.59 148.482 933.11 147.511C933.63 146.528 933.89 145.025 933.89 143.004C933.89 141.289 933.723 139.959 933.39 139.015L928.95 147.93C929.43 148.622 930.09 148.967 930.93 148.967Z" fill="url(#paint52_linear_526_1181)"/>
<path d="M932.13 171.601H935.07V172.658H927.45V171.601H930.85V160.392L927.61 162.327L927.05 161.429L931.05 158.956H932.13V171.601Z" fill="url(#paint53_linear_526_1181)"/>
<path d="M930.93 181.55C932.356 181.55 933.436 182.155 934.17 183.365C934.916 184.561 935.29 186.303 935.29 188.59C935.29 190.877 934.916 192.625 934.17 193.835C933.436 195.045 932.356 195.65 930.93 195.65C929.517 195.65 928.437 195.045 927.69 193.835C926.943 192.625 926.57 190.877 926.57 188.59C926.57 186.316 926.943 184.574 927.69 183.365C928.437 182.155 929.517 181.55 930.93 181.55ZM927.99 188.59C927.99 190.212 928.137 191.482 928.43 192.399L932.87 183.564C932.403 182.939 931.756 182.627 930.93 182.627C930.01 182.627 929.29 183.119 928.77 184.102C928.25 185.073 927.99 186.569 927.99 188.59ZM930.93 194.553C931.863 194.553 932.59 194.068 933.11 193.097C933.63 192.113 933.89 190.611 933.89 188.59C933.89 186.875 933.723 185.545 933.39 184.601L928.95 193.516C929.43 194.207 930.09 194.553 930.93 194.553Z" fill="url(#paint54_linear_526_1181)"/>
<path d="M930.93 204.342C932.356 204.342 933.436 204.947 934.17 206.157C934.916 207.354 935.29 209.096 935.29 211.383C935.29 213.669 934.916 215.418 934.17 216.628C933.436 217.838 932.356 218.443 930.93 218.443C929.517 218.443 928.437 217.838 927.69 216.628C926.943 215.418 926.57 213.669 926.57 211.383C926.57 209.109 926.943 207.367 927.69 206.157C928.437 204.947 929.517 204.342 930.93 204.342ZM927.99 211.383C927.99 213.005 928.137 214.274 928.43 215.192L932.87 206.357C932.403 205.732 931.756 205.419 930.93 205.419C930.01 205.419 929.29 205.911 928.77 206.895C928.25 207.866 927.99 209.362 927.99 211.383ZM930.93 217.346C931.863 217.346 932.59 216.86 933.11 215.89C933.63 214.906 933.89 213.404 933.89 211.383C933.89 209.667 933.723 208.338 933.39 207.394L928.95 216.309C929.43 217 930.09 217.346 930.93 217.346Z" fill="url(#paint55_linear_526_1181)"/>
<path d="M932.13 239.979H935.07V241.036H927.45V239.979H930.85V228.771L927.61 230.705L927.05 229.808L931.05 227.335H932.13V239.979Z" fill="url(#paint56_linear_526_1181)"/>
<path d="M930.93 249.928C932.356 249.928 933.436 250.533 934.17 251.743C934.916 252.94 935.29 254.681 935.29 256.968C935.29 259.255 934.916 261.003 934.17 262.213C933.436 263.423 932.356 264.028 930.93 264.028C929.517 264.028 928.437 263.423 927.69 262.213C926.943 261.003 926.57 259.255 926.57 256.968C926.57 254.695 926.943 252.953 927.69 251.743C928.437 250.533 929.517 249.928 930.93 249.928ZM927.99 256.968C927.99 258.59 928.137 259.86 928.43 260.777L932.87 251.942C932.403 251.317 931.756 251.005 930.93 251.005C930.01 251.005 929.29 251.497 928.77 252.481C928.25 253.451 927.99 254.947 927.99 256.968ZM930.93 262.931C931.863 262.931 932.59 262.446 933.11 261.475C933.63 260.492 933.89 258.989 933.89 256.968C933.89 255.253 933.723 253.923 933.39 252.979L928.95 261.894C929.43 262.586 930.09 262.931 930.93 262.931Z" fill="url(#paint57_linear_526_1181)"/>
<path d="M932.13 285.565H935.07V286.622H927.45V285.565H930.85V274.356L927.61 276.291L927.05 275.393L931.05 272.92H932.13V285.565Z" fill="url(#paint58_linear_526_1181)"/>
<path d="M932.13 308.357H935.07V309.414H927.45V308.357H930.85V297.149L927.61 299.084L927.05 298.186L931.05 295.713H932.13V308.357Z" fill="url(#paint59_linear_526_1181)"/>
<path d="M968.07 67.5856C969.497 67.5856 970.577 68.1906 971.31 69.4005C972.057 70.5971 972.43 72.3389 972.43 74.6257C972.43 76.9126 972.057 78.661 971.31 79.8709C970.577 81.0808 969.497 81.6858 968.07 81.6858C966.657 81.6858 965.577 81.0808 964.83 79.8709C964.084 78.661 963.71 76.9126 963.71 74.6257C963.71 72.3522 964.084 70.6104 964.83 69.4005C965.577 68.1906 966.657 67.5856 968.07 67.5856ZM965.13 74.6257C965.13 76.2478 965.277 77.5176 965.57 78.435L970.01 69.5999C969.543 68.975 968.897 68.6626 968.07 68.6626C967.15 68.6626 966.43 69.1545 965.91 70.1384C965.39 71.109 965.13 72.6048 965.13 74.6257ZM968.07 80.5889C969.003 80.5889 969.73 80.1036 970.25 79.133C970.77 78.1491 971.03 76.6467 971.03 74.6257C971.03 72.9106 970.863 71.581 970.53 70.637L966.09 79.5518C966.57 80.2432 967.23 80.5889 968.07 80.5889Z" fill="url(#paint60_linear_526_1181)"/>
<path d="M969.27 103.222H972.21V104.279H964.59V103.222H967.99V92.0138L964.75 93.9483L964.19 93.0509L968.19 90.5778H969.27V103.222Z" fill="url(#paint61_linear_526_1181)"/>
<path d="M968.07 113.171C969.497 113.171 970.577 113.776 971.31 114.986C972.057 116.183 972.43 117.924 972.43 120.211C972.43 122.498 972.057 124.247 971.31 125.457C970.577 126.666 969.497 127.271 968.07 127.271C966.657 127.271 965.577 126.666 964.83 125.457C964.084 124.247 963.71 122.498 963.71 120.211C963.71 117.938 964.084 116.196 964.83 114.986C965.577 113.776 966.657 113.171 968.07 113.171ZM965.13 120.211C965.13 121.833 965.277 123.103 965.57 124.021L970.01 115.186C969.543 114.561 968.897 114.248 968.07 114.248C967.15 114.248 966.43 114.74 965.91 115.724C965.39 116.695 965.13 118.19 965.13 120.211ZM968.07 126.174C969.003 126.174 969.73 125.689 970.25 124.719C970.77 123.735 971.03 122.232 971.03 120.211C971.03 118.496 970.863 117.167 970.53 116.223L966.09 125.137C966.57 125.829 967.23 126.174 968.07 126.174Z" fill="url(#paint62_linear_526_1181)"/>
<path d="M968.07 135.964C969.497 135.964 970.577 136.569 971.31 137.779C972.057 138.976 972.43 140.717 972.43 143.004C972.43 145.291 972.057 147.039 971.31 148.249C970.577 149.459 969.497 150.064 968.07 150.064C966.657 150.064 965.577 149.459 964.83 148.249C964.084 147.039 963.71 145.291 963.71 143.004C963.71 140.731 964.084 138.989 964.83 137.779C965.577 136.569 966.657 135.964 968.07 135.964ZM965.13 143.004C965.13 144.626 965.277 145.896 965.57 146.813L970.01 137.978C969.543 137.353 968.897 137.041 968.07 137.041C967.15 137.041 966.43 137.533 965.91 138.517C965.39 139.487 965.13 140.983 965.13 143.004ZM968.07 148.967C969.003 148.967 969.73 148.482 970.25 147.511C970.77 146.528 971.03 145.025 971.03 143.004C971.03 141.289 970.863 139.959 970.53 139.015L966.09 147.93C966.57 148.622 967.23 148.967 968.07 148.967Z" fill="url(#paint63_linear_526_1181)"/>
<path d="M969.27 171.601H972.21V172.658H964.59V171.601H967.99V160.392L964.75 162.327L964.19 161.429L968.19 158.956H969.27V171.601Z" fill="url(#paint64_linear_526_1181)"/>
<path d="M968.07 181.55C969.497 181.55 970.577 182.155 971.31 183.365C972.057 184.561 972.43 186.303 972.43 188.59C972.43 190.877 972.057 192.625 971.31 193.835C970.577 195.045 969.497 195.65 968.07 195.65C966.657 195.65 965.577 195.045 964.83 193.835C964.084 192.625 963.71 190.877 963.71 188.59C963.71 186.316 964.084 184.574 964.83 183.365C965.577 182.155 966.657 181.55 968.07 181.55ZM965.13 188.59C965.13 190.212 965.277 191.482 965.57 192.399L970.01 183.564C969.543 182.939 968.897 182.627 968.07 182.627C967.15 182.627 966.43 183.119 965.91 184.102C965.39 185.073 965.13 186.569 965.13 188.59ZM968.07 194.553C969.003 194.553 969.73 194.068 970.25 193.097C970.77 192.113 971.03 190.611 971.03 188.59C971.03 186.875 970.863 185.545 970.53 184.601L966.09 193.516C966.57 194.207 967.23 194.553 968.07 194.553Z" fill="url(#paint65_linear_526_1181)"/>
<path d="M969.27 217.186H972.21V218.243H964.59V217.186H967.99V205.978L964.75 207.912L964.19 207.015L968.19 204.542H969.27V217.186Z" fill="url(#paint66_linear_526_1181)"/>
<path d="M968.07 227.135C969.497 227.135 970.577 227.74 971.31 228.95C972.057 230.147 972.43 231.888 972.43 234.175C972.43 236.462 972.057 238.211 971.31 239.421C970.577 240.63 969.497 241.235 968.07 241.235C966.657 241.235 965.577 240.63 964.83 239.421C964.084 238.211 963.71 236.462 963.71 234.175C963.71 231.902 964.084 230.16 964.83 228.95C965.577 227.74 966.657 227.135 968.07 227.135ZM965.13 234.175C965.13 235.797 965.277 237.067 965.57 237.985L970.01 229.15C969.543 228.525 968.897 228.212 968.07 228.212C967.15 228.212 966.43 228.704 965.91 229.688C965.39 230.659 965.13 232.154 965.13 234.175ZM968.07 240.139C969.003 240.139 969.73 239.653 970.25 238.683C970.77 237.699 971.03 236.196 971.03 234.175C971.03 232.46 970.863 231.131 970.53 230.187L966.09 239.101C966.57 239.793 967.23 240.139 968.07 240.139Z" fill="url(#paint67_linear_526_1181)"/>
<path d="M968.07 249.928C969.497 249.928 970.577 250.533 971.31 251.743C972.057 252.94 972.43 254.681 972.43 256.968C972.43 259.255 972.057 261.003 971.31 262.213C970.577 263.423 969.497 264.028 968.07 264.028C966.657 264.028 965.577 263.423 964.83 262.213C964.084 261.003 963.71 259.255 963.71 256.968C963.71 254.695 964.084 252.953 964.83 251.743C965.577 250.533 966.657 249.928 968.07 249.928ZM965.13 256.968C965.13 258.59 965.277 259.86 965.57 260.777L970.01 251.942C969.543 251.317 968.897 251.005 968.07 251.005C967.15 251.005 966.43 251.497 965.91 252.481C965.39 253.451 965.13 254.947 965.13 256.968ZM968.07 262.931C969.003 262.931 969.73 262.446 970.25 261.475C970.77 260.492 971.03 258.989 971.03 256.968C971.03 255.253 970.863 253.923 970.53 252.979L966.09 261.894C966.57 262.586 967.23 262.931 968.07 262.931Z" fill="url(#paint68_linear_526_1181)"/>
<path d="M969.27 285.565H972.21V286.622H964.59V285.565H967.99V274.356L964.75 276.291L964.19 275.393L968.19 272.92H969.27V285.565Z" fill="url(#paint69_linear_526_1181)"/>
<path d="M968.07 295.514C969.497 295.514 970.577 296.119 971.31 297.329C972.057 298.525 972.43 300.267 972.43 302.554C972.43 304.841 972.057 306.589 971.31 307.799C970.577 309.009 969.497 309.614 968.07 309.614C966.657 309.614 965.577 309.009 964.83 307.799C964.084 306.589 963.71 304.841 963.71 302.554C963.71 300.28 964.084 298.538 964.83 297.329C965.577 296.119 966.657 295.514 968.07 295.514ZM965.13 302.554C965.13 304.176 965.277 305.446 965.57 306.363L970.01 297.528C969.543 296.903 968.897 296.591 968.07 296.591C967.15 296.591 966.43 297.083 965.91 298.066C965.39 299.037 965.13 300.533 965.13 302.554ZM968.07 308.517C969.003 308.517 969.73 308.032 970.25 307.061C970.77 306.077 971.03 304.575 971.03 302.554C971.03 300.839 970.863 299.509 970.53 298.565L966.09 307.48C966.57 308.171 967.23 308.517 968.07 308.517Z" fill="url(#paint70_linear_526_1181)"/>
<path d="M969.27 331.15H972.21V332.207H964.59V331.15H967.99V319.942L964.75 321.876L964.19 320.979L968.19 318.506H969.27V331.15Z" fill="url(#paint71_linear_526_1181)"/>
<path d="M969.27 353.943H972.21V355H964.59V353.943H967.99V342.735L964.75 344.669L964.19 343.772L968.19 341.299H969.27V353.943Z" fill="url(#paint72_linear_526_1181)"/>
<path d="M912.36 90.3784C913.786 90.3784 914.866 90.9834 915.599 92.1933C916.346 93.3899 916.719 95.1317 916.719 97.4185C916.719 99.7054 916.346 101.454 915.599 102.664C914.866 103.874 913.786 104.479 912.36 104.479C910.946 104.479 909.867 103.874 909.12 102.664C908.373 101.454 908 99.7054 908 97.4185C908 95.145 908.373 93.4032 909.12 92.1933C909.867 90.9834 910.946 90.3784 912.36 90.3784ZM909.42 97.4185C909.42 99.0406 909.567 100.31 909.86 101.228L914.3 92.3927C913.833 91.7678 913.186 91.4554 912.36 91.4554C911.44 91.4554 910.72 91.9473 910.2 92.9312C909.68 93.9018 909.42 95.3976 909.42 97.4185ZM912.36 103.382C913.293 103.382 914.02 102.896 914.54 101.926C915.06 100.942 915.319 99.4395 915.319 97.4185C915.319 95.7034 915.153 94.3738 914.82 93.4298L910.38 102.345C910.86 103.036 911.52 103.382 912.36 103.382Z" fill="url(#paint73_linear_526_1181)"/>
<path d="M912.36 113.171C913.786 113.171 914.866 113.776 915.599 114.986C916.346 116.183 916.719 117.924 916.719 120.211C916.719 122.498 916.346 124.247 915.599 125.457C914.866 126.666 913.786 127.271 912.36 127.271C910.946 127.271 909.867 126.666 909.12 125.457C908.373 124.247 908 122.498 908 120.211C908 117.938 908.373 116.196 909.12 114.986C909.867 113.776 910.946 113.171 912.36 113.171ZM909.42 120.211C909.42 121.833 909.567 123.103 909.86 124.021L914.3 115.186C913.833 114.561 913.186 114.248 912.36 114.248C911.44 114.248 910.72 114.74 910.2 115.724C909.68 116.695 909.42 118.19 909.42 120.211ZM912.36 126.174C913.293 126.174 914.02 125.689 914.54 124.719C915.06 123.735 915.319 122.232 915.319 120.211C915.319 118.496 915.153 117.167 914.82 116.223L910.38 125.137C910.86 125.829 911.52 126.174 912.36 126.174Z" fill="url(#paint74_linear_526_1181)"/>
<path d="M913.56 148.808H916.499V149.865H908.88V148.808H912.28V137.599L909.04 139.534L908.48 138.636L912.48 136.163H913.56V148.808Z" fill="url(#paint75_linear_526_1181)"/>
<path d="M912.36 158.757C913.786 158.757 914.866 159.362 915.599 160.572C916.346 161.768 916.719 163.51 916.719 165.797C916.719 168.084 916.346 169.832 915.599 171.042C914.866 172.252 913.786 172.857 912.36 172.857C910.946 172.857 909.867 172.252 909.12 171.042C908.373 169.832 908 168.084 908 165.797C908 163.523 908.373 161.782 909.12 160.572C909.867 159.362 910.946 158.757 912.36 158.757ZM909.42 165.797C909.42 167.419 909.567 168.689 909.86 169.606L914.3 160.771C913.833 160.146 913.186 159.834 912.36 159.834C911.44 159.834 910.72 160.326 910.2 161.31C909.68 162.28 909.42 163.776 909.42 165.797ZM912.36 171.76C913.293 171.76 914.02 171.275 914.54 170.304C915.06 169.32 915.319 167.818 915.319 165.797C915.319 164.082 915.153 162.752 914.82 161.808L910.38 170.723C910.86 171.414 911.52 171.76 912.36 171.76Z" fill="url(#paint76_linear_526_1181)"/>
<path d="M913.56 194.393H916.499V195.45H908.88V194.393H912.28V183.185L909.04 185.12L908.48 184.222L912.48 181.749H913.56V194.393Z" fill="url(#paint77_linear_526_1181)"/>
<path d="M913.56 217.186H916.499V218.243H908.88V217.186H912.28V205.978L909.04 207.912L908.48 207.015L912.48 204.542H913.56V217.186Z" fill="url(#paint78_linear_526_1181)"/>
<path d="M950.7 57.6365H953.64V58.6936H946.02V57.6365H949.42V46.4282L946.18 48.3627L945.62 47.4653L949.62 44.9922H950.7V57.6365Z" fill="url(#paint79_linear_526_1181)"/>
<path d="M949.5 67.5856C950.927 67.5856 952.006 68.1906 952.74 69.4005C953.486 70.5971 953.86 72.3389 953.86 74.6257C953.86 76.9126 953.486 78.661 952.74 79.8709C952.006 81.0808 950.927 81.6858 949.5 81.6858C948.087 81.6858 947.007 81.0808 946.26 79.8709C945.514 78.661 945.14 76.9126 945.14 74.6257C945.14 72.3522 945.514 70.6104 946.26 69.4005C947.007 68.1906 948.087 67.5856 949.5 67.5856ZM946.56 74.6257C946.56 76.2478 946.707 77.5176 947 78.435L951.44 69.5999C950.973 68.975 950.327 68.6626 949.5 68.6626C948.58 68.6626 947.86 69.1545 947.34 70.1384C946.82 71.109 946.56 72.6048 946.56 74.6257ZM949.5 80.5889C950.433 80.5889 951.16 80.1036 951.68 79.133C952.2 78.1491 952.46 76.6467 952.46 74.6257C952.46 72.9106 952.293 71.581 951.96 70.637L947.52 79.5518C948 80.2432 948.66 80.5889 949.5 80.5889Z" fill="url(#paint80_linear_526_1181)"/>
<path d="M950.7 103.222H953.64V104.279H946.02V103.222H949.42V92.0138L946.18 93.9483L945.62 93.0509L949.62 90.5778H950.7V103.222Z" fill="url(#paint81_linear_526_1181)"/>
<path d="M950.7 126.015H953.64V127.072H946.02V126.015H949.42V114.807L946.18 116.741L945.62 115.844L949.62 113.371H950.7V126.015Z" fill="url(#paint82_linear_526_1181)"/>
<path d="M949.5 135.964C950.927 135.964 952.006 136.569 952.74 137.779C953.486 138.976 953.86 140.717 953.86 143.004C953.86 145.291 953.486 147.039 952.74 148.249C952.006 149.459 950.927 150.064 949.5 150.064C948.087 150.064 947.007 149.459 946.26 148.249C945.514 147.039 945.14 145.291 945.14 143.004C945.14 140.731 945.514 138.989 946.26 137.779C947.007 136.569 948.087 135.964 949.5 135.964ZM946.56 143.004C946.56 144.626 946.707 145.896 947 146.813L951.44 137.978C950.973 137.353 950.327 137.041 949.5 137.041C948.58 137.041 947.86 137.533 947.34 138.517C946.82 139.487 946.56 140.983 946.56 143.004ZM949.5 148.967C950.433 148.967 951.16 148.482 951.68 147.511C952.2 146.528 952.46 145.025 952.46 143.004C952.46 141.289 952.293 139.959 951.96 139.015L947.52 147.93C948 148.622 948.66 148.967 949.5 148.967Z" fill="url(#paint83_linear_526_1181)"/>
<path d="M950.7 171.601H953.64V172.658H946.02V171.601H949.42V160.392L946.18 162.327L945.62 161.429L949.62 158.956H950.7V171.601Z" fill="url(#paint84_linear_526_1181)"/>
<path d="M950.7 194.393H953.64V195.45H946.02V194.393H949.42V183.185L946.18 185.12L945.62 184.222L949.62 181.749H950.7V194.393Z" fill="url(#paint85_linear_526_1181)"/>
<path d="M949.5 204.342C950.927 204.342 952.006 204.947 952.74 206.157C953.486 207.354 953.86 209.096 953.86 211.383C953.86 213.669 953.486 215.418 952.74 216.628C952.006 217.838 950.927 218.443 949.5 218.443C948.087 218.443 947.007 217.838 946.26 216.628C945.514 215.418 945.14 213.669 945.14 211.383C945.14 209.109 945.514 207.367 946.26 206.157C947.007 204.947 948.087 204.342 949.5 204.342ZM946.56 211.383C946.56 213.005 946.707 214.274 947 215.192L951.44 206.357C950.973 205.732 950.327 205.419 949.5 205.419C948.58 205.419 947.86 205.911 947.34 206.895C946.82 207.866 946.56 209.362 946.56 211.383ZM949.5 217.346C950.433 217.346 951.16 216.86 951.68 215.89C952.2 214.906 952.46 213.404 952.46 211.383C952.46 209.667 952.293 208.338 951.96 207.394L947.52 216.309C948 217 948.66 217.346 949.5 217.346Z" fill="url(#paint86_linear_526_1181)"/>
<path d="M950.7 239.979H953.64V241.036H946.02V239.979H949.42V228.771L946.18 230.705L945.62 229.808L949.62 227.335H950.7V239.979Z" fill="url(#paint87_linear_526_1181)"/>
<path d="M949.5 249.928C950.927 249.928 952.006 250.533 952.74 251.743C953.486 252.94 953.86 254.681 953.86 256.968C953.86 259.255 953.486 261.003 952.74 262.213C952.006 263.423 950.927 264.028 949.5 264.028C948.087 264.028 947.007 263.423 946.26 262.213C945.514 261.003 945.14 259.255 945.14 256.968C945.14 254.695 945.514 252.953 946.26 251.743C947.007 250.533 948.087 249.928 949.5 249.928ZM946.56 256.968C946.56 258.59 946.707 259.86 947 260.777L951.44 251.942C950.973 251.317 950.327 251.005 949.5 251.005C948.58 251.005 947.86 251.497 947.34 252.481C946.82 253.451 946.56 254.947 946.56 256.968ZM949.5 262.931C950.433 262.931 951.16 262.446 951.68 261.475C952.2 260.492 952.46 258.989 952.46 256.968C952.46 255.253 952.293 253.923 951.96 252.979L947.52 261.894C948 262.586 948.66 262.931 949.5 262.931Z" fill="url(#paint88_linear_526_1181)"/>
<path d="M986.64 44.7928C988.067 44.7928 989.147 45.3978 989.88 46.6077C990.627 47.8043 991 49.5461 991 51.8329C991 54.1198 990.627 55.8682 989.88 57.0781C989.147 58.288 988.067 58.893 986.64 58.893C985.227 58.893 984.147 58.288 983.401 57.0781C982.654 55.8682 982.281 54.1198 982.281 51.8329C982.281 49.5593 982.654 47.8176 983.401 46.6077C984.147 45.3978 985.227 44.7928 986.64 44.7928ZM983.7 51.8329C983.7 53.455 983.847 54.7248 984.14 55.6422L988.58 46.8071C988.114 46.1822 987.467 45.8698 986.64 45.8698C985.72 45.8698 985 46.3617 984.48 47.3456C983.96 48.3162 983.7 49.812 983.7 51.8329ZM986.64 57.7961C987.574 57.7961 988.3 57.3108 988.82 56.3402C989.34 55.3563 989.6 53.8539 989.6 51.8329C989.6 50.1178 989.433 48.7882 989.1 47.8442L984.66 56.759C985.14 57.4504 985.8 57.7961 986.64 57.7961Z" fill="url(#paint89_linear_526_1181)"/>
<path d="M987.84 80.4293H990.78V81.4864H983.161V80.4293H986.56V69.221L983.321 71.1555L982.761 70.2581L986.76 67.785H987.84V80.4293Z" fill="url(#paint90_linear_526_1181)"/>
<path d="M987.84 103.222H990.78V104.279H983.161V103.222H986.56V92.0138L983.321 93.9483L982.761 93.0509L986.76 90.5778H987.84V103.222Z" fill="url(#paint91_linear_526_1181)"/>
<path d="M986.64 113.171C988.067 113.171 989.147 113.776 989.88 114.986C990.627 116.183 991 117.924 991 120.211C991 122.498 990.627 124.247 989.88 125.457C989.147 126.666 988.067 127.271 986.64 127.271C985.227 127.271 984.147 126.666 983.401 125.457C982.654 124.247 982.281 122.498 982.281 120.211C982.281 117.938 982.654 116.196 983.401 114.986C984.147 113.776 985.227 113.171 986.64 113.171ZM983.7 120.211C983.7 121.833 983.847 123.103 984.14 124.021L988.58 115.186C988.114 114.561 987.467 114.248 986.64 114.248C985.72 114.248 985 114.74 984.48 115.724C983.96 116.695 983.7 118.19 983.7 120.211ZM986.64 126.174C987.574 126.174 988.3 125.689 988.82 124.719C989.34 123.735 989.6 122.232 989.6 120.211C989.6 118.496 989.433 117.167 989.1 116.223L984.66 125.137C985.14 125.829 985.8 126.174 986.64 126.174Z" fill="url(#paint92_linear_526_1181)"/>
<path d="M986.64 135.964C988.067 135.964 989.147 136.569 989.88 137.779C990.627 138.976 991 140.717 991 143.004C991 145.291 990.627 147.039 989.88 148.249C989.147 149.459 988.067 150.064 986.64 150.064C985.227 150.064 984.147 149.459 983.401 148.249C982.654 147.039 982.281 145.291 982.281 143.004C982.281 140.731 982.654 138.989 983.401 137.779C984.147 136.569 985.227 135.964 986.64 135.964ZM983.7 143.004C983.7 144.626 983.847 145.896 984.14 146.813L988.58 137.978C988.114 137.353 987.467 137.041 986.64 137.041C985.72 137.041 985 137.533 984.48 138.517C983.96 139.487 983.7 140.983 983.7 143.004ZM986.64 148.967C987.574 148.967 988.3 148.482 988.82 147.511C989.34 146.528 989.6 145.025 989.6 143.004C989.6 141.289 989.433 139.959 989.1 139.015L984.66 147.93C985.14 148.622 985.8 148.967 986.64 148.967Z" fill="url(#paint93_linear_526_1181)"/>
</g>
</g>
<defs>
<filter id="filter0_f_526_1181" x="-547.19" y="-664.19" width="2141.38" height="1500.38" filterUnits="userSpaceOnUse" color-interpolation-filters="sRGB">
<feFlood flood-opacity="0" result="BackgroundImageFix"/>
<feBlend mode="normal" in="SourceGraphic" in2="BackgroundImageFix" result="shape"/>
<feGaussianBlur stdDeviation="200.095" result="effect1_foregroundBlur_526_1181"/>
</filter>
<linearGradient id="paint0_linear_526_1181" x1="63.5" y1="322" x2="63.5" y2="633.381" gradientUnits="userSpaceOnUse">
<stop stop-color="white"/>
<stop offset="1" stop-color="#F7DD43" stop-opacity="0"/>
</linearGradient>
<linearGradient id="paint1_linear_526_1181" x1="63.5" y1="322" x2="63.5" y2="633.381" gradientUnits="userSpaceOnUse">
<stop stop-color="white"/>
<stop offset="1" stop-color="#F7DD43" stop-opacity="0"/>
</linearGradient>
<linearGradient id="paint2_linear_526_1181" x1="63.5" y1="322" x2="63.5" y2="633.381" gradientUnits="userSpaceOnUse">
<stop stop-color="white"/>
<stop offset="1" stop-color="#F7DD43" stop-opacity="0"/>
</linearGradient>
<linearGradient id="paint3_linear_526_1181" x1="63.5" y1="322" x2="63.5" y2="633.381" gradientUnits="userSpaceOnUse">
<stop stop-color="white"/>
<stop offset="1" stop-color="#F7DD43" stop-opacity="0"/>
</linearGradient>
<linearGradient id="paint4_linear_526_1181" x1="63.5" y1="322" x2="63.5" y2="633.381" gradientUnits="userSpaceOnUse">
<stop stop-color="white"/>
<stop offset="1" stop-color="#F7DD43" stop-opacity="0"/>
</linearGradient>
<linearGradient id="paint5_linear_526_1181" x1="63.5" y1="322" x2="63.5" y2="633.381" gradientUnits="userSpaceOnUse">
<stop stop-color="white"/>
<stop offset="1" stop-color="#F7DD43" stop-opacity="0"/>
</linearGradient>
<linearGradient id="paint6_linear_526_1181" x1="63.5" y1="322" x2="63.5" y2="633.381" gradientUnits="userSpaceOnUse">
<stop stop-color="white"/>
<stop offset="1" stop-color="#F7DD43" stop-opacity="0"/>
</linearGradient>
<linearGradient id="paint7_linear_526_1181" x1="63.5" y1="322" x2="63.5" y2="633.381" gradientUnits="userSpaceOnUse">
<stop stop-color="white"/>
<stop offset="1" stop-color="#F7DD43" stop-opacity="0"/>
</linearGradient>
<linearGradient id="paint8_linear_526_1181" x1="63.5" y1="322" x2="63.5" y2="633.381" gradientUnits="userSpaceOnUse">
<stop stop-color="white"/>
<stop offset="1" stop-color="#F7DD43" stop-opacity="0"/>
</linearGradient>
<linearGradient id="paint9_linear_526_1181" x1="63.5" y1="322" x2="63.5" y2="633.381" gradientUnits="userSpaceOnUse">
<stop stop-color="white"/>
<stop offset="1" stop-color="#F7DD43" stop-opacity="0"/>
</linearGradient>
<linearGradient id="paint10_linear_526_1181" x1="63.5" y1="322" x2="63.5" y2="633.381" gradientUnits="userSpaceOnUse">
<stop stop-color="white"/>
<stop offset="1" stop-color="#F7DD43" stop-opacity="0"/>
</linearGradient>
<linearGradient id="paint11_linear_526_1181" x1="63.5" y1="322" x2="63.5" y2="633.381" gradientUnits="userSpaceOnUse">
<stop stop-color="white"/>
<stop offset="1" stop-color="#F7DD43" stop-opacity="0"/>
</linearGradient>
<linearGradient id="paint12_linear_526_1181" x1="63.5" y1="322" x2="63.5" y2="633.381" gradientUnits="userSpaceOnUse">
<stop stop-color="white"/>
<stop offset="1" stop-color="#F7DD43" stop-opacity="0"/>
</linearGradient>
<linearGradient id="paint13_linear_526_1181" x1="63.5" y1="322" x2="63.5" y2="633.381" gradientUnits="userSpaceOnUse">
<stop stop-color="white"/>
<stop offset="1" stop-color="#F7DD43" stop-opacity="0"/>
</linearGradient>
<linearGradient id="paint14_linear_526_1181" x1="63.5" y1="322" x2="63.5" y2="633.381" gradientUnits="userSpaceOnUse">
<stop stop-color="white"/>
<stop offset="1" stop-color="#F7DD43" stop-opacity="0"/>
</linearGradient>
<linearGradient id="paint15_linear_526_1181" x1="63.5" y1="322" x2="63.5" y2="633.381" gradientUnits="userSpaceOnUse">
<stop stop-color="white"/>
<stop offset="1" stop-color="#F7DD43" stop-opacity="0"/>
</linearGradient>
<linearGradient id="paint16_linear_526_1181" x1="63.5" y1="322" x2="63.5" y2="633.381" gradientUnits="userSpaceOnUse">
<stop stop-color="white"/>
<stop offset="1" stop-color="#F7DD43" stop-opacity="0"/>
</linearGradient>
<linearGradient id="paint17_linear_526_1181" x1="63.5" y1="322" x2="63.5" y2="633.381" gradientUnits="userSpaceOnUse">
<stop stop-color="white"/>
<stop offset="1" stop-color="#F7DD43" stop-opacity="0"/>
</linearGradient>
<linearGradient id="paint18_linear_526_1181" x1="63.5" y1="322" x2="63.5" y2="633.381" gradientUnits="userSpaceOnUse">
<stop stop-color="white"/>
<stop offset="1" stop-color="#F7DD43" stop-opacity="0"/>
</linearGradient>
<linearGradient id="paint19_linear_526_1181" x1="63.5" y1="322" x2="63.5" y2="633.381" gradientUnits="userSpaceOnUse">
<stop stop-color="white"/>
<stop offset="1" stop-color="#F7DD43" stop-opacity="0"/>
</linearGradient>
<linearGradient id="paint20_linear_526_1181" x1="63.5" y1="322" x2="63.5" y2="633.381" gradientUnits="userSpaceOnUse">
<stop stop-color="white"/>
<stop offset="1" stop-color="#F7DD43" stop-opacity="0"/>
</linearGradient>
<linearGradient id="paint21_linear_526_1181" x1="63.5" y1="322" x2="63.5" y2="633.381" gradientUnits="userSpaceOnUse">
<stop stop-color="white"/>
<stop offset="1" stop-color="#F7DD43" stop-opacity="0"/>
</linearGradient>
<linearGradient id="paint22_linear_526_1181" x1="63.5" y1="322" x2="63.5" y2="633.381" gradientUnits="userSpaceOnUse">
<stop stop-color="white"/>
<stop offset="1" stop-color="#F7DD43" stop-opacity="0"/>
</linearGradient>
<linearGradient id="paint23_linear_526_1181" x1="63.5" y1="322" x2="63.5" y2="633.381" gradientUnits="userSpaceOnUse">
<stop stop-color="white"/>
<stop offset="1" stop-color="#F7DD43" stop-opacity="0"/>
</linearGradient>
<linearGradient id="paint24_linear_526_1181" x1="63.5" y1="322" x2="63.5" y2="633.381" gradientUnits="userSpaceOnUse">
<stop stop-color="white"/>
<stop offset="1" stop-color="#F7DD43" stop-opacity="0"/>
</linearGradient>
<linearGradient id="paint25_linear_526_1181" x1="63.5" y1="322" x2="63.5" y2="633.381" gradientUnits="userSpaceOnUse">
<stop stop-color="white"/>
<stop offset="1" stop-color="#F7DD43" stop-opacity="0"/>
</linearGradient>
<linearGradient id="paint26_linear_526_1181" x1="63.5" y1="322" x2="63.5" y2="633.381" gradientUnits="userSpaceOnUse">
<stop stop-color="white"/>
<stop offset="1" stop-color="#F7DD43" stop-opacity="0"/>
</linearGradient>
<linearGradient id="paint27_linear_526_1181" x1="63.5" y1="322" x2="63.5" y2="633.381" gradientUnits="userSpaceOnUse">
<stop stop-color="white"/>
<stop offset="1" stop-color="#F7DD43" stop-opacity="0"/>
</linearGradient>
<linearGradient id="paint28_linear_526_1181" x1="63.5" y1="322" x2="63.5" y2="633.381" gradientUnits="userSpaceOnUse">
<stop stop-color="white"/>
<stop offset="1" stop-color="#F7DD43" stop-opacity="0"/>
</linearGradient>
<linearGradient id="paint29_linear_526_1181" x1="63.5" y1="322" x2="63.5" y2="633.381" gradientUnits="userSpaceOnUse">
<stop stop-color="white"/>
<stop offset="1" stop-color="#F7DD43" stop-opacity="0"/>
</linearGradient>
<linearGradient id="paint30_linear_526_1181" x1="63.5" y1="322" x2="63.5" y2="633.381" gradientUnits="userSpaceOnUse">
<stop stop-color="white"/>
<stop offset="1" stop-color="#F7DD43" stop-opacity="0"/>
</linearGradient>
<linearGradient id="paint31_linear_526_1181" x1="63.5" y1="322" x2="63.5" y2="633.381" gradientUnits="userSpaceOnUse">
<stop stop-color="white"/>
<stop offset="1" stop-color="#F7DD43" stop-opacity="0"/>
</linearGradient>
<linearGradient id="paint32_linear_526_1181" x1="63.5" y1="322" x2="63.5" y2="633.381" gradientUnits="userSpaceOnUse">
<stop stop-color="white"/>
<stop offset="1" stop-color="#F7DD43" stop-opacity="0"/>
</linearGradient>
<linearGradient id="paint33_linear_526_1181" x1="63.5" y1="322" x2="63.5" y2="633.381" gradientUnits="userSpaceOnUse">
<stop stop-color="white"/>
<stop offset="1" stop-color="#F7DD43" stop-opacity="0"/>
</linearGradient>
<linearGradient id="paint34_linear_526_1181" x1="63.5" y1="322" x2="63.5" y2="633.381" gradientUnits="userSpaceOnUse">
<stop stop-color="white"/>
<stop offset="1" stop-color="#F7DD43" stop-opacity="0"/>
</linearGradient>
<linearGradient id="paint35_linear_526_1181" x1="63.5" y1="322" x2="63.5" y2="633.381" gradientUnits="userSpaceOnUse">
<stop stop-color="white"/>
<stop offset="1" stop-color="#F7DD43" stop-opacity="0"/>
</linearGradient>
<linearGradient id="paint36_linear_526_1181" x1="63.5" y1="322" x2="63.5" y2="633.381" gradientUnits="userSpaceOnUse">
<stop stop-color="white"/>
<stop offset="1" stop-color="#F7DD43" stop-opacity="0"/>
</linearGradient>
<linearGradient id="paint37_linear_526_1181" x1="63.5" y1="322" x2="63.5" y2="633.381" gradientUnits="userSpaceOnUse">
<stop stop-color="white"/>
<stop offset="1" stop-color="#F7DD43" stop-opacity="0"/>
</linearGradient>
<linearGradient id="paint38_linear_526_1181" x1="63.5" y1="322" x2="63.5" y2="633.381" gradientUnits="userSpaceOnUse">
<stop stop-color="white"/>
<stop offset="1" stop-color="#F7DD43" stop-opacity="0"/>
</linearGradient>
<linearGradient id="paint39_linear_526_1181" x1="63.5" y1="322" x2="63.5" y2="633.381" gradientUnits="userSpaceOnUse">
<stop stop-color="white"/>
<stop offset="1" stop-color="#F7DD43" stop-opacity="0"/>
</linearGradient>
<linearGradient id="paint40_linear_526_1181" x1="63.5" y1="322" x2="63.5" y2="633.381" gradientUnits="userSpaceOnUse">
<stop stop-color="white"/>
<stop offset="1" stop-color="#F7DD43" stop-opacity="0"/>
</linearGradient>
<linearGradient id="paint41_linear_526_1181" x1="63.5" y1="322" x2="63.5" y2="633.381" gradientUnits="userSpaceOnUse">
<stop stop-color="white"/>
<stop offset="1" stop-color="#F7DD43" stop-opacity="0"/>
</linearGradient>
<linearGradient id="paint42_linear_526_1181" x1="63.5" y1="322" x2="63.5" y2="633.381" gradientUnits="userSpaceOnUse">
<stop stop-color="white"/>
<stop offset="1" stop-color="#F7DD43" stop-opacity="0"/>
</linearGradient>
<linearGradient id="paint43_linear_526_1181" x1="63.5" y1="322" x2="63.5" y2="633.381" gradientUnits="userSpaceOnUse">
<stop stop-color="white"/>
<stop offset="1" stop-color="#F7DD43" stop-opacity="0"/>
</linearGradient>
<linearGradient id="paint44_linear_526_1181" x1="63.5" y1="322" x2="63.5" y2="633.381" gradientUnits="userSpaceOnUse">
<stop stop-color="white"/>
<stop offset="1" stop-color="#F7DD43" stop-opacity="0"/>
</linearGradient>
<linearGradient id="paint45_linear_526_1181" x1="63.5" y1="322" x2="63.5" y2="633.381" gradientUnits="userSpaceOnUse">
<stop stop-color="white"/>
<stop offset="1" stop-color="#F7DD43" stop-opacity="0"/>
</linearGradient>
<linearGradient id="paint46_linear_526_1181" x1="63.5" y1="322" x2="63.5" y2="633.381" gradientUnits="userSpaceOnUse">
<stop stop-color="white"/>
<stop offset="1" stop-color="#F7DD43" stop-opacity="0"/>
</linearGradient>
<linearGradient id="paint47_linear_526_1181" x1="949.5" y1="22" x2="949.5" y2="320.818" gradientUnits="userSpaceOnUse">
<stop stop-color="white"/>
<stop offset="1" stop-color="#F7DD43" stop-opacity="0"/>
</linearGradient>
<linearGradient id="paint48_linear_526_1181" x1="949.5" y1="22" x2="949.5" y2="320.818" gradientUnits="userSpaceOnUse">
<stop stop-color="white"/>
<stop offset="1" stop-color="#F7DD43" stop-opacity="0"/>
</linearGradient>
<linearGradient id="paint49_linear_526_1181" x1="949.5" y1="22" x2="949.5" y2="320.818" gradientUnits="userSpaceOnUse">
<stop stop-color="white"/>
<stop offset="1" stop-color="#F7DD43" stop-opacity="0"/>
</linearGradient>
<linearGradient id="paint50_linear_526_1181" x1="949.5" y1="22" x2="949.5" y2="320.818" gradientUnits="userSpaceOnUse">
<stop stop-color="white"/>
<stop offset="1" stop-color="#F7DD43" stop-opacity="0"/>
</linearGradient>
<linearGradient id="paint51_linear_526_1181" x1="949.5" y1="22" x2="949.5" y2="320.818" gradientUnits="userSpaceOnUse">
<stop stop-color="white"/>
<stop offset="1" stop-color="#F7DD43" stop-opacity="0"/>
</linearGradient>
<linearGradient id="paint52_linear_526_1181" x1="949.5" y1="22" x2="949.5" y2="320.818" gradientUnits="userSpaceOnUse">
<stop stop-color="white"/>
<stop offset="1" stop-color="#F7DD43" stop-opacity="0"/>
</linearGradient>
<linearGradient id="paint53_linear_526_1181" x1="949.5" y1="22" x2="949.5" y2="320.818" gradientUnits="userSpaceOnUse">
<stop stop-color="white"/>
<stop offset="1" stop-color="#F7DD43" stop-opacity="0"/>
</linearGradient>
<linearGradient id="paint54_linear_526_1181" x1="949.5" y1="22" x2="949.5" y2="320.818" gradientUnits="userSpaceOnUse">
<stop stop-color="white"/>
<stop offset="1" stop-color="#F7DD43" stop-opacity="0"/>
</linearGradient>
<linearGradient id="paint55_linear_526_1181" x1="949.5" y1="22" x2="949.5" y2="320.818" gradientUnits="userSpaceOnUse">
<stop stop-color="white"/>
<stop offset="1" stop-color="#F7DD43" stop-opacity="0"/>
</linearGradient>
<linearGradient id="paint56_linear_526_1181" x1="949.5" y1="22" x2="949.5" y2="320.818" gradientUnits="userSpaceOnUse">
<stop stop-color="white"/>
<stop offset="1" stop-color="#F7DD43" stop-opacity="0"/>
</linearGradient>
<linearGradient id="paint57_linear_526_1181" x1="949.5" y1="22" x2="949.5" y2="320.818" gradientUnits="userSpaceOnUse">
<stop stop-color="white"/>
<stop offset="1" stop-color="#F7DD43" stop-opacity="0"/>
</linearGradient>
<linearGradient id="paint58_linear_526_1181" x1="949.5" y1="22" x2="949.5" y2="320.818" gradientUnits="userSpaceOnUse">
<stop stop-color="white"/>
<stop offset="1" stop-color="#F7DD43" stop-opacity="0"/>
</linearGradient>
<linearGradient id="paint59_linear_526_1181" x1="949.5" y1="22" x2="949.5" y2="320.818" gradientUnits="userSpaceOnUse">
<stop stop-color="white"/>
<stop offset="1" stop-color="#F7DD43" stop-opacity="0"/>
</linearGradient>
<linearGradient id="paint60_linear_526_1181" x1="949.5" y1="22" x2="949.5" y2="320.818" gradientUnits="userSpaceOnUse">
<stop stop-color="white"/>
<stop offset="1" stop-color="#F7DD43" stop-opacity="0"/>
</linearGradient>
<linearGradient id="paint61_linear_526_1181" x1="949.5" y1="22" x2="949.5" y2="320.818" gradientUnits="userSpaceOnUse">
<stop stop-color="white"/>
<stop offset="1" stop-color="#F7DD43" stop-opacity="0"/>
</linearGradient>
<linearGradient id="paint62_linear_526_1181" x1="949.5" y1="22" x2="949.5" y2="320.818" gradientUnits="userSpaceOnUse">
<stop stop-color="white"/>
<stop offset="1" stop-color="#F7DD43" stop-opacity="0"/>
</linearGradient>
<linearGradient id="paint63_linear_526_1181" x1="949.5" y1="22" x2="949.5" y2="320.818" gradientUnits="userSpaceOnUse">
<stop stop-color="white"/>
<stop offset="1" stop-color="#F7DD43" stop-opacity="0"/>
</linearGradient>
<linearGradient id="paint64_linear_526_1181" x1="949.5" y1="22" x2="949.5" y2="320.818" gradientUnits="userSpaceOnUse">
<stop stop-color="white"/>
<stop offset="1" stop-color="#F7DD43" stop-opacity="0"/>
</linearGradient>
<linearGradient id="paint65_linear_526_1181" x1="949.5" y1="22" x2="949.5" y2="320.818" gradientUnits="userSpaceOnUse">
<stop stop-color="white"/>
<stop offset="1" stop-color="#F7DD43" stop-opacity="0"/>
</linearGradient>
<linearGradient id="paint66_linear_526_1181" x1="949.5" y1="22" x2="949.5" y2="320.818" gradientUnits="userSpaceOnUse">
<stop stop-color="white"/>
<stop offset="1" stop-color="#F7DD43" stop-opacity="0"/>
</linearGradient>
<linearGradient id="paint67_linear_526_1181" x1="949.5" y1="22" x2="949.5" y2="320.818" gradientUnits="userSpaceOnUse">
<stop stop-color="white"/>
<stop offset="1" stop-color="#F7DD43" stop-opacity="0"/>
</linearGradient>
<linearGradient id="paint68_linear_526_1181" x1="949.5" y1="22" x2="949.5" y2="320.818" gradientUnits="userSpaceOnUse">
<stop stop-color="white"/>
<stop offset="1" stop-color="#F7DD43" stop-opacity="0"/>
</linearGradient>
<linearGradient id="paint69_linear_526_1181" x1="949.5" y1="22" x2="949.5" y2="320.818" gradientUnits="userSpaceOnUse">
<stop stop-color="white"/>
<stop offset="1" stop-color="#F7DD43" stop-opacity="0"/>
</linearGradient>
<linearGradient id="paint70_linear_526_1181" x1="949.5" y1="22" x2="949.5" y2="320.818" gradientUnits="userSpaceOnUse">
<stop stop-color="white"/>
<stop offset="1" stop-color="#F7DD43" stop-opacity="0"/>
</linearGradient>
<linearGradient id="paint71_linear_526_1181" x1="949.5" y1="22" x2="949.5" y2="320.818" gradientUnits="userSpaceOnUse">
<stop stop-color="white"/>
<stop offset="1" stop-color="#F7DD43" stop-opacity="0"/>
</linearGradient>
<linearGradient id="paint72_linear_526_1181" x1="949.5" y1="22" x2="949.5" y2="320.818" gradientUnits="userSpaceOnUse">
<stop stop-color="white"/>
<stop offset="1" stop-color="#F7DD43" stop-opacity="0"/>
</linearGradient>
<linearGradient id="paint73_linear_526_1181" x1="949.5" y1="22" x2="949.5" y2="320.818" gradientUnits="userSpaceOnUse">
<stop stop-color="white"/>
<stop offset="1" stop-color="#F7DD43" stop-opacity="0"/>
</linearGradient>
<linearGradient id="paint74_linear_526_1181" x1="949.5" y1="22" x2="949.5" y2="320.818" gradientUnits="userSpaceOnUse">
<stop stop-color="white"/>
<stop offset="1" stop-color="#F7DD43" stop-opacity="0"/>
</linearGradient>
<linearGradient id="paint75_linear_526_1181" x1="949.5" y1="22" x2="949.5" y2="320.818" gradientUnits="userSpaceOnUse">
<stop stop-color="white"/>
<stop offset="1" stop-color="#F7DD43" stop-opacity="0"/>
</linearGradient>
<linearGradient id="paint76_linear_526_1181" x1="949.5" y1="22" x2="949.5" y2="320.818" gradientUnits="userSpaceOnUse">
<stop stop-color="white"/>
<stop offset="1" stop-color="#F7DD43" stop-opacity="0"/>
</linearGradient>
<linearGradient id="paint77_linear_526_1181" x1="949.5" y1="22" x2="949.5" y2="320.818" gradientUnits="userSpaceOnUse">
<stop stop-color="white"/>
<stop offset="1" stop-color="#F7DD43" stop-opacity="0"/>
</linearGradient>
<linearGradient id="paint78_linear_526_1181" x1="949.5" y1="22" x2="949.5" y2="320.818" gradientUnits="userSpaceOnUse">
<stop stop-color="white"/>
<stop offset="1" stop-color="#F7DD43" stop-opacity="0"/>
</linearGradient>
<linearGradient id="paint79_linear_526_1181" x1="949.5" y1="22" x2="949.5" y2="320.818" gradientUnits="userSpaceOnUse">
<stop stop-color="white"/>
<stop offset="1" stop-color="#F7DD43" stop-opacity="0"/>
</linearGradient>
<linearGradient id="paint80_linear_526_1181" x1="949.5" y1="22" x2="949.5" y2="320.818" gradientUnits="userSpaceOnUse">
<stop stop-color="white"/>
<stop offset="1" stop-color="#F7DD43" stop-opacity="0"/>
</linearGradient>
<linearGradient id="paint81_linear_526_1181" x1="949.5" y1="22" x2="949.5" y2="320.818" gradientUnits="userSpaceOnUse">
<stop stop-color="white"/>
<stop offset="1" stop-color="#F7DD43" stop-opacity="0"/>
</linearGradient>
<linearGradient id="paint82_linear_526_1181" x1="949.5" y1="22" x2="949.5" y2="320.818" gradientUnits="userSpaceOnUse">
<stop stop-color="white"/>
<stop offset="1" stop-color="#F7DD43" stop-opacity="0"/>
</linearGradient>
<linearGradient id="paint83_linear_526_1181" x1="949.5" y1="22" x2="949.5" y2="320.818" gradientUnits="userSpaceOnUse">
<stop stop-color="white"/>
<stop offset="1" stop-color="#F7DD43" stop-opacity="0"/>
</linearGradient>
<linearGradient id="paint84_linear_526_1181" x1="949.5" y1="22" x2="949.5" y2="320.818" gradientUnits="userSpaceOnUse">
<stop stop-color="white"/>
<stop offset="1" stop-color="#F7DD43" stop-opacity="0"/>
</linearGradient>
<linearGradient id="paint85_linear_526_1181" x1="949.5" y1="22" x2="949.5" y2="320.818" gradientUnits="userSpaceOnUse">
<stop stop-color="white"/>
<stop offset="1" stop-color="#F7DD43" stop-opacity="0"/>
</linearGradient>
<linearGradient id="paint86_linear_526_1181" x1="949.5" y1="22" x2="949.5" y2="320.818" gradientUnits="userSpaceOnUse">
<stop stop-color="white"/>
<stop offset="1" stop-color="#F7DD43" stop-opacity="0"/>
</linearGradient>
<linearGradient id="paint87_linear_526_1181" x1="949.5" y1="22" x2="949.5" y2="320.818" gradientUnits="userSpaceOnUse">
<stop stop-color="white"/>
<stop offset="1" stop-color="#F7DD43" stop-opacity="0"/>
</linearGradient>
<linearGradient id="paint88_linear_526_1181" x1="949.5" y1="22" x2="949.5" y2="320.818" gradientUnits="userSpaceOnUse">
<stop stop-color="white"/>
<stop offset="1" stop-color="#F7DD43" stop-opacity="0"/>
</linearGradient>
<linearGradient id="paint89_linear_526_1181" x1="949.5" y1="22" x2="949.5" y2="320.818" gradientUnits="userSpaceOnUse">
<stop stop-color="white"/>
<stop offset="1" stop-color="#F7DD43" stop-opacity="0"/>
</linearGradient>
<linearGradient id="paint90_linear_526_1181" x1="949.5" y1="22" x2="949.5" y2="320.818" gradientUnits="userSpaceOnUse">
<stop stop-color="white"/>
<stop offset="1" stop-color="#F7DD43" stop-opacity="0"/>
</linearGradient>
<linearGradient id="paint91_linear_526_1181" x1="949.5" y1="22" x2="949.5" y2="320.818" gradientUnits="userSpaceOnUse">
<stop stop-color="white"/>
<stop offset="1" stop-color="#F7DD43" stop-opacity="0"/>
</linearGradient>
<linearGradient id="paint92_linear_526_1181" x1="949.5" y1="22" x2="949.5" y2="320.818" gradientUnits="userSpaceOnUse">
<stop stop-color="white"/>
<stop offset="1" stop-color="#F7DD43" stop-opacity="0"/>
</linearGradient>
<linearGradient id="paint93_linear_526_1181" x1="949.5" y1="22" x2="949.5" y2="320.818" gradientUnits="userSpaceOnUse">
<stop stop-color="white"/>
<stop offset="1" stop-color="#F7DD43" stop-opacity="0"/>
</linearGradient>
<clipPath id="clip0_526_1181">
<rect width="1024" height="753" fill="white"/>
</clipPath>
</defs>
</svg>
