<svg width="51" height="51" viewBox="0 0 51 51" fill="none" xmlns="http://www.w3.org/2000/svg">
<g clip-path="url(#clip0_105_1151)">
<path d="M25.5 51C39.5833 51 51 39.5833 51 25.5C51 11.4167 39.5833 0 25.5 0C11.4167 0 0 11.4167 0 25.5C0 39.5833 11.4167 51 25.5 51Z" fill="#F0F0F0"/>
<path d="M51 25.5C51 15.3902 45.1166 6.6549 36.5869 2.53027V48.4696C45.1166 44.3451 51 35.6097 51 25.5V25.5Z" fill="#D80027"/>
<path d="M0 25.5C0 35.6098 5.88343 44.3451 14.4131 48.4697V2.53027C5.88343 6.6549 0 15.3902 0 25.5Z" fill="#D80027"/>
<path d="M29.9347 28.8261L34.3694 26.6087L32.1521 25.5V23.2826L27.7173 25.5L29.9347 21.0652H27.7173L25.4999 17.7391L23.2825 21.0652H21.0651L23.2825 25.5L18.8477 23.2826V25.5L16.6304 26.6087L21.0651 28.8261L19.9564 31.0435H24.3912V34.3695H26.6085V31.0435H31.0434L29.9347 28.8261Z" fill="#D80027"/>
</g>
<defs>
<clipPath id="clip0_105_1151">
<rect width="51" height="51" fill="white"/>
</clipPath>
</defs>
</svg>
