<svg width="51" height="51" viewBox="0 0 51 51" fill="none" xmlns="http://www.w3.org/2000/svg">
<g clip-path="url(#clip0_105_2371)">
<path d="M36.587 2.53028C33.2346 0.909234 29.4735 0 25.5001 0C21.5267 0 17.7657 0.909234 14.4132 2.53028L12.1958 25.5L14.4132 48.4697C17.7657 50.0908 21.5267 51 25.5001 51C29.4735 51 33.2346 50.0908 36.587 48.4697L38.8045 25.5L36.587 2.53028Z" fill="#FFDA44"/>
<path d="M25.4997 16.6305L27.701 23.4059H34.8259L29.0621 27.5938L31.2636 34.3695L25.4997 30.1819L19.7358 34.3695L21.9376 27.5938L16.1738 23.4059H23.2982L25.4997 16.6305Z" fill="#496E2D"/>
<path d="M14.4131 2.53113C5.88353 6.65565 0 15.3903 0 25.5C0 35.6096 5.88353 44.3443 14.4131 48.4688V2.53113Z" fill="#496E2D"/>
<path d="M36.5869 2.53113V48.4688C45.1165 44.3443 51 35.6096 51 25.5C51 15.3903 45.1165 6.65565 36.5869 2.53113Z" fill="#D80027"/>
</g>
<defs>
<clipPath id="clip0_105_2371">
<rect width="51" height="51" fill="white"/>
</clipPath>
</defs>
</svg>
