<svg width="51" height="51" viewBox="0 0 51 51" fill="none" xmlns="http://www.w3.org/2000/svg">
<g clip-path="url(#clip0_105_2873)">
<path d="M25.5 51C39.5833 51 51 39.5833 51 25.5C51 11.4167 39.5833 0 25.5 0C11.4167 0 0 11.4167 0 25.5C0 39.5833 11.4167 51 25.5 51Z" fill="#F0F0F0"/>
<path d="M51 25.5C51 39.5832 39.5832 51 25.5 51C11.4168 51 0 39.5832 0 25.5" fill="#496E2D"/>
<path d="M44.128 17.7445C43.216 15.1583 40.752 13.3042 37.8539 13.3042H32.1518C28.4779 13.3042 25.4996 16.2825 25.4996 19.9564C25.4996 21.1567 25.8192 22.3103 26.3753 23.2825C24.2579 23.2651 22.2983 23.2971 21.0648 23.2825C21.0648 20.7169 21.0648 17.4487 21.0648 16.7649L21.3268 16.503C22.5028 15.327 22.1106 13.3671 22.1106 13.3671C22.1106 13.3671 20.1509 12.9751 18.9749 14.1511L17.6044 15.5216H16.0757C12.7079 15.5216 9.97789 18.2517 9.97789 21.6194H14.4127V26.6085C14.4127 27.3383 14.5598 28.0334 14.8257 28.6666L13.3039 29.9346H11.0865V27.7172H8.86914V32.152H18.8474V36.5868H16.63V38.8042H21.0648V34.3694L23.0973 31.9303H27.9018L29.9343 34.3694V36.5868H27.7169V38.8042H36.5864V26.6084C36.5864 24.7715 38.0756 23.2824 39.9125 23.2824C39.9597 23.2824 40.0065 23.2841 40.0533 23.286C39.9615 22.9305 39.9125 22.5579 39.9125 22.1737C39.9127 19.7981 41.7807 17.8589 44.128 17.7445V17.7445ZM32.1518 36.5867V31.9302H32.3366L34.3691 34.3693V36.5867H32.1518Z" fill="#D80027"/>
</g>
<defs>
<clipPath id="clip0_105_2873">
<rect width="51" height="51" fill="white"/>
</clipPath>
</defs>
</svg>
