<svg width="51" height="51" viewBox="0 0 51 51" fill="none" xmlns="http://www.w3.org/2000/svg">
<g clip-path="url(#clip0_105_2661)">
<path d="M25.5 50.999C39.5833 50.999 51 39.5823 51 25.499C51 11.4158 39.5833 -0.000976562 25.5 -0.000976562C11.4167 -0.000976562 0 11.4158 0 25.499C0 39.5823 11.4167 50.999 25.5 50.999Z" fill="#D80027"/>
<path d="M25.5 37.6946C32.2355 37.6946 37.6957 32.2344 37.6957 25.4989C37.6957 18.7634 32.2355 13.3032 25.5 13.3032C18.7645 13.3032 13.3043 18.7634 13.3043 25.4989C13.3043 32.2344 18.7645 37.6946 25.5 37.6946Z" fill="#F0F0F0"/>
<path d="M27.0024 20.8359L29.0946 23.7191L32.483 22.6204L30.3875 25.5011L32.4795 28.3842L29.0922 27.2814L26.9967 30.1621L26.9989 26.5999L23.6117 25.4971L27.0002 24.3984L27.0024 20.8359Z" fill="#D80027"/>
<path d="M28.2717 32.7056C24.2917 32.7056 21.0652 29.479 21.0652 25.499C21.0652 21.519 24.2917 18.2925 28.2717 18.2925C29.5127 18.2925 30.6804 18.6062 31.6998 19.1587C30.1006 17.5947 27.9136 16.6294 25.5 16.6294C20.6016 16.6294 16.6305 20.6004 16.6305 25.4989C16.6305 30.3974 20.6016 34.3684 25.5 34.3684C27.9136 34.3684 30.1007 33.4031 31.6998 31.8391C30.6804 32.3918 29.5127 32.7056 28.2717 32.7056Z" fill="#D80027"/>
</g>
<defs>
<clipPath id="clip0_105_2661">
<rect width="51" height="51" fill="white" transform="translate(0 -0.000976562)"/>
</clipPath>
</defs>
</svg>
