<svg width="51" height="51" viewBox="0 0 51 51" fill="none" xmlns="http://www.w3.org/2000/svg">
<g clip-path="url(#clip0_105_958)">
<path d="M34.3695 1.58608C31.6071 0.5611 28.6192 0 25.5 0C22.3808 0 19.393 0.5611 16.6305 1.58608L14.4131 25.5L16.6305 49.4139C19.393 50.439 22.3808 51 25.5 51C28.6192 51 31.6071 50.439 34.3695 49.4139L36.5869 25.5L34.3695 1.58608Z" fill="#FFDA44"/>
<path d="M51.0001 25.5C51.0001 14.536 44.08 5.18905 34.3696 1.58618V49.4141C44.08 45.811 51.0001 36.4642 51.0001 25.5V25.5Z" fill="#D80027"/>
<path d="M0 25.5C0 36.4642 6.92006 45.811 16.6305 49.414V1.58618C6.92006 5.18905 0 14.536 0 25.5V25.5Z" fill="black"/>
</g>
<defs>
<clipPath id="clip0_105_958">
<rect width="51" height="51" fill="white"/>
</clipPath>
</defs>
</svg>
