<svg width="51" height="51" viewBox="0 0 51 51" fill="none" xmlns="http://www.w3.org/2000/svg">
<g clip-path="url(#clip0_105_847)">
<path d="M25.5 51C39.5833 51 51 39.5833 51 25.5C51 11.4167 39.5833 0 25.5 0C11.4167 0 0 11.4167 0 25.5C0 39.5833 11.4167 51 25.5 51Z" fill="#F0F0F0"/>
<path d="M25.5 0C15.3902 0 6.6549 5.88343 2.53027 14.4131H48.4696C44.3451 5.88343 35.6096 0 25.5 0V0Z" fill="#338AF3"/>
<path d="M25.5 51C35.6097 51 44.3451 45.1166 48.4697 36.5869H2.53027C6.6549 45.1166 15.3902 51 25.5 51Z" fill="#338AF3"/>
<path d="M33.1216 25.4998L30.0074 26.9647L31.6657 29.9808L28.284 29.3338L27.8555 32.75L25.5 30.2375L23.1445 32.75L22.716 29.3338L19.3343 29.9807L20.9926 26.9646L17.8784 25.4998L20.9927 24.0348L19.3343 21.0189L22.7159 21.6657L23.1446 18.2495L25.5 20.7621L27.8556 18.2495L28.284 21.6657L31.6658 21.0189L30.0075 24.0349L33.1216 25.4998Z" fill="#FFDA44"/>
</g>
<defs>
<clipPath id="clip0_105_847">
<rect width="51" height="51" fill="white"/>
</clipPath>
</defs>
</svg>
