<svg width="51" height="51" viewBox="0 0 51 51" fill="none" xmlns="http://www.w3.org/2000/svg">
<g clip-path="url(#clip0_105_865)">
<path d="M51 25.5C51 39.5832 39.5832 51 25.5 51C11.4168 51 0 39.5832 0 25.5C0 25.506 25.5 0.00288867 25.5 0C39.5832 0 51 11.4168 51 25.5Z" fill="#0052B4"/>
<path d="M25.4316 25.4999H25.4999C25.4999 25.4768 25.4999 25.4547 25.4999 25.4316C25.4772 25.4545 25.4545 25.4772 25.4316 25.4999Z" fill="#F0F0F0"/>
<path d="M25.5 13.3043C25.5 8.81742 25.5 5.87725 25.5 0H25.4957C11.4144 0.00229102 0 11.418 0 25.4999H13.3043V18.0081L20.7961 25.4999H25.4319C25.4547 25.4772 25.4774 25.4545 25.5001 25.4317C25.5001 23.7137 25.5001 22.1808 25.5001 20.7962L18.0082 13.3043H25.5Z" fill="#F0F0F0"/>
<path d="M12.901 3.32617C8.91276 5.59717 5.59717 8.91276 3.32617 12.901V25.5001H9.97839V9.97848V9.97839H25.5001C25.5001 7.88031 25.5001 5.88155 25.5001 3.32617H12.901Z" fill="#D80027"/>
<path d="M25.5003 22.3644L16.4405 13.3047H13.3047C13.3047 13.3046 13.3047 13.3047 13.3047 13.3047L25.5002 25.5002H25.5003C25.5003 25.5002 25.5003 23.3382 25.5003 22.3644Z" fill="#D80027"/>
<path d="M15.3794 29.9346L16.7789 32.8609L19.9392 32.1305L18.5239 35.0492L21.0654 37.0646L17.9011 37.7778L17.9099 41.0215L15.3794 38.9922L12.8489 41.0215L12.8578 37.7778L9.69336 37.0646L12.2349 35.0492L10.8194 32.1305L13.9799 32.8609L15.3794 29.9346Z" fill="#F0F0F0"/>
<path d="M38.1789 35.478L38.8786 36.9412L40.4588 36.5759L39.7511 38.0353L41.0219 39.043L39.4397 39.3996L39.4441 41.0215L38.1789 40.0068L36.9136 41.0215L36.918 39.3996L35.3359 39.043L36.6067 38.0353L35.899 36.5759L37.4791 36.9412L38.1789 35.478Z" fill="#F0F0F0"/>
<path d="M31.6692 19.9565L32.3689 21.4198L33.9491 21.0544L33.2415 22.5138L34.5122 23.5216L32.9301 23.8782L32.9344 25.5L31.6692 24.4853L30.404 25.5L30.4083 23.8782L28.8262 23.5216L30.0969 22.5138L29.3893 21.0544L30.9695 21.4198L31.6692 19.9565Z" fill="#F0F0F0"/>
<path d="M38.1789 11.0869L38.8786 12.5502L40.4588 12.1849L39.7512 13.6443L41.0218 14.6519L39.4397 15.0086L39.4441 16.6305L38.1789 15.6158L36.9136 16.6305L36.918 15.0086L35.3359 14.6519L36.6066 13.6443L35.899 12.1849L37.4791 12.5502L38.1789 11.0869Z" fill="#F0F0F0"/>
<path d="M43.865 17.7393L44.5647 19.2025L46.1449 18.8372L45.4373 20.2965L46.708 21.3043L45.1258 21.661L45.1302 23.2827L43.865 22.2681L42.5998 23.2827L42.6041 21.661L41.022 21.3043L42.2927 20.2965L41.5851 18.8372L43.1652 19.2025L43.865 17.7393Z" fill="#F0F0F0"/>
<path d="M39.7993 25.5L40.3497 27.194H42.1309L40.6898 28.241L41.2404 29.9348L39.7993 28.8879L38.3584 29.9348L38.9087 28.241L37.4678 27.194H39.2489L39.7993 25.5Z" fill="#F0F0F0"/>
</g>
<defs>
<clipPath id="clip0_105_865">
<rect width="51" height="51" fill="white"/>
</clipPath>
</defs>
</svg>
