<svg width="51" height="51" viewBox="0 0 51 51" fill="none" xmlns="http://www.w3.org/2000/svg">
<g clip-path="url(#clip0_105_2355)">
<path d="M25.5 51C39.5833 51 51 39.5833 51 25.5C51 11.4167 39.5833 0 25.5 0C11.4167 0 0 11.4167 0 25.5C0 39.5833 11.4167 51 25.5 51Z" fill="#6DA544"/>
<path d="M14.4131 30.4891C14.4131 32.326 15.9022 33.8152 17.7391 33.8152H27.7174C27.7174 35.346 28.9583 36.5869 30.4891 36.5869H33.8152C35.346 36.5869 36.5869 35.346 36.5869 33.8152V30.4891H14.4131Z" fill="#F0F0F0"/>
<path d="M36.8641 14.4131V22.174C36.8641 23.3967 35.8694 24.3914 34.6467 24.3914V27.7174C37.7034 27.7174 40.1902 25.2306 40.1902 22.174V14.4131H36.8641Z" fill="#F0F0F0"/>
<path d="M13.0272 22.174C13.0272 23.3967 12.0325 24.3914 10.8098 24.3914V27.7174C13.8665 27.7174 16.3533 25.2306 16.3533 22.174V14.4131H13.0272V22.174Z" fill="#F0F0F0"/>
<path d="M31.875 14.4131H35.2011V22.174H31.875V14.4131Z" fill="#F0F0F0"/>
<path d="M26.8859 18.8478C26.8859 19.1535 26.6372 19.4021 26.3315 19.4021C26.0259 19.4021 25.7772 19.1534 25.7772 18.8478V14.413H22.4512V18.8478C22.4512 19.1535 22.2024 19.4021 21.8968 19.4021C21.5912 19.4021 21.3425 19.1534 21.3425 18.8478V14.413H18.0164V18.8478C18.0164 20.9875 19.7571 22.7283 21.8968 22.7283C22.7209 22.7283 23.4851 22.4693 24.1142 22.0294C24.7433 22.4692 25.5076 22.7283 26.3316 22.7283C26.4976 22.7283 26.6608 22.7166 26.8212 22.6962C26.5856 23.6673 25.711 24.3912 24.6686 24.3912V27.7173C27.7253 27.7173 30.212 25.2304 30.212 22.1738V18.8478V14.413H26.886V18.8478H26.8859Z" fill="#F0F0F0"/>
<path d="M18.0164 24.3914H23.0055V27.7174H18.0164V24.3914Z" fill="#F0F0F0"/>
</g>
<defs>
<clipPath id="clip0_105_2355">
<rect width="51" height="51" fill="white"/>
</clipPath>
</defs>
</svg>
