<svg width="51" height="51" viewBox="0 0 51 51" fill="none" xmlns="http://www.w3.org/2000/svg">
<g clip-path="url(#clip0_105_1515)">
<path d="M25.5 51C39.5833 51 51 39.5833 51 25.5C51 11.4167 39.5833 0 25.5 0C11.4167 0 0 11.4167 0 25.5C0 39.5833 11.4167 51 25.5 51Z" fill="#F0F0F0"/>
<path d="M51.0001 25.5C51.0001 14.5359 44.08 5.18903 34.3696 1.58606V49.414C44.08 45.8109 51.0001 36.4641 51.0001 25.5V25.5Z" fill="#D80027"/>
<path d="M0 25.5C0 36.4641 6.92016 45.8109 16.6305 49.4139V1.58606C6.92016 5.18903 0 14.5359 0 25.5Z" fill="#0052B4"/>
</g>
<defs>
<clipPath id="clip0_105_1515">
<rect width="51" height="51" fill="white"/>
</clipPath>
</defs>
</svg>
