<svg width="51" height="51" viewBox="0 0 51 51" fill="none" xmlns="http://www.w3.org/2000/svg">
<g clip-path="url(#clip0_105_1551)">
<path d="M1.58607 34.3704C5.18905 44.0807 14.5359 51.0009 25.5 51.0009C36.4641 51.0009 45.8109 44.0807 49.4139 34.3704L25.5 32.1531L1.58607 34.3704Z" fill="#FFDA44"/>
<path d="M25.5 0.000976562C14.5359 0.000976562 5.18905 6.92104 1.58607 16.6315L25.5 18.8488L49.4139 16.6314C45.8109 6.92104 36.4641 0.000976562 25.5 0.000976562Z" fill="black"/>
<path d="M1.58608 16.6315C0.5611 19.3939 0 22.3818 0 25.501C0 28.6202 0.5611 31.608 1.58608 34.3705H49.414C50.439 31.608 51 28.6202 51 25.501C51 22.3818 50.439 19.3939 49.4139 16.6315H1.58608Z" fill="#D80027"/>
</g>
<defs>
<clipPath id="clip0_105_1551">
<rect width="51" height="51" fill="white" transform="translate(0 0.000976562)"/>
</clipPath>
</defs>
</svg>
