<svg width="51" height="51" viewBox="0 0 51 51" fill="none" xmlns="http://www.w3.org/2000/svg">
<g clip-path="url(#clip0_105_1961)">
<path d="M25.5 51C39.5833 51 51 39.5833 51 25.5C51 11.4167 39.5833 0 25.5 0C11.4167 0 0 11.4167 0 25.5C0 39.5833 11.4167 51 25.5 51Z" fill="#F0F0F0"/>
<path d="M51 25.5C51 15.3902 45.1166 6.6549 36.5869 2.53027V48.4696C45.1166 44.3451 51 35.6097 51 25.5V25.5Z" fill="#D80027"/>
<path d="M0 25.5C0 35.6098 5.88343 44.3451 14.4131 48.4697V2.53027C5.88343 6.6549 0 15.3902 0 25.5Z" fill="#6DA544"/>
<path d="M18.8477 25.5001C18.8477 29.174 21.826 32.1523 25.4999 32.1523C29.1738 32.1523 32.1521 29.174 32.1521 25.5001V23.2827H18.8477V25.5001Z" fill="#6DA544"/>
<path d="M34.3691 21.0651H27.7169C27.7169 19.8405 26.7241 18.8477 25.4995 18.8477C24.2749 18.8477 23.2821 19.8405 23.2821 21.0651H16.6299C16.6299 22.2898 17.6966 23.2825 18.9211 23.2825H18.8473C18.8473 24.5072 19.84 25.4999 21.0647 25.4999C21.0647 26.7246 22.0574 27.7173 23.2821 27.7173H27.7169C28.9416 27.7173 29.9343 26.7246 29.9343 25.4999C31.159 25.4999 32.1517 24.5072 32.1517 23.2825H32.0778C33.3025 23.2825 34.3691 22.2898 34.3691 21.0651Z" fill="#FF9811"/>
</g>
<defs>
<clipPath id="clip0_105_1961">
<rect width="51" height="51" fill="white"/>
</clipPath>
</defs>
</svg>
