<svg width="51" height="51" viewBox="0 0 51 51" fill="none" xmlns="http://www.w3.org/2000/svg">
<g clip-path="url(#clip0_105_1365)">
<path d="M25.5 51C39.5833 51 51 39.5833 51 25.5C51 11.4167 39.5833 0 25.5 0C11.4167 0 0 11.4167 0 25.5C0 39.5833 11.4167 51 25.5 51Z" fill="#F0F0F0"/>
<path d="M19.9566 22.1739H50.7841C49.1542 9.66231 38.4559 0 25.5 0C23.596 0 21.7415 0.210475 19.9565 0.606123V22.1739H19.9566Z" fill="#D80027"/>
<path d="M13.3043 22.1738V3.10054C6.30245 6.92096 1.28991 13.9286 0.21582 22.1739H13.3043V22.1738Z" fill="#D80027"/>
<path d="M13.3042 28.826H0.21582C1.28991 37.0714 6.30245 44.079 13.3043 47.8994L13.3042 28.826Z" fill="#D80027"/>
<path d="M19.9565 28.8262V50.3939C21.7415 50.7895 23.596 51 25.5 51C38.4559 51 49.1542 41.3377 50.7841 28.826H19.9565V28.8262Z" fill="#D80027"/>
</g>
<defs>
<clipPath id="clip0_105_1365">
<rect width="51" height="51" fill="white"/>
</clipPath>
</defs>
</svg>
