<svg width="51" height="51" viewBox="0 0 51 51" fill="none" xmlns="http://www.w3.org/2000/svg">
<g clip-path="url(#clip0_105_1441)">
<path d="M25.5 51C39.5833 51 51 39.5833 51 25.5C51 11.4167 39.5833 0 25.5 0C11.4167 0 0 11.4167 0 25.5C0 39.5833 11.4167 51 25.5 51Z" fill="#F0F0F0"/>
<path d="M50.7841 22.1739H28.8263H28.8262V0.215854C27.7373 0.0741094 26.6273 0 25.5 0C24.3727 0 23.2627 0.0741094 22.1739 0.215854V22.1737V22.1738H0.215854C0.0741094 23.2627 0 24.3725 0 25.5C0 26.6275 0.0741094 27.7373 0.215854 28.8261H22.1737H22.1738V50.7841C23.2627 50.9259 24.3727 51 25.5 51C26.6273 51 27.7373 50.926 28.8261 50.7841V28.8263V28.8262H50.7841C50.9259 27.7373 51 26.6275 51 25.5C51 24.3725 50.9259 23.2627 50.7841 22.1739V22.1739Z" fill="#D80027"/>
</g>
<defs>
<clipPath id="clip0_105_1441">
<rect width="51" height="51" fill="white"/>
</clipPath>
</defs>
</svg>
