<svg width="52" height="51" viewBox="0 0 52 51" fill="none" xmlns="http://www.w3.org/2000/svg">
<g clip-path="url(#clip0_105_2071)">
<path d="M26.4883 51C40.5715 51 51.9883 39.5833 51.9883 25.5C51.9883 11.4167 40.5715 0 26.4883 0C12.405 0 0.988281 11.4167 0.988281 25.5C0.988281 39.5833 12.405 51 26.4883 51Z" fill="#F0F0F0"/>
<path d="M26.4884 0C15.5243 0 6.17743 6.92006 2.57446 16.6305H50.4024C46.7993 6.92006 37.4525 0 26.4884 0V0Z" fill="#A2001D"/>
<path d="M26.4884 51.0001C37.4525 51.0001 46.7993 44.08 50.4023 34.3696H2.57446C6.17743 44.08 15.5243 51.0001 26.4884 51.0001Z" fill="#0052B4"/>
</g>
<defs>
<clipPath id="clip0_105_2071">
<rect width="51" height="51" fill="white" transform="translate(0.988281)"/>
</clipPath>
</defs>
</svg>
