<svg width="51" height="51" viewBox="0 0 51 51" fill="none" xmlns="http://www.w3.org/2000/svg">
<g clip-path="url(#clip0_105_2018)">
<path d="M25.5 51C39.5833 51 51 39.5833 51 25.5C51 11.4167 39.5833 0 25.5 0C11.4167 0 0 11.4167 0 25.5C0 39.5833 11.4167 51 25.5 51Z" fill="#D80027"/>
<path d="M40.5696 20.9269H29.0573L25.4999 9.97827L21.9424 20.9269H10.4302L19.7438 27.6936L16.1862 38.6426L25.4999 31.8758L34.8136 38.6427L31.256 27.6937L40.5696 20.9269ZM22.3504 26.8466L23.5534 23.1442H27.4462L28.6493 26.8466V26.8467L25.4999 29.1348L22.3505 26.8467L22.3504 26.8466ZM26.7259 20.9269H24.274L25.4999 17.1537L26.7259 20.9269ZM30.5354 25.4763L29.7777 23.1443H33.745L30.5354 25.4763ZM21.222 23.1443L20.4642 25.4763L17.2545 23.1443H21.222ZM20.404 32.8373L21.63 29.0642L23.6137 30.5054L20.404 32.8373ZM27.3861 30.5055L29.3698 29.0643L30.5958 32.8374L27.3861 30.5055Z" fill="#FFDA44"/>
</g>
<defs>
<clipPath id="clip0_105_2018">
<rect width="51" height="51" fill="white"/>
</clipPath>
</defs>
</svg>
