<svg width="51" height="51" viewBox="0 0 51 51" fill="none" xmlns="http://www.w3.org/2000/svg">
<g clip-path="url(#clip0_105_1302)">
<path d="M25.5 51C39.5833 51 51 39.5833 51 25.5C51 11.4167 39.5833 0 25.5 0C11.4167 0 0 11.4167 0 25.5C0 39.5833 11.4167 51 25.5 51Z" fill="#F0F0F0"/>
<path d="M49.4139 16.6305H1.58608C0.5611 19.393 0 22.3808 0 25.5C0 28.6192 0.5611 31.6071 1.58608 34.3695H49.414C50.439 31.6071 51 28.6192 51 25.5C51 22.3808 50.439 19.393 49.4139 16.6305Z" fill="#D80027"/>
<path d="M25.5 0C17.7712 0 10.846 3.43891 6.16968 8.86952H44.8302C40.1539 3.43891 33.2288 0 25.5 0V0Z" fill="#0052B4"/>
<path d="M44.8303 42.1305H6.16968C10.846 47.5611 17.7712 51 25.5 51C33.2288 51 40.1539 47.5611 44.8303 42.1305Z" fill="#0052B4"/>
</g>
<defs>
<clipPath id="clip0_105_1302">
<rect width="51" height="51" fill="white"/>
</clipPath>
</defs>
</svg>
