<svg width="51" height="51" viewBox="0 0 51 51" fill="none" xmlns="http://www.w3.org/2000/svg">
<g clip-path="url(#clip0_105_1421)">
<path d="M0 25.5C0 11.4168 11.4168 0 25.5 0C39.5832 0 51 11.4168 51 25.5L25.5 27.7174L0 25.5Z" fill="#FFDA44"/>
<path d="M3.41211 38.25C7.82132 45.8717 16.0614 51 25.4999 51C34.9384 51 43.1785 45.8717 47.5877 38.25L25.4999 36.5869L3.41211 38.25Z" fill="#D80027"/>
<path d="M47.5878 38.25C49.7575 34.4993 51 30.1449 51 25.5H0C0 30.1449 1.24253 34.4993 3.41222 38.25H47.5878Z" fill="#0052B4"/>
<path d="M25.4999 34.3695C30.3984 34.3695 34.3694 30.3985 34.3694 25.5C34.3694 20.6015 30.3984 16.6305 25.4999 16.6305C20.6014 16.6305 16.6304 20.6015 16.6304 25.5C16.6304 30.3985 20.6014 34.3695 25.4999 34.3695Z" fill="#FFDA44"/>
<path d="M25.5 31.0435C22.4433 31.0435 19.9565 28.5566 19.9565 25.5V22.174C19.9565 19.1172 22.4434 16.6305 25.5 16.6305C28.5566 16.6305 31.0435 19.1173 31.0435 22.174V25.5C31.0435 28.5567 28.5567 31.0435 25.5 31.0435Z" fill="#338AF3"/>
<path d="M34.3696 12.1957H27.7174C27.7174 10.9711 26.7246 9.97827 25.5 9.97827C24.2754 9.97827 23.2826 10.9711 23.2826 12.1957H16.6304C16.6304 13.4204 17.6971 14.4131 18.9216 14.4131H18.8478C18.8478 15.6378 19.8405 16.6305 21.0652 16.6305C21.0652 17.8552 22.0579 18.8479 23.2826 18.8479H27.7174C28.9421 18.8479 29.9348 17.8552 29.9348 16.6305C31.1595 16.6305 32.1522 15.6378 32.1522 14.4131H32.0784C33.303 14.4131 34.3696 13.4203 34.3696 12.1957V12.1957Z" fill="black"/>
</g>
<defs>
<clipPath id="clip0_105_1421">
<rect width="51" height="51" fill="white"/>
</clipPath>
</defs>
</svg>
