<svg width="51" height="51" viewBox="0 0 51 51" fill="none" xmlns="http://www.w3.org/2000/svg">
<g clip-path="url(#clip0_105_1308)">
<path d="M51 25.501C51 22.3818 50.4389 19.3938 49.4139 16.6315L25.5 15.5227L1.58608 16.6314C0.5611 19.3938 0 22.3818 0 25.501C0 28.6201 0.5611 31.6081 1.58608 34.3705L25.5 35.4792L49.4139 34.3706C50.4389 31.6081 51 28.6201 51 25.501Z" fill="#F0F0F0"/>
<path d="M25.5 51.001C36.4641 51.001 45.8109 44.0809 49.4139 34.3705H1.58607C5.18905 44.0809 14.5359 51.001 25.5 51.001Z" fill="#0052B4"/>
<path d="M1.58607 16.6315H49.414C45.8109 6.92104 36.4641 0.000976562 25.5 0.000976562C14.5359 0.000976562 5.18905 6.92104 1.58607 16.6315V16.6315Z" fill="#D80027"/>
<path d="M32.1522 17.7402H27.7174L28.4566 12.1967L31.413 9.97925L34.3695 12.1967V16.6315L32.1522 17.7402Z" fill="#338AF3"/>
<path d="M18.8478 17.7402H23.2826L22.5434 12.1967L19.5869 9.97925L16.6305 12.1967V16.6315L18.8478 17.7402Z" fill="#338AF3"/>
<path d="M28.4566 17.7402H22.5434V12.1967L25.5 9.97925L28.4566 12.1967V17.7402Z" fill="#0052B4"/>
<path d="M16.6305 16.6315V28.8271C16.6305 31.731 18.0332 34.3135 20.1967 35.9324L21.7489 35.5441L23.7076 37.5145C24.2869 37.6339 24.8862 37.6967 25.5001 37.6967C26.1107 37.6967 26.7071 37.6347 27.2832 37.5165L29.5191 35.6548L30.8033 35.9289C32.9659 34.31 34.3696 31.7302 34.3696 28.8271V16.6315H16.6305Z" fill="#F0F0F0"/>
<path d="M16.6305 16.6315H20.1783V20.1793H16.6305V16.6315Z" fill="#D80027"/>
<path d="M23.7261 16.6315H27.2738V20.1793H23.7261V16.6315Z" fill="#D80027"/>
<path d="M30.8217 16.6315H34.3695V20.1793H30.8217V16.6315Z" fill="#D80027"/>
<path d="M20.1783 20.1793H23.7261V23.727H20.1783V20.1793Z" fill="#D80027"/>
<path d="M27.2739 20.1793H30.8217V23.727H27.2739V20.1793Z" fill="#D80027"/>
<path d="M16.6305 23.726H20.1783V27.2737H16.6305V23.726Z" fill="#D80027"/>
<path d="M20.1783 27.2739H23.7261V30.8217H20.1783V27.2739Z" fill="#D80027"/>
<path d="M23.7261 23.726H27.2738V27.2737H23.7261V23.726Z" fill="#D80027"/>
<path d="M30.8217 23.726H34.3695V27.2737H30.8217V23.726Z" fill="#D80027"/>
<path d="M27.2739 27.2739H30.8217V30.8217H27.2739V27.2739Z" fill="#D80027"/>
<path d="M23.7261 30.8216H27.2738V34.3694H23.7261V30.8216Z" fill="#D80027"/>
<path d="M20.1783 30.8219H16.8594C17.1638 32.1407 17.7622 33.3475 18.5828 34.3697H20.1783V30.8219Z" fill="#D80027"/>
<path d="M30.8217 34.3698H32.4171C33.2379 33.3476 33.8361 32.1408 34.1405 30.822H30.8217V34.3698Z" fill="#D80027"/>
<path d="M20.1783 34.3698V35.9178C21.2101 36.6943 22.416 37.251 23.7261 37.5182V34.3698H20.1783Z" fill="#D80027"/>
<path d="M27.2739 34.3698V37.5182C28.5841 37.2512 29.7899 36.6943 30.8217 35.9178V34.3698H27.2739Z" fill="#D80027"/>
</g>
<defs>
<clipPath id="clip0_105_1308">
<rect width="51" height="51" fill="white" transform="translate(0 0.000976562)"/>
</clipPath>
</defs>
</svg>
