<svg width="51" height="51" viewBox="0 0 51 51" fill="none" xmlns="http://www.w3.org/2000/svg">
<g clip-path="url(#clip0_105_2774)">
<path d="M25.5 50.999C39.5833 50.999 51 39.5823 51 25.499C51 11.4158 39.5833 -0.000976562 25.5 -0.000976562C11.4167 -0.000976562 0 11.4158 0 25.499C0 39.5823 11.4167 50.999 25.5 50.999Z" fill="#F0F0F0"/>
<path d="M24.3914 25.4989H51C51 23.1973 50.6932 20.9677 50.1216 18.8467H24.3914V25.4989Z" fill="#D80027"/>
<path d="M24.3914 12.1947H47.2573C45.6963 9.64748 43.7004 7.39601 41.3734 5.54248H24.3914V12.1947Z" fill="#D80027"/>
<path d="M25.4999 50.999C31.5013 50.999 37.0174 48.9248 41.3733 45.4556H9.62659C13.9825 48.9248 19.4986 50.999 25.4999 50.999Z" fill="#D80027"/>
<path d="M3.74269 38.8036H47.2572C48.5104 36.7587 49.4823 34.5235 50.1215 32.1514H0.878418C1.51761 34.5235 2.4895 36.7587 3.74269 38.8036V38.8036Z" fill="#D80027"/>
<path d="M11.8121 3.98121H14.1359L11.9743 5.55155L12.8 8.09248L10.6386 6.52214L8.47716 8.09248L9.19036 5.89739C7.28722 7.48268 5.61916 9.33999 4.24455 11.4095H4.98913L3.61323 12.4091C3.39887 12.7667 3.19328 13.1299 2.99625 13.4986L3.65327 15.5208L2.42748 14.6301C2.12278 15.2757 1.84407 15.9358 1.59355 16.6097L2.31741 18.8377H4.98913L2.82761 20.4081L3.65327 22.949L1.49185 21.3787L0.197127 22.3194C0.0675352 23.3611 0 24.4221 0 25.499H25.5C25.5 11.4159 25.5 9.75556 25.5 -0.000976562C20.4626 -0.000976562 15.7667 1.46029 11.8121 3.98121V3.98121ZM12.8 22.949L10.6386 21.3787L8.47716 22.949L9.30282 20.4081L7.1413 18.8377H9.81302L10.6386 16.2968L11.4641 18.8377H14.1359L11.9743 20.4081L12.8 22.949ZM11.9743 12.9798L12.8 15.5208L10.6386 13.9504L8.47716 15.5208L9.30282 12.9798L7.1413 11.4095H9.81302L10.6386 8.86854L11.4641 11.4095H14.1359L11.9743 12.9798ZM21.9467 22.949L19.7853 21.3787L17.6239 22.949L18.4495 20.4081L16.288 18.8377H18.9597L19.7853 16.2968L20.6109 18.8377H23.2826L21.1211 20.4081L21.9467 22.949ZM21.1211 12.9798L21.9467 15.5208L19.7853 13.9504L17.6239 15.5208L18.4495 12.9798L16.288 11.4095H18.9597L19.7853 8.86854L20.6109 11.4095H23.2826L21.1211 12.9798ZM21.1211 5.55155L21.9467 8.09248L19.7853 6.52214L17.6239 8.09248L18.4495 5.55155L16.288 3.98121H18.9597L19.7853 1.44027L20.6109 3.98121H23.2826L21.1211 5.55155Z" fill="#0052B4"/>
</g>
<defs>
<clipPath id="clip0_105_2774">
<rect width="51" height="51" fill="white" transform="translate(0 -0.000976562)"/>
</clipPath>
</defs>
</svg>
