<svg width="51" height="51" viewBox="0 0 51 51" fill="none" xmlns="http://www.w3.org/2000/svg">
<g clip-path="url(#clip0_105_1699)">
<path d="M25.5 51.001C39.5833 51.001 51 39.5842 51 25.501C51 11.4177 39.5833 0.000976562 25.5 0.000976562C11.4167 0.000976562 0 11.4177 0 25.501C0 39.5842 11.4167 51.001 25.5 51.001Z" fill="#F0F0F0"/>
<path d="M33.7822 18.8487H30.4459C30.4735 19.2154 30.4891 19.5853 30.4891 19.9574C30.4891 22.4241 29.8726 24.815 28.7977 26.517C28.4661 27.0419 27.9089 27.7832 27.163 28.2832V18.8486H23.8369V28.2832C23.0912 27.7832 22.5338 27.042 22.2022 26.517C21.1273 24.815 20.5108 22.4241 20.5108 19.9574C20.5108 19.5853 20.5265 19.2153 20.554 18.8487H17.2177C17.1963 19.2136 17.1846 19.5832 17.1846 19.9574C17.1846 26.7962 20.8371 32.1531 25.4998 32.1531C30.1625 32.1531 33.815 26.7962 33.815 19.9574C33.8152 19.5832 33.8035 19.2136 33.7822 18.8487V18.8487Z" fill="#D80027"/>
<path d="M10.5326 12.1967H13.8586V14.4141H17.1847V12.1967H20.5108V14.4141H23.8368V12.1967H27.1629V14.4141H30.4889V12.1967H33.815V14.4141H37.141V12.1967H40.4671V14.4141H48.4694C44.3451 5.8844 35.6096 0.000976562 25.5 0.000976562C15.3903 0.000976562 6.6549 5.8844 2.53027 14.4141H10.5326V12.1967Z" fill="#6DA544"/>
<path d="M40.4674 36.5879V38.8053H37.1413V36.5879H33.8153V38.8053H30.4892V36.5879H27.1632V38.8053H23.8371V36.5879H20.5111V38.8053H17.185V36.5879H13.8586V38.8053H10.5326V36.5879H2.53027C6.6549 45.1175 15.3902 51.001 25.5 51.001C35.6098 51.001 44.3451 45.1175 48.4697 36.5879H40.4674Z" fill="#D80027"/>
</g>
<defs>
<clipPath id="clip0_105_1699">
<rect width="51" height="51" fill="white" transform="translate(0 0.000976562)"/>
</clipPath>
</defs>
</svg>
